<svg width="85" height="48" viewBox="0 0 85 48" fill="none" xmlns="http://www.w3.org/2000/svg">
<path d="M33.6172 18.1504H37.6162C39.4385 18.1504 40.7598 18.4111 41.5801 18.9326C42.4062 19.4482 42.8193 20.2715 42.8193 21.4023C42.8193 22.1699 42.6377 22.7998 42.2744 23.292C41.917 23.7842 41.4395 24.0801 40.8418 24.1797V24.2676C41.6562 24.4492 42.2422 24.7891 42.5996 25.2871C42.9629 25.7852 43.1445 26.4473 43.1445 27.2734C43.1445 28.4453 42.7197 29.3594 41.8701 30.0156C41.0264 30.6719 39.8779 31 38.4248 31H33.6172V18.1504ZM36.3418 23.2393H37.9238C38.6621 23.2393 39.1953 23.125 39.5234 22.8965C39.8574 22.668 40.0244 22.29 40.0244 21.7627C40.0244 21.2705 39.8428 20.9189 39.4795 20.708C39.1221 20.4912 38.5537 20.3828 37.7744 20.3828H36.3418V23.2393ZM36.3418 25.4014V28.75H38.1172C38.8672 28.75 39.4209 28.6064 39.7783 28.3193C40.1357 28.0322 40.3145 27.5928 40.3145 27.001C40.3145 25.9346 39.5527 25.4014 38.0293 25.4014H36.3418ZM54.7402 31L54.2217 29.6641H54.1514C53.7002 30.2324 53.2344 30.6279 52.7539 30.8506C52.2793 31.0674 51.6582 31.1758 50.8906 31.1758C49.9473 31.1758 49.2031 30.9062 48.6582 30.3672C48.1191 29.8281 47.8496 29.0605 47.8496 28.0645C47.8496 27.0215 48.2129 26.2539 48.9395 25.7617C49.6719 25.2637 50.7734 24.9883 52.2441 24.9355L53.9492 24.8828V24.4521C53.9492 23.4561 53.4395 22.958 52.4199 22.958C51.6348 22.958 50.7119 23.1953 49.6514 23.6699L48.7637 21.8594C49.8945 21.2676 51.1484 20.9717 52.5254 20.9717C53.8438 20.9717 54.8545 21.2588 55.5576 21.833C56.2607 22.4072 56.6123 23.2803 56.6123 24.4521V31H54.7402ZM53.9492 26.4473L52.9121 26.4824C52.1328 26.5059 51.5527 26.6465 51.1719 26.9043C50.791 27.1621 50.6006 27.5547 50.6006 28.082C50.6006 28.8379 51.0342 29.2158 51.9014 29.2158C52.5225 29.2158 53.0176 29.0371 53.3867 28.6797C53.7617 28.3223 53.9492 27.8477 53.9492 27.2559V26.4473ZM66.3711 31.1758C63.3125 31.1758 61.7832 29.4971 61.7832 26.1396C61.7832 24.4697 62.1992 23.1953 63.0312 22.3164C63.8633 21.4316 65.0557 20.9893 66.6084 20.9893C67.7451 20.9893 68.7646 21.2119 69.667 21.6572L68.876 23.7314C68.4541 23.5615 68.0615 23.4238 67.6982 23.3184C67.335 23.207 66.9717 23.1514 66.6084 23.1514C65.2139 23.1514 64.5166 24.1416 64.5166 26.1221C64.5166 28.0439 65.2139 29.0049 66.6084 29.0049C67.124 29.0049 67.6016 28.9375 68.041 28.8027C68.4805 28.6621 68.9199 28.4453 69.3594 28.1523V30.4463C68.9258 30.7217 68.4863 30.9121 68.041 31.0176C67.6016 31.123 67.0449 31.1758 66.3711 31.1758ZM77.2197 25.6562L78.3887 24.1621L81.1396 21.1738H84.1631L80.2607 25.4365L84.4004 31H81.3066L78.4766 27.0186L77.3252 27.9414V31H74.6445V17.3242H77.3252V23.4238L77.1846 25.6562H77.2197Z" fill="#929292"/>
<path d="M9.62616 18.5443L7.98023 16.9997L3.99004 20.9899L-0.000153545 24.98L4.11467 28.8416L8.22949 32.7031L9.82557 31.107L3.24185 24.9286L9.62616 18.5443Z" fill="#929292"/>
</svg>
