<svg width="719" height="540" viewBox="0 0 719 540" fill="none" xmlns="http://www.w3.org/2000/svg">
<path d="M637.809 132.601C547.251 65.7051 429.101 43.6723 353.046 72.2088C179.712 137.246 98.3511 225.511 45.2896 275.063C-7.77185 324.615 -0.696994 367.974 4.60915 389.653C9.9153 411.332 47.8648 505.509 139.032 532.115C165.562 539.858 193.862 553.795 307.059 504.242C420.257 454.69 475.087 465.53 567.061 442.302C659.034 419.074 697.946 367.974 706.789 344.746C715.633 321.518 751.007 216.22 637.809 132.601Z" fill="#FAE6DE"/>
<path d="M121.78 70.006C-12.2804 164.644 -9.18234 274.411 9.12421 317.465C14.5405 334.364 35.8798 370.578 65.4519 393.513C112.28 429.831 204.863 446.224 259.783 461.111C317.519 474.39 458.902 469.078 517.483 404.377C590.709 323.5 553.745 250.882 544.239 234.174C533.329 215 451.298 152.09 425.95 91.7341C405.672 43.4495 380.888 23.3309 371.031 19.3071C343.805 -3.22569 255.84 -24.6319 121.78 70.006Z" fill="#FABE55"/>
</svg>
