<svg width="622" height="468" viewBox="0 0 622 468" fill="none" xmlns="http://www.w3.org/2000/svg">
<path d="M551.763 114.711C473.422 56.8408 371.211 37.7804 305.417 62.4671C155.467 118.73 85.0826 195.087 39.1796 237.955C-6.72337 280.822 -0.602972 318.331 3.98732 337.085C8.57762 355.839 41.4073 437.311 120.275 460.328C143.226 467.026 167.708 479.082 265.634 436.215C363.561 393.348 410.994 402.725 490.559 382.631C570.124 362.537 603.786 318.331 611.436 298.237C619.087 278.143 649.689 187.05 551.763 114.711Z" fill="#FAE6DE"/>
<path d="M105.351 60.5615C-10.6236 142.432 -7.94356 237.39 7.89327 274.636C12.5788 289.255 31.0393 320.583 56.6218 340.424C97.1322 371.843 177.225 386.024 224.736 398.903C274.683 410.39 396.992 405.795 447.67 349.823C511.017 279.857 479.04 217.035 470.816 202.581C461.378 185.994 390.413 131.571 368.485 79.3583C350.943 37.5877 329.503 20.1833 320.975 16.7024C297.423 -2.79051 221.325 -21.3088 105.351 60.5615Z" fill="#FABE55"/>
</svg>
