<svg id="Layer_1" data-name="Layer 1" xmlns="http://www.w3.org/2000/svg" viewBox="0 0 1500 480"><defs><style>.cls-1{fill:#fff;}</style></defs><title>Cognite</title><g id="Group_6673" data-name="Group 6673"><path id="Path_1966" data-name="Path 1966" class="cls-1" d="M478.75,212.32V185.26a23.57,23.57,0,0,0-47.13,0v34.35c-13.59,3.13-29.28,6.25-45,9.38V107.14a23.44,23.44,0,0,0-23.94-22.91h-.12a23.2,23.2,0,0,0-23,22.91V240.47a8,8,0,0,0-4.18,1c-14.64,3.12-28.24,6.25-41.9,9.37V147.78a23,23,0,0,0-46.06,0V261.24c-16.74,3.15-31.42,6.26-46,8.34v-53.1a23,23,0,1,0-46.07,0v59.35C103,282.08,72.64,280,69.48,270.59c-7.31-15.63,40.83-37.53,54.42-44.77v-1h-1c-13.6,5.19-72.21,29.14-64.88,50,7.31,22.92,97.32,29.17,284.66-16.66,157-38.53,229.21-45.82,236.54-31.24,5.24,12.48-33.5,36.45-71.16,53.12a3.75,3.75,0,0,0-1,3.1c1,1.05,2.08,2.09,3.14,1.05,13.59-5.24,84.77-35.39,81.61-60.4-3.11-16.65-40.8-21.86-113-11.45M155.58,321.93v17.46a22.79,22.79,0,0,0,45.57,0v-22.6a412.54,412.54,0,0,1-45.57,5.15m92-12.89v63.49a22.79,22.79,0,0,0,45.58.89V299.68a391,391,0,0,1-45.58,9.37"/><path id="Path_1967" data-name="Path 1967" class="cls-1" d="M342.71,289.54h-3.14v44.61a23.65,23.65,0,0,0,47.27,0v-55c-13.66,3.13-28.35,6.23-44.13,10.39m88.85-20.73v26.92a23.41,23.41,0,0,0,24,22.76h.14a23.14,23.14,0,0,0,23.07-22.75V259.52q-20.47,4.64-47.29,9.3"/></g><path class="cls-1" d="M799.67,217.09a20.79,20.79,0,0,0-7.61-5.79,25.3,25.3,0,0,0-10.45-2A26.13,26.13,0,0,0,761.87,218a29.82,29.82,0,0,0-5.79,9.77,37.21,37.21,0,0,0,0,24.59,30.49,30.49,0,0,0,5.73,9.7,25.9,25.9,0,0,0,8.55,6.4,24.72,24.72,0,0,0,10.58,2.29A23.76,23.76,0,0,0,792.39,268a22.86,22.86,0,0,0,8.22-7.55l17.52,13.07a36.41,36.41,0,0,1-15.36,12.53,47.47,47.47,0,0,1-19.14,4,58.67,58.67,0,0,1-20.61-3.5,47.15,47.15,0,0,1-16.31-10A45.43,45.43,0,0,1,736,260.75a58,58,0,0,1,0-41.5,45.53,45.53,0,0,1,10.71-15.83,47.3,47.3,0,0,1,16.31-10,58.67,58.67,0,0,1,20.61-3.5,49.91,49.91,0,0,1,8.43.74,45.94,45.94,0,0,1,8.62,2.35,38.5,38.5,0,0,1,8.15,4.32,32.37,32.37,0,0,1,7,6.6Z"/><path class="cls-1" d="M841.3,240a53.91,53.91,0,0,1,3.84-20.75,45.41,45.41,0,0,1,10.72-15.83,47.17,47.17,0,0,1,16.3-10,62.46,62.46,0,0,1,41.23,0,47.17,47.17,0,0,1,16.3,10,45.41,45.41,0,0,1,10.72,15.83,58,58,0,0,1,0,41.5,45.32,45.32,0,0,1-10.72,15.83,47,47,0,0,1-16.3,10,62.46,62.46,0,0,1-41.23,0,47,47,0,0,1-16.3-10,45.32,45.32,0,0,1-10.72-15.83A53.87,53.87,0,0,1,841.3,240Zm21.83,0a35.06,35.06,0,0,0,2.09,12.33,28.11,28.11,0,0,0,6,9.7,27.32,27.32,0,0,0,9.36,6.4,33.62,33.62,0,0,0,24.39,0,27.32,27.32,0,0,0,9.36-6.4,28.11,28.11,0,0,0,6-9.7,37.21,37.21,0,0,0,0-24.59,28,28,0,0,0-6-9.77,27.32,27.32,0,0,0-9.36-6.4,33.62,33.62,0,0,0-24.39,0,27.32,27.32,0,0,0-9.36,6.4,28,28,0,0,0-6,9.77A35.19,35.19,0,0,0,863.13,240Z"/><path class="cls-1" d="M1061.74,281a76.08,76.08,0,0,1-19.4,7,99.06,99.06,0,0,1-20.62,2.15,58.63,58.63,0,0,1-20.61-3.5,47.06,47.06,0,0,1-16.31-10,45.43,45.43,0,0,1-10.71-15.83,58,58,0,0,1,0-41.5,45.53,45.53,0,0,1,10.71-15.83,47.21,47.21,0,0,1,16.31-10,58.63,58.63,0,0,1,20.61-3.5,76.34,76.34,0,0,1,21.09,2.76,41.3,41.3,0,0,1,16.91,9.5l-14.82,16.17a29.58,29.58,0,0,0-9.7-6.74,34.57,34.57,0,0,0-13.48-2.29,31.16,31.16,0,0,0-12.19,2.29,27.45,27.45,0,0,0-9.37,6.4,28.17,28.17,0,0,0-6,9.77,37.21,37.21,0,0,0,0,24.59,28.24,28.24,0,0,0,6,9.7,27.45,27.45,0,0,0,9.37,6.4,31.16,31.16,0,0,0,12.19,2.29,40,40,0,0,0,11.86-1.55,44.57,44.57,0,0,0,8-3.17V250.51h-17.11v-19.4h37.32Z"/><path class="cls-1" d="M1097,192.3h28.57l40.56,66.29h.26V192.3h21v95.4H1160l-41.64-67.91h-.27V287.7h-21Z"/><path class="cls-1" d="M1223.43,192.3h21v95.4h-21Z"/><path class="cls-1" d="M1298.88,210.9h-27.21V192.3h75.45v18.6H1319.9v76.8h-21Z"/><path class="cls-1" d="M1375.42,192.3h64.81v19.4h-43.79v17.79h41.36v19.4h-41.36V268.3h46.21v19.4h-67.23Z"/></svg>