<svg width="409" height="500" viewBox="0 0 409 500" fill="none" xmlns="http://www.w3.org/2000/svg">
<rect x="235" y="111" width="134" height="142" fill="#B1D5FB"/>
<path d="M257.738 133.674C257.738 134.436 257.462 135.033 256.911 135.467C256.361 135.9 255.601 136.117 254.632 136.117C253.663 136.117 252.87 135.967 252.253 135.666V134.342C252.644 134.525 253.058 134.67 253.495 134.775C253.937 134.881 254.347 134.934 254.726 134.934C255.281 134.934 255.689 134.828 255.951 134.617C256.216 134.406 256.349 134.123 256.349 133.768C256.349 133.447 256.228 133.176 255.986 132.953C255.744 132.73 255.244 132.467 254.486 132.162C253.704 131.846 253.154 131.484 252.833 131.078C252.513 130.672 252.353 130.184 252.353 129.613C252.353 128.898 252.607 128.336 253.115 127.926C253.622 127.516 254.304 127.311 255.16 127.311C255.98 127.311 256.796 127.49 257.609 127.85L257.163 128.992C256.402 128.672 255.722 128.512 255.124 128.512C254.671 128.512 254.328 128.611 254.093 128.811C253.859 129.006 253.742 129.266 253.742 129.59C253.742 129.812 253.788 130.004 253.882 130.164C253.976 130.32 254.13 130.469 254.345 130.609C254.56 130.75 254.947 130.936 255.505 131.166C256.134 131.428 256.595 131.672 256.888 131.898C257.181 132.125 257.396 132.381 257.533 132.666C257.669 132.951 257.738 133.287 257.738 133.674ZM258.265 129.52H259.765L261.083 133.193C261.283 133.717 261.415 134.209 261.482 134.67H261.529C261.564 134.455 261.628 134.195 261.722 133.891C261.816 133.582 262.312 132.125 263.21 129.52H264.699L261.927 136.861C261.423 138.209 260.583 138.883 259.408 138.883C259.103 138.883 258.806 138.85 258.517 138.783V137.693C258.724 137.74 258.96 137.764 259.226 137.764C259.89 137.764 260.357 137.379 260.626 136.609L260.867 136L258.265 129.52ZM270.036 134.154C270.036 134.787 269.806 135.273 269.345 135.613C268.884 135.949 268.224 136.117 267.365 136.117C266.501 136.117 265.808 135.986 265.285 135.725V134.535C266.046 134.887 266.755 135.062 267.411 135.062C268.259 135.062 268.683 134.807 268.683 134.295C268.683 134.131 268.636 133.994 268.542 133.885C268.449 133.775 268.294 133.662 268.079 133.545C267.865 133.428 267.566 133.295 267.183 133.146C266.437 132.857 265.931 132.568 265.665 132.279C265.404 131.99 265.273 131.615 265.273 131.154C265.273 130.6 265.495 130.17 265.941 129.865C266.39 129.557 266.999 129.402 267.769 129.402C268.531 129.402 269.251 129.557 269.931 129.865L269.486 130.902C268.786 130.613 268.199 130.469 267.722 130.469C266.995 130.469 266.632 130.676 266.632 131.09C266.632 131.293 266.726 131.465 266.913 131.605C267.105 131.746 267.519 131.939 268.156 132.186C268.691 132.393 269.079 132.582 269.322 132.754C269.564 132.926 269.744 133.125 269.861 133.352C269.978 133.574 270.036 133.842 270.036 134.154ZM273.945 135.004C274.281 135.004 274.617 134.951 274.953 134.846V135.883C274.8 135.949 274.603 136.004 274.361 136.047C274.122 136.094 273.874 136.117 273.617 136.117C272.312 136.117 271.66 135.43 271.66 134.055V130.562H270.775V129.953L271.724 129.449L272.193 128.078H273.042V129.52H274.888V130.562H273.042V134.031C273.042 134.363 273.124 134.609 273.288 134.77C273.456 134.926 273.675 135.004 273.945 135.004ZM279.083 136.117C278.076 136.117 277.286 135.824 276.716 135.238C276.15 134.648 275.867 133.838 275.867 132.807C275.867 131.748 276.13 130.916 276.658 130.311C277.185 129.705 277.91 129.402 278.831 129.402C279.687 129.402 280.363 129.662 280.859 130.182C281.355 130.701 281.603 131.416 281.603 132.326V133.07H277.285C277.304 133.699 277.474 134.184 277.794 134.523C278.115 134.859 278.566 135.027 279.148 135.027C279.531 135.027 279.886 134.992 280.214 134.922C280.546 134.848 280.902 134.727 281.281 134.559V135.678C280.945 135.838 280.605 135.951 280.261 136.018C279.917 136.084 279.525 136.117 279.083 136.117ZM278.831 130.445C278.394 130.445 278.042 130.584 277.777 130.861C277.515 131.139 277.359 131.543 277.308 132.074H280.249C280.242 131.539 280.113 131.135 279.863 130.861C279.613 130.584 279.269 130.445 278.831 130.445ZM288.628 136H287.245V132.004C287.245 131.508 287.152 131.139 286.964 130.896C286.777 130.65 286.484 130.527 286.085 130.527C285.554 130.527 285.163 130.701 284.913 131.049C284.667 131.393 284.544 131.967 284.544 132.771V136H283.167V129.52H284.245L284.439 130.369H284.509C284.689 130.061 284.949 129.822 285.288 129.654C285.632 129.486 286.009 129.402 286.419 129.402C287.415 129.402 288.076 129.742 288.4 130.422H288.494C288.685 130.102 288.954 129.852 289.302 129.672C289.65 129.492 290.048 129.402 290.497 129.402C291.271 129.402 291.833 129.598 292.185 129.988C292.54 130.379 292.718 130.975 292.718 131.775V136H291.341V132.004C291.341 131.508 291.245 131.139 291.054 130.896C290.867 130.65 290.574 130.527 290.175 130.527C289.64 130.527 289.247 130.695 288.997 131.031C288.751 131.363 288.628 131.875 288.628 132.566V136ZM305.509 131.705C305.509 133.1 305.16 134.184 304.46 134.957C303.765 135.73 302.779 136.117 301.501 136.117C300.208 136.117 299.214 135.734 298.519 134.969C297.828 134.199 297.482 133.107 297.482 131.693C297.482 130.279 297.829 129.193 298.525 128.436C299.224 127.678 300.22 127.299 301.513 127.299C302.786 127.299 303.771 127.684 304.466 128.453C305.161 129.223 305.509 130.307 305.509 131.705ZM298.97 131.705C298.97 132.76 299.183 133.561 299.609 134.107C300.035 134.65 300.665 134.922 301.501 134.922C302.333 134.922 302.96 134.652 303.382 134.113C303.808 133.574 304.021 132.771 304.021 131.705C304.021 130.654 303.81 129.857 303.388 129.314C302.97 128.771 302.345 128.5 301.513 128.5C300.673 128.5 300.038 128.771 299.609 129.314C299.183 129.857 298.97 130.654 298.97 131.705ZM308.679 136L306.218 129.52H307.671L308.99 133.287C309.216 133.92 309.353 134.432 309.4 134.822H309.447C309.482 134.541 309.619 134.029 309.857 133.287L311.175 129.52H312.64L310.167 136H308.679ZM316.454 136.117C315.447 136.117 314.658 135.824 314.087 135.238C313.521 134.648 313.238 133.838 313.238 132.807C313.238 131.748 313.501 130.916 314.029 130.311C314.556 129.705 315.281 129.402 316.203 129.402C317.058 129.402 317.734 129.662 318.23 130.182C318.726 130.701 318.974 131.416 318.974 132.326V133.07H314.656C314.675 133.699 314.845 134.184 315.165 134.523C315.486 134.859 315.937 135.027 316.519 135.027C316.902 135.027 317.257 134.992 317.585 134.922C317.917 134.848 318.273 134.727 318.652 134.559V135.678C318.316 135.838 317.976 135.951 317.632 136.018C317.288 136.084 316.896 136.117 316.454 136.117ZM316.203 130.445C315.765 130.445 315.413 130.584 315.148 130.861C314.886 131.139 314.73 131.543 314.679 132.074H317.62C317.613 131.539 317.484 131.135 317.234 130.861C316.984 130.584 316.64 130.445 316.203 130.445ZM323.826 129.402C324.103 129.402 324.331 129.422 324.511 129.461L324.376 130.744C324.181 130.697 323.978 130.674 323.767 130.674C323.216 130.674 322.769 130.854 322.425 131.213C322.085 131.572 321.915 132.039 321.915 132.613V136H320.538V129.52H321.617L321.798 130.662H321.869C322.083 130.275 322.363 129.969 322.706 129.742C323.054 129.516 323.427 129.402 323.826 129.402ZM327.195 136L324.734 129.52H326.187L327.505 133.287C327.732 133.92 327.869 134.432 327.915 134.822H327.962C327.997 134.541 328.134 134.029 328.372 133.287L329.691 129.52H331.156L328.683 136H327.195ZM333.517 136H332.14V129.52H333.517V136ZM332.058 127.803C332.058 127.557 332.124 127.367 332.257 127.234C332.394 127.102 332.587 127.035 332.837 127.035C333.079 127.035 333.267 127.102 333.4 127.234C333.536 127.367 333.605 127.557 333.605 127.803C333.605 128.037 333.536 128.223 333.4 128.359C333.267 128.492 333.079 128.559 332.837 128.559C332.587 128.559 332.394 128.492 332.257 128.359C332.124 128.223 332.058 128.037 332.058 127.803ZM338.322 136.117C337.314 136.117 336.525 135.824 335.954 135.238C335.388 134.648 335.105 133.838 335.105 132.807C335.105 131.748 335.369 130.916 335.896 130.311C336.423 129.705 337.148 129.402 338.07 129.402C338.925 129.402 339.601 129.662 340.097 130.182C340.593 130.701 340.841 131.416 340.841 132.326V133.07H336.523C336.542 133.699 336.712 134.184 337.033 134.523C337.353 134.859 337.804 135.027 338.386 135.027C338.769 135.027 339.124 134.992 339.453 134.922C339.785 134.848 340.14 134.727 340.519 134.559V135.678C340.183 135.838 339.843 135.951 339.499 136.018C339.156 136.084 338.763 136.117 338.322 136.117ZM338.07 130.445C337.632 130.445 337.281 130.584 337.015 130.861C336.753 131.139 336.597 131.543 336.546 132.074H339.488C339.48 131.539 339.351 131.135 339.101 130.861C338.851 130.584 338.507 130.445 338.07 130.445ZM347.72 136L346.882 132.977C346.781 132.656 346.597 131.912 346.331 130.744H346.279C346.052 131.799 345.872 132.547 345.74 132.988L344.878 136H343.355L341.538 129.52H342.945L343.771 132.713C343.958 133.502 344.091 134.178 344.169 134.74H344.204C344.244 134.455 344.302 134.129 344.38 133.762C344.462 133.391 344.533 133.113 344.591 132.93L345.576 129.52H347.087L348.042 132.93C348.101 133.121 348.173 133.414 348.259 133.809C348.349 134.203 348.402 134.51 348.417 134.729H348.464C348.523 134.248 348.66 133.576 348.874 132.713L349.712 129.52H351.095L349.267 136H347.72Z" fill="black"/>
<rect x="252" y="151" width="100" height="84" fill="#F7F9FF"/>
<path d="M296.566 165H295.166V157.635H292.646V156.434H299.086V157.635H296.566V165ZM304.312 165L304.037 164.098H303.99C303.677 164.492 303.363 164.762 303.046 164.906C302.73 165.047 302.324 165.117 301.828 165.117C301.191 165.117 300.693 164.945 300.334 164.602C299.978 164.258 299.8 163.771 299.8 163.143C299.8 162.475 300.048 161.971 300.544 161.631C301.041 161.291 301.796 161.105 302.812 161.074L303.931 161.039V160.693C303.931 160.279 303.834 159.971 303.638 159.768C303.447 159.561 303.148 159.457 302.742 159.457C302.41 159.457 302.091 159.506 301.787 159.604C301.482 159.701 301.189 159.816 300.908 159.949L300.462 158.965C300.814 158.781 301.199 158.643 301.617 158.549C302.035 158.451 302.429 158.402 302.8 158.402C303.625 158.402 304.246 158.582 304.664 158.941C305.086 159.301 305.296 159.865 305.296 160.635V165H304.312ZM302.261 164.062C302.761 164.062 303.162 163.924 303.462 163.646C303.767 163.365 303.919 162.973 303.919 162.469V161.906L303.087 161.941C302.439 161.965 301.966 162.074 301.669 162.27C301.377 162.461 301.23 162.756 301.23 163.154C301.23 163.443 301.316 163.668 301.488 163.828C301.66 163.984 301.918 164.062 302.261 164.062ZM312.691 158.52V159.275L311.584 159.48C311.685 159.617 311.769 159.785 311.836 159.984C311.902 160.184 311.935 160.395 311.935 160.617C311.935 161.285 311.705 161.811 311.244 162.193C310.783 162.576 310.148 162.768 309.339 162.768C309.132 162.768 308.945 162.752 308.777 162.721C308.48 162.904 308.332 163.119 308.332 163.365C308.332 163.514 308.4 163.625 308.537 163.699C308.677 163.773 308.933 163.811 309.304 163.811H310.435C311.15 163.811 311.693 163.963 312.064 164.268C312.435 164.572 312.621 165.012 312.621 165.586C312.621 166.32 312.318 166.887 311.712 167.285C311.107 167.684 310.232 167.883 309.087 167.883C308.205 167.883 307.531 167.727 307.066 167.414C306.601 167.102 306.369 166.656 306.369 166.078C306.369 165.68 306.494 165.344 306.744 165.07C306.998 164.801 307.351 164.613 307.804 164.508C307.621 164.43 307.468 164.305 307.347 164.133C307.23 163.957 307.171 163.773 307.171 163.582C307.171 163.34 307.24 163.135 307.377 162.967C307.513 162.799 307.716 162.633 307.986 162.469C307.65 162.324 307.377 162.09 307.166 161.766C306.959 161.438 306.855 161.055 306.855 160.617C306.855 159.914 307.076 159.369 307.517 158.982C307.962 158.596 308.595 158.402 309.416 158.402C309.599 158.402 309.791 158.416 309.99 158.443C310.193 158.467 310.345 158.492 310.447 158.52H312.691ZM307.599 166.008C307.599 166.305 307.732 166.533 307.998 166.693C308.267 166.854 308.644 166.934 309.128 166.934C309.878 166.934 310.437 166.826 310.804 166.611C311.171 166.396 311.355 166.111 311.355 165.756C311.355 165.475 311.253 165.273 311.05 165.152C310.851 165.035 310.478 164.977 309.931 164.977H308.888C308.494 164.977 308.179 165.068 307.945 165.252C307.714 165.439 307.599 165.691 307.599 166.008ZM308.191 160.617C308.191 161.023 308.294 161.336 308.502 161.555C308.712 161.773 309.013 161.883 309.404 161.883C310.201 161.883 310.599 161.457 310.599 160.605C310.599 160.184 310.5 159.859 310.3 159.633C310.105 159.402 309.806 159.287 309.404 159.287C309.005 159.287 308.703 159.4 308.496 159.627C308.293 159.854 308.191 160.184 308.191 160.617Z" fill="black"/>
<rect x="266" y="177" width="73" height="42" fill="#B1D5FB"/>
<path d="M291.971 201.258L291.115 198.879H287.84L287.002 201.258H285.525L288.731 192.656H290.254L293.459 201.258H291.971ZM290.746 197.672L289.943 195.34C289.885 195.184 289.803 194.938 289.697 194.602C289.596 194.266 289.525 194.02 289.486 193.863C289.381 194.344 289.227 194.869 289.024 195.439L288.25 197.672H290.746ZM295.82 201.258H294.443V192.141H295.82V201.258ZM300.625 201.375C299.617 201.375 298.828 201.082 298.258 200.496C297.691 199.906 297.408 199.096 297.408 198.064C297.408 197.006 297.672 196.174 298.199 195.568C298.727 194.963 299.451 194.66 300.373 194.66C301.229 194.66 301.904 194.92 302.4 195.439C302.897 195.959 303.145 196.674 303.145 197.584V198.328H298.826C298.846 198.957 299.016 199.441 299.336 199.781C299.656 200.117 300.107 200.285 300.69 200.285C301.072 200.285 301.428 200.25 301.756 200.18C302.088 200.105 302.443 199.984 302.822 199.816V200.936C302.486 201.096 302.147 201.209 301.803 201.275C301.459 201.342 301.066 201.375 300.625 201.375ZM300.373 195.703C299.936 195.703 299.584 195.842 299.318 196.119C299.057 196.396 298.9 196.801 298.85 197.332H301.791C301.783 196.797 301.654 196.393 301.404 196.119C301.154 195.842 300.811 195.703 300.373 195.703ZM307.996 194.66C308.273 194.66 308.502 194.68 308.682 194.719L308.547 196.002C308.352 195.955 308.148 195.932 307.938 195.932C307.387 195.932 306.94 196.111 306.596 196.471C306.256 196.83 306.086 197.297 306.086 197.871V201.258H304.709V194.777H305.787L305.969 195.92H306.039C306.254 195.533 306.533 195.227 306.877 195C307.225 194.773 307.598 194.66 307.996 194.66ZM312.303 200.262C312.639 200.262 312.975 200.209 313.311 200.104V201.141C313.158 201.207 312.961 201.262 312.719 201.305C312.481 201.352 312.232 201.375 311.975 201.375C310.67 201.375 310.018 200.688 310.018 199.312V195.82H309.133V195.211L310.082 194.707L310.551 193.336H311.4V194.777H313.246V195.82H311.4V199.289C311.4 199.621 311.482 199.867 311.647 200.027C311.815 200.184 312.033 200.262 312.303 200.262ZM318.965 199.412C318.965 200.045 318.734 200.531 318.273 200.871C317.813 201.207 317.152 201.375 316.293 201.375C315.43 201.375 314.736 201.244 314.213 200.982V199.793C314.975 200.145 315.684 200.32 316.34 200.32C317.188 200.32 317.611 200.064 317.611 199.553C317.611 199.389 317.565 199.252 317.471 199.143C317.377 199.033 317.223 198.92 317.008 198.803C316.793 198.686 316.494 198.553 316.111 198.404C315.365 198.115 314.859 197.826 314.594 197.537C314.332 197.248 314.201 196.873 314.201 196.412C314.201 195.857 314.424 195.428 314.869 195.123C315.318 194.814 315.928 194.66 316.697 194.66C317.459 194.66 318.18 194.814 318.859 195.123L318.414 196.16C317.715 195.871 317.127 195.727 316.65 195.727C315.924 195.727 315.561 195.934 315.561 196.348C315.561 196.551 315.654 196.723 315.842 196.863C316.033 197.004 316.447 197.197 317.084 197.443C317.619 197.65 318.008 197.84 318.25 198.012C318.492 198.184 318.672 198.383 318.789 198.609C318.906 198.832 318.965 199.1 318.965 199.412Z" fill="black"/>
<rect y="240" width="107" height="114" fill="#B1D5FB"/>
<path d="M14.7109 268L13.8555 265.621H10.5801L9.74219 268H8.26562L11.4707 259.398H12.9941L16.1992 268H14.7109ZM13.4863 264.414L12.6836 262.082C12.625 261.926 12.543 261.68 12.4375 261.344C12.3359 261.008 12.2656 260.762 12.2266 260.605C12.1211 261.086 11.9668 261.611 11.7637 262.182L10.9902 264.414H13.4863ZM19.3691 268.117C18.5605 268.117 17.9297 267.824 17.4766 267.238C17.0234 266.652 16.7969 265.83 16.7969 264.771C16.7969 263.709 17.0254 262.883 17.4824 262.293C17.9434 261.699 18.5801 261.402 19.3926 261.402C20.2441 261.402 20.8926 261.717 21.3379 262.346H21.4082C21.3418 261.881 21.3086 261.514 21.3086 261.244V258.883H22.6914V268H21.6133L21.373 267.15H21.3086C20.8672 267.795 20.2207 268.117 19.3691 268.117ZM19.7383 267.004C20.3047 267.004 20.7168 266.846 20.9746 266.529C21.2324 266.209 21.3652 265.691 21.373 264.977V264.783C21.373 263.967 21.2402 263.387 20.9746 263.043C20.709 262.699 20.293 262.527 19.7266 262.527C19.2422 262.527 18.8691 262.725 18.6074 263.119C18.3457 263.51 18.2148 264.068 18.2148 264.795C18.2148 265.514 18.3418 266.062 18.5957 266.441C18.8496 266.816 19.2305 267.004 19.7383 267.004ZM26.8457 268.117C26.0371 268.117 25.4062 267.824 24.9531 267.238C24.5 266.652 24.2734 265.83 24.2734 264.771C24.2734 263.709 24.502 262.883 24.959 262.293C25.4199 261.699 26.0566 261.402 26.8691 261.402C27.7207 261.402 28.3691 261.717 28.8145 262.346H28.8848C28.8184 261.881 28.7852 261.514 28.7852 261.244V258.883H30.168V268H29.0898L28.8496 267.15H28.7852C28.3438 267.795 27.6973 268.117 26.8457 268.117ZM27.2148 267.004C27.7812 267.004 28.1934 266.846 28.4512 266.529C28.709 266.209 28.8418 265.691 28.8496 264.977V264.783C28.8496 263.967 28.7168 263.387 28.4512 263.043C28.1855 262.699 27.7695 262.527 27.2031 262.527C26.7188 262.527 26.3457 262.725 26.084 263.119C25.8223 263.51 25.6914 264.068 25.6914 264.795C25.6914 265.514 25.8184 266.062 26.0723 266.441C26.3262 266.816 26.707 267.004 27.2148 267.004ZM38.8516 259.434L35.6641 268H34.3633L37.5566 259.434H38.8516ZM46.8496 260.512C46.0449 260.512 45.4121 260.797 44.9512 261.367C44.4902 261.938 44.2598 262.725 44.2598 263.729C44.2598 264.779 44.4805 265.574 44.9219 266.113C45.3672 266.652 46.0098 266.922 46.8496 266.922C47.2129 266.922 47.5645 266.887 47.9043 266.816C48.2441 266.742 48.5977 266.648 48.9648 266.535V267.736C48.293 267.99 47.5312 268.117 46.6797 268.117C45.4258 268.117 44.4629 267.738 43.791 266.98C43.1191 266.219 42.7832 265.131 42.7832 263.717C42.7832 262.826 42.9453 262.047 43.2695 261.379C43.5977 260.711 44.0703 260.199 44.6875 259.844C45.3047 259.488 46.0293 259.311 46.8613 259.311C47.7363 259.311 48.5449 259.494 49.2871 259.861L48.7832 261.027C48.4941 260.891 48.1875 260.771 47.8633 260.67C47.543 260.564 47.2051 260.512 46.8496 260.512ZM56.4121 264.748C56.4121 265.807 56.1406 266.633 55.5977 267.227C55.0547 267.82 54.2988 268.117 53.3301 268.117C52.7246 268.117 52.1895 267.98 51.7246 267.707C51.2598 267.434 50.9023 267.041 50.6523 266.529C50.4023 266.018 50.2773 265.424 50.2773 264.748C50.2773 263.697 50.5469 262.877 51.0859 262.287C51.625 261.697 52.3848 261.402 53.3652 261.402C54.3027 261.402 55.0449 261.705 55.5918 262.311C56.1387 262.912 56.4121 263.725 56.4121 264.748ZM51.6953 264.748C51.6953 266.244 52.248 266.992 53.3535 266.992C54.4473 266.992 54.9941 266.244 54.9941 264.748C54.9941 263.268 54.4434 262.527 53.3418 262.527C52.7637 262.527 52.3438 262.719 52.082 263.102C51.8242 263.484 51.6953 264.033 51.6953 264.748ZM63.7012 268H62.3184V264.016C62.3184 263.516 62.2168 263.143 62.0137 262.896C61.8145 262.65 61.4961 262.527 61.0586 262.527C60.4766 262.527 60.0508 262.699 59.7812 263.043C59.5117 263.387 59.377 263.963 59.377 264.771V268H58V261.52H59.0781L59.2715 262.369H59.3418C59.5371 262.061 59.8145 261.822 60.1738 261.654C60.5332 261.486 60.9316 261.402 61.3691 261.402C62.9238 261.402 63.7012 262.193 63.7012 263.775V268ZM68.8691 262.562H67.2871V268H65.9043V262.562H64.8379V261.918L65.9043 261.496V261.074C65.9043 260.309 66.084 259.742 66.4434 259.375C66.8027 259.004 67.3516 258.818 68.0898 258.818C68.5742 258.818 69.0508 258.898 69.5195 259.059L69.1562 260.102C68.8164 259.992 68.4922 259.938 68.1836 259.938C67.8711 259.938 67.6426 260.035 67.498 260.23C67.3574 260.422 67.2871 260.711 67.2871 261.098V261.52H68.8691V262.562ZM71.3477 268H69.9707V261.52H71.3477V268ZM69.8887 259.803C69.8887 259.557 69.9551 259.367 70.0879 259.234C70.2246 259.102 70.418 259.035 70.668 259.035C70.9102 259.035 71.0977 259.102 71.2305 259.234C71.3672 259.367 71.4355 259.557 71.4355 259.803C71.4355 260.037 71.3672 260.223 71.2305 260.359C71.0977 260.492 70.9102 260.559 70.668 260.559C70.418 260.559 70.2246 260.492 70.0879 260.359C69.9551 260.223 69.8887 260.037 69.8887 259.803ZM78.8008 261.52V262.275L77.6934 262.48C77.7949 262.617 77.8789 262.785 77.9453 262.984C78.0117 263.184 78.0449 263.395 78.0449 263.617C78.0449 264.285 77.8145 264.811 77.3535 265.193C76.8926 265.576 76.2578 265.768 75.4492 265.768C75.2422 265.768 75.0547 265.752 74.8867 265.721C74.5898 265.904 74.4414 266.119 74.4414 266.365C74.4414 266.514 74.5098 266.625 74.6465 266.699C74.7871 266.773 75.043 266.811 75.4141 266.811H76.5449C77.2598 266.811 77.8027 266.963 78.1738 267.268C78.5449 267.572 78.7305 268.012 78.7305 268.586C78.7305 269.32 78.4277 269.887 77.8223 270.285C77.2168 270.684 76.3418 270.883 75.1973 270.883C74.3145 270.883 73.6406 270.727 73.1758 270.414C72.7109 270.102 72.4785 269.656 72.4785 269.078C72.4785 268.68 72.6035 268.344 72.8535 268.07C73.1074 267.801 73.4609 267.613 73.9141 267.508C73.7305 267.43 73.5781 267.305 73.457 267.133C73.3398 266.957 73.2812 266.773 73.2812 266.582C73.2812 266.34 73.3496 266.135 73.4863 265.967C73.623 265.799 73.8262 265.633 74.0957 265.469C73.7598 265.324 73.4863 265.09 73.2754 264.766C73.0684 264.438 72.9648 264.055 72.9648 263.617C72.9648 262.914 73.1855 262.369 73.627 261.982C74.0723 261.596 74.7051 261.402 75.5254 261.402C75.709 261.402 75.9004 261.416 76.0996 261.443C76.3027 261.467 76.4551 261.492 76.5566 261.52H78.8008ZM73.709 269.008C73.709 269.305 73.8418 269.533 74.1074 269.693C74.377 269.854 74.7539 269.934 75.2383 269.934C75.9883 269.934 76.5469 269.826 76.9141 269.611C77.2812 269.396 77.4648 269.111 77.4648 268.756C77.4648 268.475 77.3633 268.273 77.1602 268.152C76.9609 268.035 76.5879 267.977 76.041 267.977H74.998C74.6035 267.977 74.2891 268.068 74.0547 268.252C73.8242 268.439 73.709 268.691 73.709 269.008ZM74.3008 263.617C74.3008 264.023 74.4043 264.336 74.6113 264.555C74.8223 264.773 75.123 264.883 75.5137 264.883C76.3105 264.883 76.709 264.457 76.709 263.605C76.709 263.184 76.6094 262.859 76.4102 262.633C76.2148 262.402 75.916 262.287 75.5137 262.287C75.1152 262.287 74.8125 262.4 74.6055 262.627C74.4023 262.854 74.3008 263.184 74.3008 263.617ZM84.5781 268L84.3848 267.15H84.3145C84.123 267.451 83.8496 267.688 83.4941 267.859C83.1426 268.031 82.7402 268.117 82.2871 268.117C81.502 268.117 80.916 267.922 80.5293 267.531C80.1426 267.141 79.9492 266.549 79.9492 265.756V261.52H81.3379V265.516C81.3379 266.012 81.4395 266.385 81.6426 266.635C81.8457 266.881 82.1641 267.004 82.5977 267.004C83.1758 267.004 83.5996 266.832 83.8691 266.488C84.1426 266.141 84.2793 265.561 84.2793 264.748V261.52H85.6621V268H84.5781ZM90.9121 261.402C91.1895 261.402 91.418 261.422 91.5977 261.461L91.4629 262.744C91.2676 262.697 91.0645 262.674 90.8535 262.674C90.3027 262.674 89.8555 262.854 89.5117 263.213C89.1719 263.572 89.002 264.039 89.002 264.613V268H87.625V261.52H88.7031L88.8848 262.662H88.9551C89.1699 262.275 89.4492 261.969 89.793 261.742C90.1406 261.516 90.5137 261.402 90.9121 261.402ZM95.6348 268.117C94.627 268.117 93.8379 267.824 93.2676 267.238C92.7012 266.648 92.418 265.838 92.418 264.807C92.418 263.748 92.6816 262.916 93.209 262.311C93.7363 261.705 94.4609 261.402 95.3828 261.402C96.2383 261.402 96.9141 261.662 97.4102 262.182C97.9062 262.701 98.1543 263.416 98.1543 264.326V265.07H93.8359C93.8555 265.699 94.0254 266.184 94.3457 266.523C94.666 266.859 95.1172 267.027 95.6992 267.027C96.082 267.027 96.4375 266.992 96.7656 266.922C97.0977 266.848 97.4531 266.727 97.832 266.559V267.678C97.4961 267.838 97.1562 267.951 96.8125 268.018C96.4688 268.084 96.0762 268.117 95.6348 268.117ZM95.3828 262.445C94.9453 262.445 94.5938 262.584 94.3281 262.861C94.0664 263.139 93.9102 263.543 93.8594 264.074H96.8008C96.793 263.539 96.6641 263.135 96.4141 262.861C96.1641 262.584 95.8203 262.445 95.3828 262.445ZM26.2949 284H24.8945V276.635H22.375V275.434H28.8145V276.635H26.2949V284ZM31.3633 284H29.9863V277.52H31.3633V284ZM29.9043 275.803C29.9043 275.557 29.9707 275.367 30.1035 275.234C30.2402 275.102 30.4336 275.035 30.6836 275.035C30.9258 275.035 31.1133 275.102 31.2461 275.234C31.3828 275.367 31.4512 275.557 31.4512 275.803C31.4512 276.037 31.3828 276.223 31.2461 276.359C31.1133 276.492 30.9258 276.559 30.6836 276.559C30.4336 276.559 30.2402 276.492 30.1035 276.359C29.9707 276.223 29.9043 276.037 29.9043 275.803ZM38.7988 284H37.416V280.004C37.416 279.508 37.3223 279.139 37.1348 278.896C36.9473 278.65 36.6543 278.527 36.2559 278.527C35.7246 278.527 35.334 278.701 35.084 279.049C34.8379 279.393 34.7148 279.967 34.7148 280.771V284H33.3379V277.52H34.416L34.6094 278.369H34.6797C34.8594 278.061 35.1191 277.822 35.459 277.654C35.8027 277.486 36.1797 277.402 36.5898 277.402C37.5859 277.402 38.2461 277.742 38.5703 278.422H38.6641C38.8555 278.102 39.125 277.852 39.4727 277.672C39.8203 277.492 40.2188 277.402 40.668 277.402C41.4414 277.402 42.0039 277.598 42.3555 277.988C42.7109 278.379 42.8887 278.975 42.8887 279.775V284H41.5117V280.004C41.5117 279.508 41.416 279.139 41.2246 278.896C41.0371 278.65 40.7441 278.527 40.3457 278.527C39.8105 278.527 39.418 278.695 39.168 279.031C38.9219 279.363 38.7988 279.875 38.7988 280.566V284ZM47.6406 284.117C46.6328 284.117 45.8438 283.824 45.2734 283.238C44.707 282.648 44.4238 281.838 44.4238 280.807C44.4238 279.748 44.6875 278.916 45.2148 278.311C45.7422 277.705 46.4668 277.402 47.3887 277.402C48.2441 277.402 48.9199 277.662 49.416 278.182C49.9121 278.701 50.1602 279.416 50.1602 280.326V281.07H45.8418C45.8613 281.699 46.0312 282.184 46.3516 282.523C46.6719 282.859 47.123 283.027 47.7051 283.027C48.0879 283.027 48.4434 282.992 48.7715 282.922C49.1035 282.848 49.459 282.727 49.8379 282.559V283.678C49.502 283.838 49.1621 283.951 48.8184 284.018C48.4746 284.084 48.082 284.117 47.6406 284.117ZM47.3887 278.445C46.9512 278.445 46.5996 278.584 46.334 278.861C46.0723 279.139 45.916 279.543 45.8652 280.074H48.8066C48.7988 279.539 48.6699 279.135 48.4199 278.861C48.1699 278.584 47.8262 278.445 47.3887 278.445ZM56.0781 282.154C56.0781 282.787 55.8477 283.273 55.3867 283.613C54.9258 283.949 54.2656 284.117 53.4062 284.117C52.543 284.117 51.8496 283.986 51.3262 283.725V282.535C52.0879 282.887 52.7969 283.062 53.4531 283.062C54.3008 283.062 54.7246 282.807 54.7246 282.295C54.7246 282.131 54.6777 281.994 54.584 281.885C54.4902 281.775 54.3359 281.662 54.1211 281.545C53.9062 281.428 53.6074 281.295 53.2246 281.146C52.4785 280.857 51.9727 280.568 51.707 280.279C51.4453 279.99 51.3145 279.615 51.3145 279.154C51.3145 278.6 51.5371 278.17 51.9824 277.865C52.4316 277.557 53.041 277.402 53.8105 277.402C54.5723 277.402 55.293 277.557 55.9727 277.865L55.5273 278.902C54.8281 278.613 54.2402 278.469 53.7637 278.469C53.0371 278.469 52.6738 278.676 52.6738 279.09C52.6738 279.293 52.7676 279.465 52.9551 279.605C53.1465 279.746 53.5605 279.939 54.1973 280.186C54.7324 280.393 55.1211 280.582 55.3633 280.754C55.6055 280.926 55.7852 281.125 55.9023 281.352C56.0195 281.574 56.0781 281.842 56.0781 282.154ZM60.4023 284.117C59.3945 284.117 58.6055 283.824 58.0352 283.238C57.4688 282.648 57.1855 281.838 57.1855 280.807C57.1855 279.748 57.4492 278.916 57.9766 278.311C58.5039 277.705 59.2285 277.402 60.1504 277.402C61.0059 277.402 61.6816 277.662 62.1777 278.182C62.6738 278.701 62.9219 279.416 62.9219 280.326V281.07H58.6035C58.623 281.699 58.793 282.184 59.1133 282.523C59.4336 282.859 59.8848 283.027 60.4668 283.027C60.8496 283.027 61.2051 282.992 61.5332 282.922C61.8652 282.848 62.2207 282.727 62.5996 282.559V283.678C62.2637 283.838 61.9238 283.951 61.5801 284.018C61.2363 284.084 60.8438 284.117 60.4023 284.117ZM60.1504 278.445C59.7129 278.445 59.3613 278.584 59.0957 278.861C58.834 279.139 58.6777 279.543 58.627 280.074H61.5684C61.5605 279.539 61.4316 279.135 61.1816 278.861C60.9316 278.584 60.5879 278.445 60.1504 278.445ZM67.7734 277.402C68.0508 277.402 68.2793 277.422 68.459 277.461L68.3242 278.744C68.1289 278.697 67.9258 278.674 67.7148 278.674C67.1641 278.674 66.7168 278.854 66.373 279.213C66.0332 279.572 65.8633 280.039 65.8633 280.613V284H64.4863V277.52H65.5645L65.7461 278.662H65.8164C66.0312 278.275 66.3105 277.969 66.6543 277.742C67.002 277.516 67.375 277.402 67.7734 277.402ZM71.043 284H69.666V277.52H71.043V284ZM69.584 275.803C69.584 275.557 69.6504 275.367 69.7832 275.234C69.9199 275.102 70.1133 275.035 70.3633 275.035C70.6055 275.035 70.793 275.102 70.9258 275.234C71.0625 275.367 71.1309 275.557 71.1309 275.803C71.1309 276.037 71.0625 276.223 70.9258 276.359C70.793 276.492 70.6055 276.559 70.3633 276.559C70.1133 276.559 69.9199 276.492 69.7832 276.359C69.6504 276.223 69.584 276.037 69.584 275.803ZM75.8477 284.117C74.8398 284.117 74.0508 283.824 73.4805 283.238C72.9141 282.648 72.6309 281.838 72.6309 280.807C72.6309 279.748 72.8945 278.916 73.4219 278.311C73.9492 277.705 74.6738 277.402 75.5957 277.402C76.4512 277.402 77.127 277.662 77.623 278.182C78.1191 278.701 78.3672 279.416 78.3672 280.326V281.07H74.0488C74.0684 281.699 74.2383 282.184 74.5586 282.523C74.8789 282.859 75.3301 283.027 75.9121 283.027C76.2949 283.027 76.6504 282.992 76.9785 282.922C77.3105 282.848 77.666 282.727 78.0449 282.559V283.678C77.709 283.838 77.3691 283.951 77.0254 284.018C76.6816 284.084 76.2891 284.117 75.8477 284.117ZM75.5957 278.445C75.1582 278.445 74.8066 278.584 74.541 278.861C74.2793 279.139 74.123 279.543 74.0723 280.074H77.0137C77.0059 279.539 76.877 279.135 76.627 278.861C76.377 278.584 76.0332 278.445 75.5957 278.445ZM84.2852 282.154C84.2852 282.787 84.0547 283.273 83.5938 283.613C83.1328 283.949 82.4727 284.117 81.6133 284.117C80.75 284.117 80.0566 283.986 79.5332 283.725V282.535C80.2949 282.887 81.0039 283.062 81.6602 283.062C82.5078 283.062 82.9316 282.807 82.9316 282.295C82.9316 282.131 82.8848 281.994 82.791 281.885C82.6973 281.775 82.543 281.662 82.3281 281.545C82.1133 281.428 81.8145 281.295 81.4316 281.146C80.6855 280.857 80.1797 280.568 79.9141 280.279C79.6523 279.99 79.5215 279.615 79.5215 279.154C79.5215 278.6 79.7441 278.17 80.1895 277.865C80.6387 277.557 81.248 277.402 82.0176 277.402C82.7793 277.402 83.5 277.557 84.1797 277.865L83.7344 278.902C83.0352 278.613 82.4473 278.469 81.9707 278.469C81.2441 278.469 80.8809 278.676 80.8809 279.09C80.8809 279.293 80.9746 279.465 81.1621 279.605C81.3535 279.746 81.7676 279.939 82.4043 280.186C82.9395 280.393 83.3281 280.582 83.5703 280.754C83.8125 280.926 83.9922 281.125 84.1094 281.352C84.2266 281.574 84.2852 281.842 84.2852 282.154Z" fill="black"/>
<rect x="18" y="297" width="72" height="44" fill="#F7F9FF"/>
<path d="M41.2578 316L38.7734 308.846H38.7266C38.793 309.908 38.8262 310.904 38.8262 311.834V316H37.5547V307.434H39.5293L41.9082 314.248H41.9434L44.3926 307.434H46.373V316H45.0254V311.764C45.0254 311.338 45.0352 310.783 45.0547 310.1C45.0781 309.416 45.0977 309.002 45.1133 308.857H45.0664L42.4941 316H41.2578ZM54.2305 312.748C54.2305 313.807 53.959 314.633 53.416 315.227C52.873 315.82 52.1172 316.117 51.1484 316.117C50.543 316.117 50.0078 315.98 49.543 315.707C49.0781 315.434 48.7207 315.041 48.4707 314.529C48.2207 314.018 48.0957 313.424 48.0957 312.748C48.0957 311.697 48.3652 310.877 48.9043 310.287C49.4434 309.697 50.2031 309.402 51.1836 309.402C52.1211 309.402 52.8633 309.705 53.4102 310.311C53.957 310.912 54.2305 311.725 54.2305 312.748ZM49.5137 312.748C49.5137 314.244 50.0664 314.992 51.1719 314.992C52.2656 314.992 52.8125 314.244 52.8125 312.748C52.8125 311.268 52.2617 310.527 51.1602 310.527C50.582 310.527 50.1621 310.719 49.9004 311.102C49.6426 311.484 49.5137 312.033 49.5137 312.748ZM58.0039 316.117C57.1953 316.117 56.5645 315.824 56.1113 315.238C55.6582 314.652 55.4316 313.83 55.4316 312.771C55.4316 311.709 55.6602 310.883 56.1172 310.293C56.5781 309.699 57.2148 309.402 58.0273 309.402C58.8789 309.402 59.5273 309.717 59.9727 310.346H60.043C59.9766 309.881 59.9434 309.514 59.9434 309.244V306.883H61.3262V316H60.248L60.0078 315.15H59.9434C59.502 315.795 58.8555 316.117 58.0039 316.117ZM58.373 315.004C58.9395 315.004 59.3516 314.846 59.6094 314.529C59.8672 314.209 60 313.691 60.0078 312.977V312.783C60.0078 311.967 59.875 311.387 59.6094 311.043C59.3438 310.699 58.9277 310.527 58.3613 310.527C57.877 310.527 57.5039 310.725 57.2422 311.119C56.9805 311.51 56.8496 312.068 56.8496 312.795C56.8496 313.514 56.9766 314.062 57.2305 314.441C57.4844 314.816 57.8652 315.004 58.373 315.004ZM66.125 316.117C65.1172 316.117 64.3281 315.824 63.7578 315.238C63.1914 314.648 62.9082 313.838 62.9082 312.807C62.9082 311.748 63.1719 310.916 63.6992 310.311C64.2266 309.705 64.9512 309.402 65.873 309.402C66.7285 309.402 67.4043 309.662 67.9004 310.182C68.3965 310.701 68.6445 311.416 68.6445 312.326V313.07H64.3262C64.3457 313.699 64.5156 314.184 64.8359 314.523C65.1562 314.859 65.6074 315.027 66.1895 315.027C66.5723 315.027 66.9277 314.992 67.2559 314.922C67.5879 314.848 67.9434 314.727 68.3223 314.559V315.678C67.9863 315.838 67.6465 315.951 67.3027 316.018C66.959 316.084 66.5664 316.117 66.125 316.117ZM65.873 310.445C65.4355 310.445 65.084 310.584 64.8184 310.861C64.5566 311.139 64.4004 311.543 64.3496 312.074H67.291C67.2832 311.539 67.1543 311.135 66.9043 310.861C66.6543 310.584 66.3105 310.445 65.873 310.445ZM71.5859 316H70.209V306.883H71.5859V316ZM44.1406 332V323.434H45.541V332H44.1406ZM53.3633 332H51.9805V328.016C51.9805 327.516 51.8789 327.143 51.6758 326.896C51.4766 326.65 51.1582 326.527 50.7207 326.527C50.1387 326.527 49.7129 326.699 49.4434 327.043C49.1738 327.387 49.0391 327.963 49.0391 328.771V332H47.6621V325.52H48.7402L48.9336 326.369H49.0039C49.1992 326.061 49.4766 325.822 49.8359 325.654C50.1953 325.486 50.5938 325.402 51.0312 325.402C52.5859 325.402 53.3633 326.193 53.3633 327.775V332ZM58.5312 326.562H56.9492V332H55.5664V326.562H54.5V325.918L55.5664 325.496V325.074C55.5664 324.309 55.7461 323.742 56.1055 323.375C56.4648 323.004 57.0137 322.818 57.752 322.818C58.2363 322.818 58.7129 322.898 59.1816 323.059L58.8184 324.102C58.4785 323.992 58.1543 323.938 57.8457 323.938C57.5332 323.938 57.3047 324.035 57.1602 324.23C57.0195 324.422 56.9492 324.711 56.9492 325.098V325.52H58.5312V326.562ZM65.3867 328.748C65.3867 329.807 65.1152 330.633 64.5723 331.227C64.0293 331.82 63.2734 332.117 62.3047 332.117C61.6992 332.117 61.1641 331.98 60.6992 331.707C60.2344 331.434 59.877 331.041 59.627 330.529C59.377 330.018 59.252 329.424 59.252 328.748C59.252 327.697 59.5215 326.877 60.0605 326.287C60.5996 325.697 61.3594 325.402 62.3398 325.402C63.2773 325.402 64.0195 325.705 64.5664 326.311C65.1133 326.912 65.3867 327.725 65.3867 328.748ZM60.6699 328.748C60.6699 330.244 61.2227 330.992 62.3281 330.992C63.4219 330.992 63.9688 330.244 63.9688 328.748C63.9688 327.268 63.418 326.527 62.3164 326.527C61.7383 326.527 61.3184 326.719 61.0566 327.102C60.7988 327.484 60.6699 328.033 60.6699 328.748Z" fill="black"/>
<path d="M54 204.924L53 204.924L53 203.929L53.9949 203.924L54 204.924ZM54.7071 240.707C54.3166 241.098 53.6834 241.098 53.2929 240.707L46.9289 234.343C46.5384 233.953 46.5384 233.319 46.9289 232.929C47.3195 232.538 47.9526 232.538 48.3431 232.929L54 238.586L59.6569 232.929C60.0474 232.538 60.6805 232.538 61.0711 232.929C61.4616 233.319 61.4616 233.953 61.0711 234.343L54.7071 240.707ZM236.005 205L54.0051 205.924L53.9949 203.924L235.995 203L236.005 205ZM55 204.924L55 240L53 240L53 204.924L55 204.924Z" fill="black"/>
<path d="M302.293 300.707C302.683 301.098 303.317 301.098 303.707 300.707L310.071 294.343C310.462 293.953 310.462 293.319 310.071 292.929C309.681 292.538 309.047 292.538 308.657 292.929L303 298.586L297.343 292.929C296.953 292.538 296.319 292.538 295.929 292.929C295.538 293.319 295.538 293.953 295.929 294.343L302.293 300.707ZM302 234L302 300L304 300L304 234L302 234Z" fill="black"/>
<path d="M53.0001 399L52.0001 399L52.0001 400L53.0001 400L53.0001 399ZM53.7073 354.45C53.3167 354.059 52.6836 354.059 52.2931 354.45L45.9291 360.814C45.5385 361.204 45.5386 361.838 45.9291 362.228C46.3196 362.619 46.9528 362.619 47.3433 362.228L53.0002 356.571L58.657 362.228C59.0475 362.619 59.6807 362.619 60.0712 362.228C60.4617 361.838 60.4617 361.204 60.0712 360.814L53.7073 354.45ZM313 398.001L53.0001 398L53.0001 400L313 400.001L313 398.001ZM54.0001 399L54.0002 355.157L52.0002 355.157L52.0001 399L54.0001 399Z" fill="black"/>
<path d="M302.707 111.707C302.317 112.098 301.683 112.098 301.293 111.707L294.929 105.343C294.538 104.953 294.538 104.319 294.929 103.929C295.319 103.538 295.953 103.538 296.343 103.929L302 109.586L307.657 103.929C308.047 103.538 308.681 103.538 309.071 103.929C309.462 104.319 309.462 104.953 309.071 105.343L302.707 111.707ZM303 38V111H301V38H303Z" fill="black"/>
<rect x="200" y="302" width="209" height="174" fill="#B1D5FB"/>
<path d="M264.632 327H263.232V319.635H260.712V318.434H267.152V319.635H264.632V327ZM269.701 327H268.324V320.52H269.701V327ZM268.242 318.803C268.242 318.557 268.308 318.367 268.441 318.234C268.578 318.102 268.771 318.035 269.021 318.035C269.263 318.035 269.451 318.102 269.583 318.234C269.72 318.367 269.788 318.557 269.788 318.803C269.788 319.037 269.72 319.223 269.583 319.359C269.451 319.492 269.263 319.559 269.021 319.559C268.771 319.559 268.578 319.492 268.441 319.359C268.308 319.223 268.242 319.037 268.242 318.803ZM277.136 327H275.753V323.004C275.753 322.508 275.66 322.139 275.472 321.896C275.285 321.65 274.992 321.527 274.593 321.527C274.062 321.527 273.671 321.701 273.421 322.049C273.175 322.393 273.052 322.967 273.052 323.771V327H271.675V320.52H272.753L272.947 321.369H273.017C273.197 321.061 273.456 320.822 273.796 320.654C274.14 320.486 274.517 320.402 274.927 320.402C275.923 320.402 276.583 320.742 276.908 321.422H277.001C277.193 321.102 277.462 320.852 277.81 320.672C278.158 320.492 278.556 320.402 279.005 320.402C279.779 320.402 280.341 320.598 280.693 320.988C281.048 321.379 281.226 321.975 281.226 322.775V327H279.849V323.004C279.849 322.508 279.753 322.139 279.562 321.896C279.374 321.65 279.081 321.527 278.683 321.527C278.148 321.527 277.755 321.695 277.505 322.031C277.259 322.363 277.136 322.875 277.136 323.566V327ZM285.978 327.117C284.97 327.117 284.181 326.824 283.611 326.238C283.044 325.648 282.761 324.838 282.761 323.807C282.761 322.748 283.025 321.916 283.552 321.311C284.079 320.705 284.804 320.402 285.726 320.402C286.581 320.402 287.257 320.662 287.753 321.182C288.249 321.701 288.497 322.416 288.497 323.326V324.07H284.179C284.199 324.699 284.369 325.184 284.689 325.523C285.009 325.859 285.46 326.027 286.042 326.027C286.425 326.027 286.781 325.992 287.109 325.922C287.441 325.848 287.796 325.727 288.175 325.559V326.678C287.839 326.838 287.499 326.951 287.156 327.018C286.812 327.084 286.419 327.117 285.978 327.117ZM285.726 321.445C285.288 321.445 284.937 321.584 284.671 321.861C284.41 322.139 284.253 322.543 284.203 323.074H287.144C287.136 322.539 287.007 322.135 286.757 321.861C286.507 321.584 286.163 321.445 285.726 321.445ZM294.415 325.154C294.415 325.787 294.185 326.273 293.724 326.613C293.263 326.949 292.603 327.117 291.744 327.117C290.88 327.117 290.187 326.986 289.663 326.725V325.535C290.425 325.887 291.134 326.062 291.79 326.062C292.638 326.062 293.062 325.807 293.062 325.295C293.062 325.131 293.015 324.994 292.921 324.885C292.828 324.775 292.673 324.662 292.458 324.545C292.244 324.428 291.945 324.295 291.562 324.146C290.816 323.857 290.31 323.568 290.044 323.279C289.783 322.99 289.652 322.615 289.652 322.154C289.652 321.6 289.874 321.17 290.32 320.865C290.769 320.557 291.378 320.402 292.148 320.402C292.91 320.402 293.63 320.557 294.31 320.865L293.865 321.902C293.165 321.613 292.578 321.469 292.101 321.469C291.374 321.469 291.011 321.676 291.011 322.09C291.011 322.293 291.105 322.465 291.292 322.605C291.484 322.746 291.898 322.939 292.535 323.186C293.07 323.393 293.458 323.582 293.701 323.754C293.943 323.926 294.122 324.125 294.24 324.352C294.357 324.574 294.415 324.842 294.415 325.154ZM298.74 327.117C297.732 327.117 296.943 326.824 296.372 326.238C295.806 325.648 295.523 324.838 295.523 323.807C295.523 322.748 295.786 321.916 296.314 321.311C296.841 320.705 297.566 320.402 298.488 320.402C299.343 320.402 300.019 320.662 300.515 321.182C301.011 321.701 301.259 322.416 301.259 323.326V324.07H296.941C296.96 324.699 297.13 325.184 297.451 325.523C297.771 325.859 298.222 326.027 298.804 326.027C299.187 326.027 299.542 325.992 299.87 325.922C300.203 325.848 300.558 325.727 300.937 325.559V326.678C300.601 326.838 300.261 326.951 299.917 327.018C299.574 327.084 299.181 327.117 298.74 327.117ZM298.488 321.445C298.05 321.445 297.699 321.584 297.433 321.861C297.171 322.139 297.015 322.543 296.964 323.074H299.906C299.898 322.539 299.769 322.135 299.519 321.861C299.269 321.584 298.925 321.445 298.488 321.445ZM306.111 320.402C306.388 320.402 306.617 320.422 306.796 320.461L306.661 321.744C306.466 321.697 306.263 321.674 306.052 321.674C305.501 321.674 305.054 321.854 304.71 322.213C304.37 322.572 304.201 323.039 304.201 323.613V327H302.824V320.52H303.902L304.083 321.662H304.154C304.369 321.275 304.648 320.969 304.992 320.742C305.339 320.516 305.712 320.402 306.111 320.402ZM309.38 327H308.003V320.52H309.38V327ZM307.921 318.803C307.921 318.557 307.988 318.367 308.12 318.234C308.257 318.102 308.451 318.035 308.701 318.035C308.943 318.035 309.13 318.102 309.263 318.234C309.4 318.367 309.468 318.557 309.468 318.803C309.468 319.037 309.4 319.223 309.263 319.359C309.13 319.492 308.943 319.559 308.701 319.559C308.451 319.559 308.257 319.492 308.12 319.359C307.988 319.223 307.921 319.037 307.921 318.803ZM314.185 327.117C313.177 327.117 312.388 326.824 311.818 326.238C311.251 325.648 310.968 324.838 310.968 323.807C310.968 322.748 311.232 321.916 311.759 321.311C312.286 320.705 313.011 320.402 313.933 320.402C314.788 320.402 315.464 320.662 315.96 321.182C316.456 321.701 316.704 322.416 316.704 323.326V324.07H312.386C312.406 324.699 312.576 325.184 312.896 325.523C313.216 325.859 313.667 326.027 314.249 326.027C314.632 326.027 314.988 325.992 315.316 325.922C315.648 325.848 316.003 325.727 316.382 325.559V326.678C316.046 326.838 315.706 326.951 315.363 327.018C315.019 327.084 314.626 327.117 314.185 327.117ZM313.933 321.445C313.495 321.445 313.144 321.584 312.878 321.861C312.617 322.139 312.46 322.543 312.41 323.074H315.351C315.343 322.539 315.214 322.135 314.964 321.861C314.714 321.584 314.37 321.445 313.933 321.445ZM322.622 325.154C322.622 325.787 322.392 326.273 321.931 326.613C321.47 326.949 320.81 327.117 319.951 327.117C319.087 327.117 318.394 326.986 317.87 326.725V325.535C318.632 325.887 319.341 326.062 319.997 326.062C320.845 326.062 321.269 325.807 321.269 325.295C321.269 325.131 321.222 324.994 321.128 324.885C321.035 324.775 320.88 324.662 320.665 324.545C320.451 324.428 320.152 324.295 319.769 324.146C319.023 323.857 318.517 323.568 318.251 323.279C317.99 322.99 317.859 322.615 317.859 322.154C317.859 321.6 318.081 321.17 318.527 320.865C318.976 320.557 319.585 320.402 320.355 320.402C321.117 320.402 321.837 320.557 322.517 320.865L322.072 321.902C321.372 321.613 320.785 321.469 320.308 321.469C319.581 321.469 319.218 321.676 319.218 322.09C319.218 322.293 319.312 322.465 319.499 322.605C319.691 322.746 320.105 322.939 320.742 323.186C321.277 323.393 321.665 323.582 321.908 323.754C322.15 323.926 322.329 324.125 322.447 324.352C322.564 324.574 322.622 324.842 322.622 325.154ZM334.136 327H332.73V323.139H328.781V327H327.38V318.434H328.781V321.938H332.73V318.434H334.136V327ZM340.816 327L340.622 326.15H340.552C340.361 326.451 340.087 326.688 339.732 326.859C339.38 327.031 338.978 327.117 338.525 327.117C337.74 327.117 337.154 326.922 336.767 326.531C336.38 326.141 336.187 325.549 336.187 324.756V320.52H337.576V324.516C337.576 325.012 337.677 325.385 337.88 325.635C338.083 325.881 338.402 326.004 338.835 326.004C339.413 326.004 339.837 325.832 340.107 325.488C340.38 325.141 340.517 324.561 340.517 323.748V320.52H341.9V327H340.816ZM347.173 320.402C347.982 320.402 348.611 320.695 349.06 321.281C349.513 321.867 349.74 322.689 349.74 323.748C349.74 324.811 349.511 325.639 349.054 326.232C348.597 326.822 347.962 327.117 347.15 327.117C346.329 327.117 345.693 326.822 345.24 326.232H345.146L344.894 327H343.863V317.883H345.24V320.051C345.24 320.211 345.232 320.449 345.216 320.766C345.201 321.082 345.189 321.283 345.181 321.369H345.24C345.677 320.725 346.322 320.402 347.173 320.402ZM346.816 321.527C346.261 321.527 345.861 321.691 345.615 322.02C345.372 322.344 345.247 322.889 345.24 323.654V323.748C345.24 324.537 345.365 325.109 345.615 325.465C345.865 325.816 346.273 325.992 346.839 325.992C347.328 325.992 347.697 325.799 347.947 325.412C348.201 325.025 348.328 324.467 348.328 323.736C348.328 322.264 347.824 321.527 346.816 321.527Z" fill="black"/>
<rect x="224" y="348" width="72" height="44" fill="#F7F9FF"/>
<path d="M248.803 367L247.947 364.621H244.672L243.834 367H242.357L245.562 358.398H247.086L250.291 367H248.803ZM247.578 363.414L246.775 361.082C246.717 360.926 246.635 360.68 246.529 360.344C246.428 360.008 246.357 359.762 246.318 359.605C246.213 360.086 246.059 360.611 245.855 361.182L245.082 363.414H247.578ZM253.889 367.117C252.908 367.117 252.162 366.832 251.65 366.262C251.143 365.688 250.889 364.865 250.889 363.795C250.889 362.705 251.154 361.867 251.686 361.281C252.221 360.695 252.992 360.402 254 360.402C254.684 360.402 255.299 360.529 255.846 360.783L255.43 361.891C254.848 361.664 254.367 361.551 253.988 361.551C252.867 361.551 252.307 362.295 252.307 363.783C252.307 364.51 252.445 365.057 252.723 365.424C253.004 365.787 253.414 365.969 253.953 365.969C254.566 365.969 255.146 365.816 255.693 365.512V366.713C255.447 366.857 255.184 366.961 254.902 367.023C254.625 367.086 254.287 367.117 253.889 367.117ZM259.631 366.004C259.967 366.004 260.303 365.951 260.639 365.846V366.883C260.486 366.949 260.289 367.004 260.047 367.047C259.809 367.094 259.561 367.117 259.303 367.117C257.998 367.117 257.346 366.43 257.346 365.055V361.562H256.461V360.953L257.41 360.449L257.879 359.078H258.729V360.52H260.574V361.562H258.729V365.031C258.729 365.363 258.811 365.609 258.975 365.77C259.143 365.926 259.361 366.004 259.631 366.004ZM263.316 367H261.939V360.52H263.316V367ZM261.857 358.803C261.857 358.557 261.924 358.367 262.057 358.234C262.193 358.102 262.387 358.035 262.637 358.035C262.879 358.035 263.066 358.102 263.199 358.234C263.336 358.367 263.404 358.557 263.404 358.803C263.404 359.037 263.336 359.223 263.199 359.359C263.066 359.492 262.879 359.559 262.637 359.559C262.387 359.559 262.193 359.492 262.057 359.359C261.924 359.223 261.857 359.037 261.857 358.803ZM266.768 367L264.307 360.52H265.76L267.078 364.287C267.305 364.92 267.441 365.432 267.488 365.822H267.535C267.57 365.541 267.707 365.029 267.945 364.287L269.264 360.52H270.729L268.256 367H266.768ZM274.543 367.117C273.535 367.117 272.746 366.824 272.176 366.238C271.609 365.648 271.326 364.838 271.326 363.807C271.326 362.748 271.59 361.916 272.117 361.311C272.645 360.705 273.369 360.402 274.291 360.402C275.146 360.402 275.822 360.662 276.318 361.182C276.814 361.701 277.062 362.416 277.062 363.326V364.07H272.744C272.764 364.699 272.934 365.184 273.254 365.523C273.574 365.859 274.025 366.027 274.607 366.027C274.99 366.027 275.346 365.992 275.674 365.922C276.006 365.848 276.361 365.727 276.74 365.559V366.678C276.404 366.838 276.064 366.951 275.721 367.018C275.377 367.084 274.984 367.117 274.543 367.117ZM274.291 361.445C273.854 361.445 273.502 361.584 273.236 361.861C272.975 362.139 272.818 362.543 272.768 363.074H275.709C275.701 362.539 275.572 362.135 275.322 361.861C275.072 361.584 274.729 361.445 274.291 361.445ZM249.471 383L248.615 380.621H245.34L244.502 383H243.025L246.23 374.398H247.754L250.959 383H249.471ZM248.246 379.414L247.443 377.082C247.385 376.926 247.303 376.68 247.197 376.344C247.096 376.008 247.025 375.762 246.986 375.605C246.881 376.086 246.727 376.611 246.523 377.182L245.75 379.414H248.246ZM253.32 383H251.943V373.883H253.32V383ZM258.125 383.117C257.117 383.117 256.328 382.824 255.758 382.238C255.191 381.648 254.908 380.838 254.908 379.807C254.908 378.748 255.172 377.916 255.699 377.311C256.227 376.705 256.951 376.402 257.873 376.402C258.729 376.402 259.404 376.662 259.9 377.182C260.396 377.701 260.645 378.416 260.645 379.326V380.07H256.326C256.346 380.699 256.516 381.184 256.836 381.523C257.156 381.859 257.607 382.027 258.189 382.027C258.572 382.027 258.928 381.992 259.256 381.922C259.588 381.848 259.943 381.727 260.322 381.559V382.678C259.986 382.838 259.646 382.951 259.303 383.018C258.959 383.084 258.566 383.117 258.125 383.117ZM257.873 377.445C257.436 377.445 257.084 377.584 256.818 377.861C256.557 378.139 256.4 378.543 256.35 379.074H259.291C259.283 378.539 259.154 378.135 258.904 377.861C258.654 377.584 258.311 377.445 257.873 377.445ZM265.496 376.402C265.773 376.402 266.002 376.422 266.182 376.461L266.047 377.744C265.852 377.697 265.648 377.674 265.438 377.674C264.887 377.674 264.439 377.854 264.096 378.213C263.756 378.572 263.586 379.039 263.586 379.613V383H262.209V376.52H263.287L263.469 377.662H263.539C263.754 377.275 264.033 376.969 264.377 376.742C264.725 376.516 265.098 376.402 265.496 376.402ZM269.803 382.004C270.139 382.004 270.475 381.951 270.811 381.846V382.883C270.658 382.949 270.461 383.004 270.219 383.047C269.98 383.094 269.732 383.117 269.475 383.117C268.17 383.117 267.518 382.43 267.518 381.055V377.562H266.633V376.953L267.582 376.449L268.051 375.078H268.9V376.52H270.746V377.562H268.9V381.031C268.9 381.363 268.982 381.609 269.146 381.77C269.314 381.926 269.533 382.004 269.803 382.004ZM276.465 381.154C276.465 381.787 276.234 382.273 275.773 382.613C275.312 382.949 274.652 383.117 273.793 383.117C272.93 383.117 272.236 382.986 271.713 382.725V381.535C272.475 381.887 273.184 382.062 273.84 382.062C274.688 382.062 275.111 381.807 275.111 381.295C275.111 381.131 275.064 380.994 274.971 380.885C274.877 380.775 274.723 380.662 274.508 380.545C274.293 380.428 273.994 380.295 273.611 380.146C272.865 379.857 272.359 379.568 272.094 379.279C271.832 378.99 271.701 378.615 271.701 378.154C271.701 377.6 271.924 377.17 272.369 376.865C272.818 376.557 273.428 376.402 274.197 376.402C274.959 376.402 275.68 376.557 276.359 376.865L275.914 377.902C275.215 377.613 274.627 377.469 274.15 377.469C273.424 377.469 273.061 377.676 273.061 378.09C273.061 378.293 273.154 378.465 273.342 378.605C273.533 378.746 273.947 378.939 274.584 379.186C275.119 379.393 275.508 379.582 275.75 379.754C275.992 379.926 276.172 380.125 276.289 380.352C276.406 380.574 276.465 380.842 276.465 381.154Z" fill="black"/>
<rect x="314" y="348" width="72" height="44" fill="#F7F9FF"/>
<path d="M344.346 361.023C344.346 361.918 344.053 362.604 343.467 363.08C342.881 363.557 342.047 363.795 340.965 363.795H340.074V367H338.674V358.434H341.141C342.211 358.434 343.012 358.652 343.543 359.09C344.078 359.527 344.346 360.172 344.346 361.023ZM340.074 362.617H340.818C341.537 362.617 342.064 362.492 342.4 362.242C342.736 361.992 342.904 361.602 342.904 361.07C342.904 360.578 342.754 360.211 342.453 359.969C342.152 359.727 341.684 359.605 341.047 359.605H340.074V362.617ZM349.965 367L349.689 366.098H349.643C349.33 366.492 349.016 366.762 348.699 366.906C348.383 367.047 347.977 367.117 347.48 367.117C346.844 367.117 346.346 366.945 345.986 366.602C345.631 366.258 345.453 365.771 345.453 365.143C345.453 364.475 345.701 363.971 346.197 363.631C346.693 363.291 347.449 363.105 348.465 363.074L349.584 363.039V362.693C349.584 362.279 349.486 361.971 349.291 361.768C349.1 361.561 348.801 361.457 348.395 361.457C348.062 361.457 347.744 361.506 347.439 361.604C347.135 361.701 346.842 361.816 346.561 361.949L346.115 360.965C346.467 360.781 346.852 360.643 347.27 360.549C347.688 360.451 348.082 360.402 348.453 360.402C349.277 360.402 349.898 360.582 350.316 360.941C350.738 361.301 350.949 361.865 350.949 362.635V367H349.965ZM347.914 366.062C348.414 366.062 348.814 365.924 349.115 365.646C349.42 365.365 349.572 364.973 349.572 364.469V363.906L348.74 363.941C348.092 363.965 347.619 364.074 347.322 364.27C347.029 364.461 346.883 364.756 346.883 365.154C346.883 365.443 346.969 365.668 347.141 365.828C347.312 365.984 347.57 366.062 347.914 366.062ZM357.225 365.154C357.225 365.787 356.994 366.273 356.533 366.613C356.072 366.949 355.412 367.117 354.553 367.117C353.689 367.117 352.996 366.986 352.473 366.725V365.535C353.234 365.887 353.943 366.062 354.6 366.062C355.447 366.062 355.871 365.807 355.871 365.295C355.871 365.131 355.824 364.994 355.73 364.885C355.637 364.775 355.482 364.662 355.268 364.545C355.053 364.428 354.754 364.295 354.371 364.146C353.625 363.857 353.119 363.568 352.854 363.279C352.592 362.99 352.461 362.615 352.461 362.154C352.461 361.6 352.684 361.17 353.129 360.865C353.578 360.557 354.188 360.402 354.957 360.402C355.719 360.402 356.439 360.557 357.119 360.865L356.674 361.902C355.975 361.613 355.387 361.469 354.91 361.469C354.184 361.469 353.82 361.676 353.82 362.09C353.82 362.293 353.914 362.465 354.102 362.605C354.293 362.746 354.707 362.939 355.344 363.186C355.879 363.393 356.268 363.582 356.51 363.754C356.752 363.926 356.932 364.125 357.049 364.352C357.166 364.574 357.225 364.842 357.225 365.154ZM361.133 366.004C361.469 366.004 361.805 365.951 362.141 365.846V366.883C361.988 366.949 361.791 367.004 361.549 367.047C361.311 367.094 361.062 367.117 360.805 367.117C359.5 367.117 358.848 366.43 358.848 365.055V361.562H357.963V360.953L358.912 360.449L359.381 359.078H360.23V360.52H362.076V361.562H360.23V365.031C360.23 365.363 360.312 365.609 360.477 365.77C360.645 365.926 360.863 366.004 361.133 366.004ZM339.471 383L338.615 380.621H335.34L334.502 383H333.025L336.23 374.398H337.754L340.959 383H339.471ZM338.246 379.414L337.443 377.082C337.385 376.926 337.303 376.68 337.197 376.344C337.096 376.008 337.025 375.762 336.986 375.605C336.881 376.086 336.727 376.611 336.523 377.182L335.75 379.414H338.246ZM343.32 383H341.943V373.883H343.32V383ZM348.125 383.117C347.117 383.117 346.328 382.824 345.758 382.238C345.191 381.648 344.908 380.838 344.908 379.807C344.908 378.748 345.172 377.916 345.699 377.311C346.227 376.705 346.951 376.402 347.873 376.402C348.729 376.402 349.404 376.662 349.9 377.182C350.396 377.701 350.645 378.416 350.645 379.326V380.07H346.326C346.346 380.699 346.516 381.184 346.836 381.523C347.156 381.859 347.607 382.027 348.189 382.027C348.572 382.027 348.928 381.992 349.256 381.922C349.588 381.848 349.943 381.727 350.322 381.559V382.678C349.986 382.838 349.646 382.951 349.303 383.018C348.959 383.084 348.566 383.117 348.125 383.117ZM347.873 377.445C347.436 377.445 347.084 377.584 346.818 377.861C346.557 378.139 346.4 378.543 346.35 379.074H349.291C349.283 378.539 349.154 378.135 348.904 377.861C348.654 377.584 348.311 377.445 347.873 377.445ZM355.496 376.402C355.773 376.402 356.002 376.422 356.182 376.461L356.047 377.744C355.852 377.697 355.648 377.674 355.438 377.674C354.887 377.674 354.439 377.854 354.096 378.213C353.756 378.572 353.586 379.039 353.586 379.613V383H352.209V376.52H353.287L353.469 377.662H353.539C353.754 377.275 354.033 376.969 354.377 376.742C354.725 376.516 355.098 376.402 355.496 376.402ZM359.803 382.004C360.139 382.004 360.475 381.951 360.811 381.846V382.883C360.658 382.949 360.461 383.004 360.219 383.047C359.98 383.094 359.732 383.117 359.475 383.117C358.17 383.117 357.518 382.43 357.518 381.055V377.562H356.633V376.953L357.582 376.449L358.051 375.078H358.9V376.52H360.746V377.562H358.9V381.031C358.9 381.363 358.982 381.609 359.146 381.77C359.314 381.926 359.533 382.004 359.803 382.004ZM366.465 381.154C366.465 381.787 366.234 382.273 365.773 382.613C365.312 382.949 364.652 383.117 363.793 383.117C362.93 383.117 362.236 382.986 361.713 382.725V381.535C362.475 381.887 363.184 382.062 363.84 382.062C364.688 382.062 365.111 381.807 365.111 381.295C365.111 381.131 365.064 380.994 364.971 380.885C364.877 380.775 364.723 380.662 364.508 380.545C364.293 380.428 363.994 380.295 363.611 380.146C362.865 379.857 362.359 379.568 362.094 379.279C361.832 378.99 361.701 378.615 361.701 378.154C361.701 377.6 361.924 377.17 362.369 376.865C362.818 376.557 363.428 376.402 364.197 376.402C364.959 376.402 365.68 376.557 366.359 376.865L365.914 377.902C365.215 377.613 364.627 377.469 364.15 377.469C363.424 377.469 363.061 377.676 363.061 378.09C363.061 378.293 363.154 378.465 363.342 378.605C363.533 378.746 363.947 378.939 364.584 379.186C365.119 379.393 365.508 379.582 365.75 379.754C365.992 379.926 366.172 380.125 366.289 380.352C366.406 380.574 366.465 380.842 366.465 381.154Z" fill="black"/>
<rect x="314" y="408" width="72" height="44" fill="#F7F9FF"/>
<path d="M327.312 429.635C327.312 431.049 326.92 432.131 326.135 432.881C325.35 433.627 324.219 434 322.742 434H320.346V425.434H322.994C324.357 425.434 325.418 425.801 326.176 426.535C326.934 427.27 327.312 428.303 327.312 429.635ZM325.836 429.682C325.836 427.631 324.877 426.605 322.959 426.605H321.746V432.822H322.742C324.805 432.822 325.836 431.775 325.836 429.682ZM330.389 434H329.012V427.52H330.389V434ZM328.93 425.803C328.93 425.557 328.996 425.367 329.129 425.234C329.266 425.102 329.459 425.035 329.709 425.035C329.951 425.035 330.139 425.102 330.271 425.234C330.408 425.367 330.477 425.557 330.477 425.803C330.477 426.037 330.408 426.223 330.271 426.359C330.139 426.492 329.951 426.559 329.709 426.559C329.459 426.559 329.266 426.492 329.129 426.359C328.996 426.223 328.93 426.037 328.93 425.803ZM336.717 432.154C336.717 432.787 336.486 433.273 336.025 433.613C335.564 433.949 334.904 434.117 334.045 434.117C333.182 434.117 332.488 433.986 331.965 433.725V432.535C332.727 432.887 333.436 433.062 334.092 433.062C334.939 433.062 335.363 432.807 335.363 432.295C335.363 432.131 335.316 431.994 335.223 431.885C335.129 431.775 334.975 431.662 334.76 431.545C334.545 431.428 334.246 431.295 333.863 431.146C333.117 430.857 332.611 430.568 332.346 430.279C332.084 429.99 331.953 429.615 331.953 429.154C331.953 428.6 332.176 428.17 332.621 427.865C333.07 427.557 333.68 427.402 334.449 427.402C335.211 427.402 335.932 427.557 336.611 427.865L336.166 428.902C335.467 428.613 334.879 428.469 334.402 428.469C333.676 428.469 333.312 428.676 333.312 429.09C333.312 429.293 333.406 429.465 333.594 429.605C333.785 429.746 334.199 429.939 334.836 430.186C335.371 430.393 335.76 430.582 336.002 430.754C336.244 430.926 336.424 431.125 336.541 431.352C336.658 431.574 336.717 431.842 336.717 432.154ZM340.824 434.117C339.844 434.117 339.098 433.832 338.586 433.262C338.078 432.688 337.824 431.865 337.824 430.795C337.824 429.705 338.09 428.867 338.621 428.281C339.156 427.695 339.928 427.402 340.936 427.402C341.619 427.402 342.234 427.529 342.781 427.783L342.365 428.891C341.783 428.664 341.303 428.551 340.924 428.551C339.803 428.551 339.242 429.295 339.242 430.783C339.242 431.51 339.381 432.057 339.658 432.424C339.939 432.787 340.35 432.969 340.889 432.969C341.502 432.969 342.082 432.816 342.629 432.512V433.713C342.383 433.857 342.119 433.961 341.838 434.023C341.561 434.086 341.223 434.117 340.824 434.117ZM348.723 434L348.529 433.15H348.459C348.268 433.451 347.994 433.688 347.639 433.859C347.287 434.031 346.885 434.117 346.432 434.117C345.646 434.117 345.061 433.922 344.674 433.531C344.287 433.141 344.094 432.549 344.094 431.756V427.52H345.482V431.516C345.482 432.012 345.584 432.385 345.787 432.635C345.99 432.881 346.309 433.004 346.742 433.004C347.32 433.004 347.744 432.832 348.014 432.488C348.287 432.141 348.424 431.561 348.424 430.748V427.52H349.807V434H348.723ZM356.123 432.154C356.123 432.787 355.893 433.273 355.432 433.613C354.971 433.949 354.311 434.117 353.451 434.117C352.588 434.117 351.895 433.986 351.371 433.725V432.535C352.133 432.887 352.842 433.062 353.498 433.062C354.346 433.062 354.77 432.807 354.77 432.295C354.77 432.131 354.723 431.994 354.629 431.885C354.535 431.775 354.381 431.662 354.166 431.545C353.951 431.428 353.652 431.295 353.27 431.146C352.523 430.857 352.018 430.568 351.752 430.279C351.49 429.99 351.359 429.615 351.359 429.154C351.359 428.6 351.582 428.17 352.027 427.865C352.477 427.557 353.086 427.402 353.855 427.402C354.617 427.402 355.338 427.557 356.018 427.865L355.572 428.902C354.873 428.613 354.285 428.469 353.809 428.469C353.082 428.469 352.719 428.676 352.719 429.09C352.719 429.293 352.812 429.465 353 429.605C353.191 429.746 353.605 429.939 354.242 430.186C354.777 430.393 355.166 430.582 355.408 430.754C355.65 430.926 355.83 431.125 355.947 431.352C356.064 431.574 356.123 431.842 356.123 432.154ZM361.971 432.154C361.971 432.787 361.74 433.273 361.279 433.613C360.818 433.949 360.158 434.117 359.299 434.117C358.436 434.117 357.742 433.986 357.219 433.725V432.535C357.98 432.887 358.689 433.062 359.346 433.062C360.193 433.062 360.617 432.807 360.617 432.295C360.617 432.131 360.57 431.994 360.477 431.885C360.383 431.775 360.229 431.662 360.014 431.545C359.799 431.428 359.5 431.295 359.117 431.146C358.371 430.857 357.865 430.568 357.6 430.279C357.338 429.99 357.207 429.615 357.207 429.154C357.207 428.6 357.43 428.17 357.875 427.865C358.324 427.557 358.934 427.402 359.703 427.402C360.465 427.402 361.186 427.557 361.865 427.865L361.42 428.902C360.721 428.613 360.133 428.469 359.656 428.469C358.93 428.469 358.566 428.676 358.566 429.09C358.566 429.293 358.66 429.465 358.848 429.605C359.039 429.746 359.453 429.939 360.09 430.186C360.625 430.393 361.014 430.582 361.256 430.754C361.498 430.926 361.678 431.125 361.795 431.352C361.912 431.574 361.971 431.842 361.971 432.154ZM364.842 434H363.465V427.52H364.842V434ZM363.383 425.803C363.383 425.557 363.449 425.367 363.582 425.234C363.719 425.102 363.912 425.035 364.162 425.035C364.404 425.035 364.592 425.102 364.725 425.234C364.861 425.367 364.93 425.557 364.93 425.803C364.93 426.037 364.861 426.223 364.725 426.359C364.592 426.492 364.404 426.559 364.162 426.559C363.912 426.559 363.719 426.492 363.582 426.359C363.449 426.223 363.383 426.037 363.383 425.803ZM372.564 430.748C372.564 431.807 372.293 432.633 371.75 433.227C371.207 433.82 370.451 434.117 369.482 434.117C368.877 434.117 368.342 433.98 367.877 433.707C367.412 433.434 367.055 433.041 366.805 432.529C366.555 432.018 366.43 431.424 366.43 430.748C366.43 429.697 366.699 428.877 367.238 428.287C367.777 427.697 368.537 427.402 369.518 427.402C370.455 427.402 371.197 427.705 371.744 428.311C372.291 428.912 372.564 429.725 372.564 430.748ZM367.848 430.748C367.848 432.244 368.4 432.992 369.506 432.992C370.6 432.992 371.146 432.244 371.146 430.748C371.146 429.268 370.596 428.527 369.494 428.527C368.916 428.527 368.496 428.719 368.234 429.102C367.977 429.484 367.848 430.033 367.848 430.748ZM379.854 434H378.471V430.016C378.471 429.516 378.369 429.143 378.166 428.896C377.967 428.65 377.648 428.527 377.211 428.527C376.629 428.527 376.203 428.699 375.934 429.043C375.664 429.387 375.529 429.963 375.529 430.771V434H374.152V427.52H375.23L375.424 428.369H375.494C375.689 428.061 375.967 427.822 376.326 427.654C376.686 427.486 377.084 427.402 377.521 427.402C379.076 427.402 379.854 428.193 379.854 429.775V434Z" fill="black"/>
<rect x="224" y="408" width="72" height="44" fill="#F7F9FF"/>
<path d="M235.051 434H233.662V425.434H238.496V426.617H235.051V429.295H238.279V430.484H235.051V434ZM242.732 434.117C241.725 434.117 240.936 433.824 240.365 433.238C239.799 432.648 239.516 431.838 239.516 430.807C239.516 429.748 239.779 428.916 240.307 428.311C240.834 427.705 241.559 427.402 242.48 427.402C243.336 427.402 244.012 427.662 244.508 428.182C245.004 428.701 245.252 429.416 245.252 430.326V431.07H240.934C240.953 431.699 241.123 432.184 241.443 432.523C241.764 432.859 242.215 433.027 242.797 433.027C243.18 433.027 243.535 432.992 243.863 432.922C244.195 432.848 244.551 432.727 244.93 432.559V433.678C244.594 433.838 244.254 433.951 243.91 434.018C243.566 434.084 243.174 434.117 242.732 434.117ZM242.48 428.445C242.043 428.445 241.691 428.584 241.426 428.861C241.164 429.139 241.008 429.543 240.957 430.074H243.898C243.891 429.539 243.762 429.135 243.512 428.861C243.262 428.584 242.918 428.445 242.48 428.445ZM249.646 434.117C248.639 434.117 247.85 433.824 247.279 433.238C246.713 432.648 246.43 431.838 246.43 430.807C246.43 429.748 246.693 428.916 247.221 428.311C247.748 427.705 248.473 427.402 249.395 427.402C250.25 427.402 250.926 427.662 251.422 428.182C251.918 428.701 252.166 429.416 252.166 430.326V431.07H247.848C247.867 431.699 248.037 432.184 248.357 432.523C248.678 432.859 249.129 433.027 249.711 433.027C250.094 433.027 250.449 432.992 250.777 432.922C251.109 432.848 251.465 432.727 251.844 432.559V433.678C251.508 433.838 251.168 433.951 250.824 434.018C250.48 434.084 250.088 434.117 249.646 434.117ZM249.395 428.445C248.957 428.445 248.605 428.584 248.34 428.861C248.078 429.139 247.922 429.543 247.871 430.074H250.812C250.805 429.539 250.676 429.135 250.426 428.861C250.176 428.584 249.832 428.445 249.395 428.445ZM255.916 434.117C255.107 434.117 254.477 433.824 254.023 433.238C253.57 432.652 253.344 431.83 253.344 430.771C253.344 429.709 253.572 428.883 254.029 428.293C254.49 427.699 255.127 427.402 255.939 427.402C256.791 427.402 257.439 427.717 257.885 428.346H257.955C257.889 427.881 257.855 427.514 257.855 427.244V424.883H259.238V434H258.16L257.92 433.15H257.855C257.414 433.795 256.768 434.117 255.916 434.117ZM256.285 433.004C256.852 433.004 257.264 432.846 257.521 432.529C257.779 432.209 257.912 431.691 257.92 430.977V430.783C257.92 429.967 257.787 429.387 257.521 429.043C257.256 428.699 256.84 428.527 256.273 428.527C255.789 428.527 255.416 428.725 255.154 429.119C254.893 429.51 254.762 430.068 254.762 430.795C254.762 431.514 254.889 432.062 255.143 432.441C255.396 432.816 255.777 433.004 256.285 433.004ZM264.518 427.402C265.326 427.402 265.955 427.695 266.404 428.281C266.857 428.867 267.084 429.689 267.084 430.748C267.084 431.811 266.855 432.639 266.398 433.232C265.941 433.822 265.307 434.117 264.494 434.117C263.674 434.117 263.037 433.822 262.584 433.232H262.49L262.238 434H261.207V424.883H262.584V427.051C262.584 427.211 262.576 427.449 262.561 427.766C262.545 428.082 262.533 428.283 262.525 428.369H262.584C263.021 427.725 263.666 427.402 264.518 427.402ZM264.16 428.527C263.605 428.527 263.205 428.691 262.959 429.02C262.717 429.344 262.592 429.889 262.584 430.654V430.748C262.584 431.537 262.709 432.109 262.959 432.465C263.209 432.816 263.617 432.992 264.184 432.992C264.672 432.992 265.041 432.799 265.291 432.412C265.545 432.025 265.672 431.467 265.672 430.736C265.672 429.264 265.168 428.527 264.16 428.527ZM272.738 434L272.463 433.098H272.416C272.104 433.492 271.789 433.762 271.473 433.906C271.156 434.047 270.75 434.117 270.254 434.117C269.617 434.117 269.119 433.945 268.76 433.602C268.404 433.258 268.227 432.771 268.227 432.143C268.227 431.475 268.475 430.971 268.971 430.631C269.467 430.291 270.223 430.105 271.238 430.074L272.357 430.039V429.693C272.357 429.279 272.26 428.971 272.064 428.768C271.873 428.561 271.574 428.457 271.168 428.457C270.836 428.457 270.518 428.506 270.213 428.604C269.908 428.701 269.615 428.816 269.334 428.949L268.889 427.965C269.24 427.781 269.625 427.643 270.043 427.549C270.461 427.451 270.855 427.402 271.227 427.402C272.051 427.402 272.672 427.582 273.09 427.941C273.512 428.301 273.723 428.865 273.723 429.635V434H272.738ZM270.688 433.062C271.188 433.062 271.588 432.924 271.889 432.646C272.193 432.365 272.346 431.973 272.346 431.469V430.906L271.514 430.941C270.865 430.965 270.393 431.074 270.096 431.27C269.803 431.461 269.656 431.756 269.656 432.154C269.656 432.443 269.742 432.668 269.914 432.828C270.086 432.984 270.344 433.062 270.688 433.062ZM278.258 434.117C277.277 434.117 276.531 433.832 276.02 433.262C275.512 432.688 275.258 431.865 275.258 430.795C275.258 429.705 275.523 428.867 276.055 428.281C276.59 427.695 277.361 427.402 278.369 427.402C279.053 427.402 279.668 427.529 280.215 427.783L279.799 428.891C279.217 428.664 278.736 428.551 278.357 428.551C277.236 428.551 276.676 429.295 276.676 430.783C276.676 431.51 276.814 432.057 277.092 432.424C277.373 432.787 277.783 432.969 278.322 432.969C278.936 432.969 279.516 432.816 280.062 432.512V433.713C279.816 433.857 279.553 433.961 279.271 434.023C278.994 434.086 278.656 434.117 278.258 434.117ZM282.916 430.578L283.695 429.605L285.652 427.52H287.24L284.633 430.303L287.404 434H285.787L283.707 431.158L282.951 431.779V434H281.586V424.883H282.951V429.33L282.881 430.578H282.916Z" fill="black"/>
<rect x="249" width="107" height="62" fill="#B1D5FB"/>
<path d="M287.887 32V23.4336H289.287V30.7988H292.914V32H287.887ZM299.992 28.748C299.992 29.8066 299.721 30.6328 299.178 31.2266C298.635 31.8203 297.879 32.1172 296.91 32.1172C296.305 32.1172 295.77 31.9805 295.305 31.707C294.84 31.4336 294.482 31.041 294.232 30.5293C293.982 30.0176 293.857 29.4238 293.857 28.748C293.857 27.6973 294.127 26.877 294.666 26.2871C295.205 25.6973 295.965 25.4023 296.945 25.4023C297.883 25.4023 298.625 25.7051 299.172 26.3105C299.719 26.9121 299.992 27.7246 299.992 28.748ZM295.275 28.748C295.275 30.2441 295.828 30.9922 296.934 30.9922C298.027 30.9922 298.574 30.2441 298.574 28.748C298.574 27.2676 298.023 26.5273 296.922 26.5273C296.344 26.5273 295.924 26.7188 295.662 27.1016C295.404 27.4844 295.275 28.0332 295.275 28.748ZM307.053 25.5195V26.2754L305.945 26.4805C306.047 26.6172 306.131 26.7852 306.197 26.9844C306.264 27.1836 306.297 27.3945 306.297 27.6172C306.297 28.2852 306.066 28.8105 305.605 29.1934C305.145 29.5762 304.51 29.7676 303.701 29.7676C303.494 29.7676 303.307 29.752 303.139 29.7207C302.842 29.9043 302.693 30.1191 302.693 30.3652C302.693 30.5137 302.762 30.625 302.898 30.6992C303.039 30.7734 303.295 30.8105 303.666 30.8105H304.797C305.512 30.8105 306.055 30.9629 306.426 31.2676C306.797 31.5723 306.982 32.0117 306.982 32.5859C306.982 33.3203 306.68 33.8867 306.074 34.2852C305.469 34.6836 304.594 34.8828 303.449 34.8828C302.566 34.8828 301.893 34.7266 301.428 34.4141C300.963 34.1016 300.73 33.6562 300.73 33.0781C300.73 32.6797 300.855 32.3438 301.105 32.0703C301.359 31.8008 301.713 31.6133 302.166 31.5078C301.982 31.4297 301.83 31.3047 301.709 31.1328C301.592 30.957 301.533 30.7734 301.533 30.582C301.533 30.3398 301.602 30.1348 301.738 29.9668C301.875 29.7988 302.078 29.6328 302.348 29.4688C302.012 29.3242 301.738 29.0898 301.527 28.7656C301.32 28.4375 301.217 28.0547 301.217 27.6172C301.217 26.9141 301.438 26.3691 301.879 25.9824C302.324 25.5957 302.957 25.4023 303.777 25.4023C303.961 25.4023 304.152 25.416 304.352 25.4434C304.555 25.4668 304.707 25.4922 304.809 25.5195H307.053ZM301.961 33.0078C301.961 33.3047 302.094 33.5332 302.359 33.6934C302.629 33.8535 303.006 33.9336 303.49 33.9336C304.24 33.9336 304.799 33.8262 305.166 33.6113C305.533 33.3965 305.717 33.1113 305.717 32.7559C305.717 32.4746 305.615 32.2734 305.412 32.1523C305.213 32.0352 304.84 31.9766 304.293 31.9766H303.25C302.855 31.9766 302.541 32.0684 302.307 32.252C302.076 32.4395 301.961 32.6914 301.961 33.0078ZM302.553 27.6172C302.553 28.0234 302.656 28.3359 302.863 28.5547C303.074 28.7734 303.375 28.8828 303.766 28.8828C304.562 28.8828 304.961 28.457 304.961 27.6055C304.961 27.1836 304.861 26.8594 304.662 26.6328C304.467 26.4023 304.168 26.2871 303.766 26.2871C303.367 26.2871 303.064 26.4004 302.857 26.627C302.654 26.8535 302.553 27.1836 302.553 27.6172ZM309.637 32H308.26V25.5195H309.637V32ZM308.178 23.8027C308.178 23.5566 308.244 23.3672 308.377 23.2344C308.514 23.1016 308.707 23.0352 308.957 23.0352C309.199 23.0352 309.387 23.1016 309.52 23.2344C309.656 23.3672 309.725 23.5566 309.725 23.8027C309.725 24.0371 309.656 24.2227 309.52 24.3594C309.387 24.4922 309.199 24.5586 308.957 24.5586C308.707 24.5586 308.514 24.4922 308.377 24.3594C308.244 24.2227 308.178 24.0371 308.178 23.8027ZM317.312 32H315.93V28.0156C315.93 27.5156 315.828 27.1426 315.625 26.8965C315.426 26.6504 315.107 26.5273 314.67 26.5273C314.088 26.5273 313.662 26.6992 313.393 27.043C313.123 27.3867 312.988 27.9629 312.988 28.7715V32H311.611V25.5195H312.689L312.883 26.3691H312.953C313.148 26.0605 313.426 25.8223 313.785 25.6543C314.145 25.4863 314.543 25.4023 314.98 25.4023C316.535 25.4023 317.312 26.1934 317.312 27.7754V32Z" fill="black"/>
</svg>
