<svg width="1664" height="841" viewBox="0 0 1664 841" fill="none" xmlns="http://www.w3.org/2000/svg">
<rect width="1664" height="841" fill="white"/>
<rect x="86" y="97" width="526" height="744" fill="url(#paint0_linear)"/>
<rect x="612" y="97" width="526" height="744" fill="url(#paint1_linear)"/>
<rect x="1138" y="97" width="526" height="744" fill="url(#paint2_linear)"/>
<path d="M126.84 53.48C126.84 60.04 130.64 64.48 138.4 64.48C146.12 64.48 149.92 60.08 149.92 53.44V37.32H145.2V53.32C145.2 57.56 142.84 60.32 138.4 60.32C133.92 60.32 131.56 57.56 131.56 53.32V37.32H126.84V53.48ZM153.87 60.24C156.23 62.76 159.79 64.48 164.71 64.48C171.91 64.48 175.03 60.68 175.03 56.24C175.03 50.44 169.79 49.08 165.39 47.96C162.23 47.16 159.51 46.48 159.51 44.4C159.51 42.4 161.27 41.08 164.03 41.08C166.83 41.08 169.67 42.04 171.75 44.12L174.43 40.64C171.95 38.24 168.59 36.92 164.43 36.92C158.59 36.92 154.71 40.32 154.71 44.72C154.71 50.36 159.83 51.64 164.19 52.72C167.43 53.56 170.27 54.28 170.27 56.68C170.27 58.44 168.75 60.32 164.91 60.32C161.19 60.32 158.31 58.6 156.47 56.64L153.87 60.24ZM179.34 64H197.62V59.88H184.02V52.48H197.34V48.36H184.02V41.44H197.62V37.32H179.34V64ZM217.666 64H223.066L216.546 53.52C219.746 53 222.866 50.44 222.866 45.68C222.866 40.76 219.426 37.32 214.146 37.32H202.426V64H207.106V54.04H211.746L217.666 64ZM218.066 45.68C218.066 48.24 216.146 49.92 213.506 49.92H207.106V41.44H213.506C216.146 41.44 218.066 43.12 218.066 45.68ZM235.297 61.68C237.177 63.68 239.617 64.48 242.377 64.48C247.537 64.48 251.377 61.64 251.377 55.56V37.32H246.697V55.48C246.697 58.4 244.897 60.32 242.017 60.32C239.977 60.32 238.537 59.28 237.457 58.12L235.297 61.68ZM255.874 50.68C255.874 58.64 261.514 64.48 269.514 64.48C277.514 64.48 283.154 58.64 283.154 50.68C283.154 42.72 277.514 36.88 269.514 36.88C261.514 36.88 255.874 42.72 255.874 50.68ZM278.354 50.68C278.354 56.16 274.874 60.32 269.514 60.32C264.114 60.32 260.674 56.16 260.674 50.68C260.674 45.16 264.114 41.04 269.514 41.04C274.874 41.04 278.354 45.16 278.354 50.68ZM287.66 53.48C287.66 60.04 291.46 64.48 299.22 64.48C306.94 64.48 310.74 60.08 310.74 53.44V37.32H306.02V53.32C306.02 57.56 303.66 60.32 299.22 60.32C294.74 60.32 292.38 57.56 292.38 53.32V37.32H287.66V53.48ZM331.65 64H337.05L330.53 53.52C333.73 53 336.85 50.44 336.85 45.68C336.85 40.76 333.41 37.32 328.13 37.32H316.41V64H321.09V54.04H325.73L331.65 64ZM332.05 45.68C332.05 48.24 330.13 49.92 327.49 49.92H321.09V41.44H327.49C330.13 41.44 332.05 43.12 332.05 45.68ZM360.128 64H364.648V37.32H359.968V56.24L346.328 37.32H341.528V64H346.208V44.56L360.128 64ZM370.317 64H388.597V59.88H374.997V52.48H388.317V48.36H374.997V41.44H388.597V37.32H370.317V64ZM400.963 64H405.643V52.92L415.963 37.32H410.603L403.323 48.76L395.963 37.32H390.603L400.963 52.92V64ZM452.185 64H456.865V37.32H450.265L442.985 55.28L435.745 37.32H429.145V64H433.825V43.8L441.985 64H443.985L452.185 43.8V64ZM481.423 64H486.543L476.063 37.32H470.223L459.743 64H464.863L466.823 58.88H479.463L481.423 64ZM473.143 41.28L478.143 54.76H468.143L473.143 41.28ZM489.457 64H494.137V54.04H501.177C506.737 54.04 509.897 50.2 509.897 45.68C509.897 41.16 506.777 37.32 501.177 37.32H489.457V64ZM505.097 45.68C505.097 48.24 503.177 49.92 500.537 49.92H494.137V41.44H500.537C503.177 41.44 505.097 43.12 505.097 45.68Z" fill="black"/>
<path d="M169.568 257H173.168V246.344H185.444V243.176H173.168V236.156H185.696V232.988H169.568V257ZM191.084 236.696C192.236 236.696 193.172 235.796 193.172 234.644C193.172 233.492 192.236 232.556 191.084 232.556C189.968 232.556 188.996 233.492 188.996 234.644C188.996 235.796 189.968 236.696 191.084 236.696ZM189.5 257H192.74V239.612H189.5V257ZM209.639 257H212.879V244.796C212.879 241.124 210.971 239.18 207.299 239.18C204.599 239.18 202.295 240.656 201.143 242.06V239.612H197.903V257H201.143V244.58C202.079 243.284 203.915 242.06 205.931 242.06C208.163 242.06 209.639 242.996 209.639 245.876V257ZM230.396 257H233.636V232.988H230.396V242.132C228.992 240.26 226.94 239.18 224.708 239.18C220.172 239.18 216.932 242.744 216.932 248.324C216.932 254.012 220.172 257.432 224.708 257.432C227.012 257.432 229.1 256.244 230.396 254.516V257ZM230.396 252.032C229.496 253.436 227.552 254.552 225.572 254.552C222.332 254.552 220.316 251.924 220.316 248.324C220.316 244.688 222.332 242.06 225.572 242.06C227.552 242.06 229.496 243.212 230.396 244.616V252.032ZM237.312 254.732C239.076 256.532 241.632 257.432 244.548 257.432C249.12 257.432 251.568 255.092 251.568 252.104C251.568 248.108 247.968 247.28 244.944 246.596C242.784 246.092 240.912 245.588 240.912 244.076C240.912 242.672 242.28 241.808 244.476 241.808C246.672 241.808 248.616 242.708 249.624 243.932L251.064 241.664C249.588 240.26 247.428 239.18 244.44 239.18C240.192 239.18 237.816 241.556 237.816 244.328C237.816 248.072 241.272 248.864 244.224 249.548C246.456 250.052 248.436 250.628 248.436 252.356C248.436 253.832 247.14 254.84 244.692 254.84C242.352 254.84 240.048 253.652 238.86 252.356L237.312 254.732ZM275.674 257H278.914V245.264C278.914 240.836 275.71 239.18 271.93 239.18C269.122 239.18 266.746 240.116 264.802 242.024L266.206 244.256C267.754 242.708 269.446 241.952 271.426 241.952C273.91 241.952 275.674 243.248 275.674 245.408V248.288C274.342 246.74 272.326 245.984 269.986 245.984C267.07 245.984 263.938 247.712 263.938 251.672C263.938 255.488 267.106 257.432 269.986 257.432C272.326 257.432 274.306 256.604 275.674 255.092V257ZM275.674 253.184C274.702 254.48 273.01 255.164 271.21 255.164C268.87 255.164 267.214 253.76 267.214 251.708C267.214 249.656 268.87 248.252 271.21 248.252C273.01 248.252 274.702 248.936 275.674 250.232V253.184ZM295.842 257H299.082V244.796C299.082 241.124 297.174 239.18 293.502 239.18C290.802 239.18 288.498 240.656 287.346 242.06V239.612H284.106V257H287.346V244.58C288.282 243.284 290.118 242.06 292.134 242.06C294.366 242.06 295.842 242.996 295.842 245.876V257ZM316.599 257H319.839V232.988H316.599V242.132C315.195 240.26 313.143 239.18 310.911 239.18C306.375 239.18 303.135 242.744 303.135 248.324C303.135 254.012 306.375 257.432 310.911 257.432C313.215 257.432 315.303 256.244 316.599 254.516V257ZM316.599 252.032C315.699 253.436 313.755 254.552 311.775 254.552C308.535 254.552 306.519 251.924 306.519 248.324C306.519 244.688 308.535 242.06 311.775 242.06C313.755 242.06 315.699 243.212 316.599 244.616V252.032ZM346.045 257H349.285V244.796C349.285 241.124 347.377 239.18 343.705 239.18C341.005 239.18 338.701 240.656 337.549 242.06V239.612H334.309V257H337.549V244.58C338.485 243.284 340.321 242.06 342.337 242.06C344.569 242.06 346.045 242.996 346.045 245.876V257ZM365.146 257H368.386V245.264C368.386 240.836 365.182 239.18 361.402 239.18C358.594 239.18 356.218 240.116 354.274 242.024L355.678 244.256C357.226 242.708 358.918 241.952 360.898 241.952C363.382 241.952 365.146 243.248 365.146 245.408V248.288C363.814 246.74 361.798 245.984 359.458 245.984C356.542 245.984 353.41 247.712 353.41 251.672C353.41 255.488 356.578 257.432 359.458 257.432C361.798 257.432 363.778 256.604 365.146 255.092V257ZM365.146 253.184C364.174 254.48 362.482 255.164 360.682 255.164C358.342 255.164 356.686 253.76 356.686 251.708C356.686 249.656 358.342 248.252 360.682 248.252C362.482 248.252 364.174 248.936 365.146 250.232V253.184ZM378.186 257H381.678L388.842 239.612H385.35L379.914 253.256L374.478 239.612H371.022L378.186 257ZM393.057 236.696C394.209 236.696 395.145 235.796 395.145 234.644C395.145 233.492 394.209 232.556 393.057 232.556C391.941 232.556 390.969 233.492 390.969 234.644C390.969 235.796 391.941 236.696 393.057 236.696ZM391.473 257H394.713V239.612H391.473V257ZM399.731 261.464C401.819 263.444 403.943 264.056 406.859 264.056C411.143 264.056 415.499 262.292 415.499 256.316V239.612H412.259V242.132C410.855 240.26 408.803 239.18 406.535 239.18C402.035 239.18 398.795 242.564 398.795 248.144C398.795 253.832 402.035 257.144 406.535 257.144C408.875 257.144 410.927 255.884 412.259 254.156V256.424C412.259 260.096 409.559 261.392 406.859 261.392C404.483 261.392 402.719 260.744 401.279 259.088L399.731 261.464ZM412.259 251.672C411.359 253.076 409.379 254.264 407.435 254.264C404.195 254.264 402.179 251.744 402.179 248.144C402.179 244.58 404.195 242.06 407.435 242.06C409.379 242.06 411.359 243.212 412.259 244.616V251.672ZM431.381 257H434.621V245.264C434.621 240.836 431.417 239.18 427.637 239.18C424.829 239.18 422.453 240.116 420.509 242.024L421.913 244.256C423.461 242.708 425.153 241.952 427.133 241.952C429.617 241.952 431.381 243.248 431.381 245.408V248.288C430.049 246.74 428.033 245.984 425.693 245.984C422.777 245.984 419.645 247.712 419.645 251.672C419.645 255.488 422.813 257.432 425.693 257.432C428.033 257.432 430.013 256.604 431.381 255.092V257ZM431.381 253.184C430.409 254.48 428.717 255.164 426.917 255.164C424.577 255.164 422.921 253.76 422.921 251.708C422.921 249.656 424.577 248.252 426.917 248.252C428.717 248.252 430.409 248.936 431.381 250.232V253.184ZM444.601 257.432C446.293 257.432 447.301 256.964 447.985 256.316L447.157 253.868C446.833 254.228 446.149 254.552 445.393 254.552C444.277 254.552 443.701 253.652 443.701 252.428V242.456H447.229V239.612H443.701V234.86H440.461V239.612H437.581V242.456H440.461V253.148C440.461 255.884 441.865 257.432 444.601 257.432ZM449.737 248.288C449.737 253.76 453.553 257.432 458.737 257.432C461.545 257.432 463.993 256.532 465.721 254.84L464.209 252.716C462.913 254.048 460.897 254.768 459.061 254.768C455.569 254.768 453.409 252.32 453.157 249.368H466.909V248.576C466.909 243.248 463.669 239.18 458.449 239.18C453.373 239.18 449.737 243.248 449.737 248.288ZM458.449 241.844C462.121 241.844 463.669 244.724 463.741 247.028H453.121C453.301 244.652 454.957 241.844 458.449 241.844ZM469.449 254.732C471.213 256.532 473.769 257.432 476.685 257.432C481.257 257.432 483.705 255.092 483.705 252.104C483.705 248.108 480.105 247.28 477.081 246.596C474.921 246.092 473.049 245.588 473.049 244.076C473.049 242.672 474.417 241.808 476.613 241.808C478.809 241.808 480.753 242.708 481.761 243.932L483.201 241.664C481.725 240.26 479.565 239.18 476.577 239.18C472.329 239.18 469.953 241.556 469.953 244.328C469.953 248.072 473.409 248.864 476.361 249.548C478.593 250.052 480.573 250.628 480.573 252.356C480.573 253.832 479.277 254.84 476.829 254.84C474.489 254.84 472.185 253.652 470.997 252.356L469.449 254.732ZM501.87 257.432C503.562 257.432 504.57 256.964 505.254 256.316L504.426 253.868C504.102 254.228 503.418 254.552 502.662 254.552C501.546 254.552 500.97 253.652 500.97 252.428V242.456H504.498V239.612H500.97V234.86H497.73V239.612H494.85V242.456H497.73V253.148C497.73 255.884 499.134 257.432 501.87 257.432ZM515.79 257.432C521.226 257.432 524.574 253.328 524.574 248.288C524.574 243.284 521.226 239.18 515.79 239.18C510.39 239.18 507.006 243.284 507.006 248.288C507.006 253.328 510.39 257.432 515.79 257.432ZM515.79 254.552C512.334 254.552 510.39 251.6 510.39 248.288C510.39 245.012 512.334 242.06 515.79 242.06C519.282 242.06 521.19 245.012 521.19 248.288C521.19 251.6 519.282 254.552 515.79 254.552ZM182.651 297.432C184.343 297.432 185.351 296.964 186.035 296.316L185.207 293.868C184.883 294.228 184.199 294.552 183.443 294.552C182.327 294.552 181.751 293.652 181.751 292.428V282.456H185.279V279.612H181.751V274.86H178.511V279.612H175.631V282.456H178.511V293.148C178.511 295.884 179.915 297.432 182.651 297.432ZM200.603 297H203.843V284.724C203.843 281.052 201.971 279.18 198.263 279.18C195.599 279.18 193.259 280.656 192.107 282.06V272.988H188.867V297H192.107V284.58C193.043 283.284 194.879 282.06 196.895 282.06C199.127 282.06 200.603 282.924 200.603 285.804V297ZM207.932 288.288C207.932 293.76 211.748 297.432 216.932 297.432C219.74 297.432 222.188 296.532 223.916 294.84L222.404 292.716C221.108 294.048 219.092 294.768 217.256 294.768C213.764 294.768 211.604 292.32 211.352 289.368H225.104V288.576C225.104 283.248 221.864 279.18 216.644 279.18C211.568 279.18 207.932 283.248 207.932 288.288ZM216.644 281.844C220.316 281.844 221.864 284.724 221.936 287.028H211.316C211.496 284.652 213.152 281.844 216.644 281.844ZM236.926 294.732C238.69 296.532 241.246 297.432 244.162 297.432C248.734 297.432 251.182 295.092 251.182 292.104C251.182 288.108 247.582 287.28 244.558 286.596C242.398 286.092 240.526 285.588 240.526 284.076C240.526 282.672 241.894 281.808 244.09 281.808C246.286 281.808 248.23 282.708 249.238 283.932L250.678 281.664C249.202 280.26 247.042 279.18 244.054 279.18C239.806 279.18 237.43 281.556 237.43 284.328C237.43 288.072 240.886 288.864 243.838 289.548C246.07 290.052 248.05 290.628 248.05 292.356C248.05 293.832 246.754 294.84 244.306 294.84C241.966 294.84 239.662 293.652 238.474 292.356L236.926 294.732ZM254.918 300.888L254.414 303.804C254.918 303.948 255.89 304.056 256.43 304.056C258.95 304.02 260.858 303.048 261.974 300.312L270.542 279.612H267.05L261.614 293.256L256.178 279.612H252.722L259.886 297.18L258.878 299.484C258.338 300.78 257.546 301.176 256.358 301.176C255.926 301.176 255.314 301.068 254.918 300.888ZM271.66 294.732C273.424 296.532 275.98 297.432 278.896 297.432C283.468 297.432 285.916 295.092 285.916 292.104C285.916 288.108 282.316 287.28 279.292 286.596C277.132 286.092 275.26 285.588 275.26 284.076C275.26 282.672 276.628 281.808 278.824 281.808C281.02 281.808 282.964 282.708 283.972 283.932L285.412 281.664C283.936 280.26 281.776 279.18 278.788 279.18C274.54 279.18 272.164 281.556 272.164 284.328C272.164 288.072 275.62 288.864 278.572 289.548C280.804 290.052 282.784 290.628 282.784 292.356C282.784 293.832 281.488 294.84 279.04 294.84C276.7 294.84 274.396 293.652 273.208 292.356L271.66 294.732ZM294.8 297.432C296.492 297.432 297.5 296.964 298.184 296.316L297.356 293.868C297.032 294.228 296.348 294.552 295.592 294.552C294.476 294.552 293.9 293.652 293.9 292.428V282.456H297.428V279.612H293.9V274.86H290.66V279.612H287.78V282.456H290.66V293.148C290.66 295.884 292.064 297.432 294.8 297.432ZM299.936 288.288C299.936 293.76 303.752 297.432 308.936 297.432C311.744 297.432 314.192 296.532 315.92 294.84L314.408 292.716C313.112 294.048 311.096 294.768 309.26 294.768C305.768 294.768 303.608 292.32 303.356 289.368H317.108V288.576C317.108 283.248 313.868 279.18 308.648 279.18C303.572 279.18 299.936 283.248 299.936 288.288ZM308.648 281.844C312.32 281.844 313.868 284.724 313.94 287.028H303.32C303.5 284.652 305.156 281.844 308.648 281.844ZM342.292 297H345.532V284.436C345.532 280.944 343.804 279.18 340.6 279.18C338.044 279.18 335.74 280.8 334.732 282.42C334.192 280.548 332.644 279.18 330.016 279.18C327.424 279.18 325.12 280.98 324.4 282.06V279.612H321.16V297H324.4V284.58C325.264 283.32 326.956 282.06 328.648 282.06C330.844 282.06 331.708 283.392 331.708 285.408V297H334.948V284.544C335.776 283.284 337.504 282.06 339.268 282.06C341.392 282.06 342.292 283.392 342.292 285.408V297ZM367.677 297.432C373.113 297.432 376.461 293.328 376.461 288.288C376.461 283.284 373.113 279.18 367.677 279.18C362.277 279.18 358.893 283.284 358.893 288.288C358.893 293.328 362.277 297.432 367.677 297.432ZM367.677 294.552C364.221 294.552 362.277 291.6 362.277 288.288C362.277 285.012 364.221 282.06 367.677 282.06C371.169 282.06 373.077 285.012 373.077 288.288C373.077 291.6 371.169 294.552 367.677 294.552ZM381.366 297H384.606V282.456H388.134V279.612H384.606V278.46C384.606 276.372 385.578 275.292 387.198 275.292C387.774 275.292 388.314 275.436 388.746 275.688L389.502 273.276C388.746 272.844 387.774 272.628 386.658 272.628C383.562 272.628 381.366 274.716 381.366 278.46V279.612H378.486V282.456H381.366V297ZM402.092 276.696C403.244 276.696 404.18 275.796 404.18 274.644C404.18 273.492 403.244 272.556 402.092 272.556C400.976 272.556 400.004 273.492 400.004 274.644C400.004 275.796 400.976 276.696 402.092 276.696ZM400.508 297H403.748V279.612H400.508V297ZM420.646 297H423.886V284.796C423.886 281.124 421.978 279.18 418.306 279.18C415.606 279.18 413.302 280.656 412.15 282.06V279.612H408.91V297H412.15V284.58C413.086 283.284 414.922 282.06 416.938 282.06C419.17 282.06 420.646 282.996 420.646 285.876V297ZM433.808 297.432C435.5 297.432 436.508 296.964 437.192 296.316L436.364 293.868C436.04 294.228 435.356 294.552 434.6 294.552C433.484 294.552 432.908 293.652 432.908 292.428V282.456H436.436V279.612H432.908V274.86H429.668V279.612H426.788V282.456H429.668V293.148C429.668 295.884 431.072 297.432 433.808 297.432ZM438.944 288.288C438.944 293.76 442.76 297.432 447.944 297.432C450.752 297.432 453.2 296.532 454.928 294.84L453.416 292.716C452.12 294.048 450.104 294.768 448.268 294.768C444.776 294.768 442.616 292.32 442.364 289.368H456.116V288.576C456.116 283.248 452.876 279.18 447.656 279.18C442.58 279.18 438.944 283.248 438.944 288.288ZM447.656 281.844C451.328 281.844 452.876 284.724 452.948 287.028H442.328C442.508 284.652 444.164 281.844 447.656 281.844ZM460.168 297H463.408V284.904C464.164 283.608 466.36 282.384 467.98 282.384C468.412 282.384 468.772 282.42 469.096 282.492V279.216C466.792 279.216 464.74 280.548 463.408 282.276V279.612H460.168V297ZM471.252 288.288C471.252 293.76 475.068 297.432 480.252 297.432C483.06 297.432 485.508 296.532 487.236 294.84L485.724 292.716C484.428 294.048 482.412 294.768 480.576 294.768C477.084 294.768 474.924 292.32 474.672 289.368H488.424V288.576C488.424 283.248 485.184 279.18 479.964 279.18C474.888 279.18 471.252 283.248 471.252 288.288ZM479.964 281.844C483.636 281.844 485.184 284.724 485.256 287.028H474.636C474.816 284.652 476.472 281.844 479.964 281.844ZM490.965 294.732C492.729 296.532 495.285 297.432 498.201 297.432C502.773 297.432 505.221 295.092 505.221 292.104C505.221 288.108 501.621 287.28 498.597 286.596C496.437 286.092 494.565 285.588 494.565 284.076C494.565 282.672 495.933 281.808 498.129 281.808C500.325 281.808 502.269 282.708 503.277 283.932L504.717 281.664C503.241 280.26 501.081 279.18 498.093 279.18C493.845 279.18 491.469 281.556 491.469 284.328C491.469 288.072 494.925 288.864 497.877 289.548C500.109 290.052 502.089 290.628 502.089 292.356C502.089 293.832 500.793 294.84 498.345 294.84C496.005 294.84 493.701 293.652 492.513 292.356L490.965 294.732ZM514.105 297.432C515.797 297.432 516.805 296.964 517.489 296.316L516.661 293.868C516.337 294.228 515.653 294.552 514.897 294.552C513.781 294.552 513.205 293.652 513.205 292.428V282.456H516.733V279.612H513.205V274.86H509.965V279.612H507.085V282.456H509.965V293.148C509.965 295.884 511.369 297.432 514.105 297.432Z" fill="black"/>
<path d="M690.043 253.616C692.095 255.884 695.227 257.432 699.511 257.432C705.991 257.432 708.583 253.94 708.583 250.196C708.583 245.084 704.011 243.86 700.087 242.816C697.099 242.06 694.507 241.376 694.507 239.216C694.507 237.2 696.343 235.832 699.007 235.832C701.599 235.832 704.119 236.696 705.955 238.64L708.043 235.976C705.919 233.816 703.003 232.628 699.295 232.628C694.291 232.628 690.799 235.508 690.799 239.468C690.799 244.364 695.263 245.48 699.115 246.488C702.175 247.28 704.911 248 704.911 250.52C704.911 252.248 703.543 254.228 699.655 254.228C696.307 254.228 693.715 252.644 692.095 250.844L690.043 253.616ZM711.602 248.288C711.602 253.76 715.418 257.432 720.602 257.432C723.41 257.432 725.858 256.532 727.586 254.84L726.074 252.716C724.778 254.048 722.762 254.768 720.926 254.768C717.434 254.768 715.274 252.32 715.022 249.368H728.774V248.576C728.774 243.248 725.534 239.18 720.314 239.18C715.238 239.18 711.602 243.248 711.602 248.288ZM720.314 241.844C723.986 241.844 725.534 244.724 725.606 247.028H714.986C715.166 244.652 716.822 241.844 720.314 241.844ZM743.554 257H746.794V245.264C746.794 240.836 743.59 239.18 739.81 239.18C737.002 239.18 734.626 240.116 732.682 242.024L734.086 244.256C735.634 242.708 737.326 241.952 739.306 241.952C741.79 241.952 743.554 243.248 743.554 245.408V248.288C742.222 246.74 740.206 245.984 737.866 245.984C734.95 245.984 731.818 247.712 731.818 251.672C731.818 255.488 734.986 257.432 737.866 257.432C740.206 257.432 742.186 256.604 743.554 255.092V257ZM743.554 253.184C742.582 254.48 740.89 255.164 739.09 255.164C736.75 255.164 735.094 253.76 735.094 251.708C735.094 249.656 736.75 248.252 739.09 248.252C740.89 248.252 742.582 248.936 743.554 250.232V253.184ZM751.987 257H755.227V244.904C755.983 243.608 758.179 242.384 759.799 242.384C760.231 242.384 760.591 242.42 760.915 242.492V239.216C758.611 239.216 756.559 240.548 755.227 242.276V239.612H751.987V257ZM763.071 248.288C763.071 253.508 766.671 257.432 771.927 257.432C775.203 257.432 777.183 256.064 778.443 254.372L776.283 252.392C775.239 253.832 773.835 254.552 772.071 254.552C768.651 254.552 766.455 251.888 766.455 248.288C766.455 244.688 768.651 242.06 772.071 242.06C773.835 242.06 775.239 242.744 776.283 244.22L778.443 242.24C777.183 240.548 775.203 239.18 771.927 239.18C766.671 239.18 763.071 243.068 763.071 248.288ZM793.746 257H796.986V244.724C796.986 241.052 795.114 239.18 791.406 239.18C788.742 239.18 786.402 240.656 785.25 242.06V232.988H782.01V257H785.25V244.58C786.186 243.284 788.022 242.06 790.038 242.06C792.27 242.06 793.746 242.924 793.746 245.804V257ZM801.075 248.288C801.075 253.76 804.891 257.432 810.075 257.432C812.883 257.432 815.331 256.532 817.059 254.84L815.547 252.716C814.251 254.048 812.235 254.768 810.399 254.768C806.907 254.768 804.747 252.32 804.495 249.368H818.247V248.576C818.247 243.248 815.007 239.18 809.787 239.18C804.711 239.18 801.075 243.248 801.075 248.288ZM809.787 241.844C813.459 241.844 815.007 244.724 815.079 247.028H804.459C804.639 244.652 806.295 241.844 809.787 241.844ZM820.787 254.732C822.551 256.532 825.107 257.432 828.023 257.432C832.595 257.432 835.043 255.092 835.043 252.104C835.043 248.108 831.443 247.28 828.419 246.596C826.259 246.092 824.387 245.588 824.387 244.076C824.387 242.672 825.755 241.808 827.951 241.808C830.147 241.808 832.091 242.708 833.099 243.932L834.539 241.664C833.063 240.26 830.903 239.18 827.915 239.18C823.667 239.18 821.291 241.556 821.291 244.328C821.291 248.072 824.747 248.864 827.699 249.548C829.931 250.052 831.911 250.628 831.911 252.356C831.911 253.832 830.615 254.84 828.167 254.84C825.827 254.84 823.523 253.652 822.335 252.356L820.787 254.732ZM849.212 257H852.452V242.456H855.98V239.612H852.452V238.46C852.452 236.372 853.424 235.292 855.044 235.292C855.62 235.292 856.16 235.436 856.592 235.688L857.348 233.276C856.592 232.844 855.62 232.628 854.504 232.628C851.408 232.628 849.212 234.716 849.212 238.46V239.612H846.332V242.456H849.212V257ZM866.776 257.432C872.212 257.432 875.56 253.328 875.56 248.288C875.56 243.284 872.212 239.18 866.776 239.18C861.376 239.18 857.992 243.284 857.992 248.288C857.992 253.328 861.376 257.432 866.776 257.432ZM866.776 254.552C863.32 254.552 861.376 251.6 861.376 248.288C861.376 245.012 863.32 242.06 866.776 242.06C870.268 242.06 872.176 245.012 872.176 248.288C872.176 251.6 870.268 254.552 866.776 254.552ZM879.674 257H882.914V244.904C883.67 243.608 885.866 242.384 887.486 242.384C887.918 242.384 888.278 242.42 888.602 242.492V239.216C886.298 239.216 884.246 240.548 882.914 242.276V239.612H879.674V257ZM905.907 257.432C907.599 257.432 908.607 256.964 909.291 256.316L908.463 253.868C908.139 254.228 907.455 254.552 906.699 254.552C905.583 254.552 905.007 253.652 905.007 252.428V242.456H908.535V239.612H905.007V234.86H901.767V239.612H898.887V242.456H901.767V253.148C901.767 255.884 903.171 257.432 905.907 257.432ZM913.707 236.696C914.859 236.696 915.795 235.796 915.795 234.644C915.795 233.492 914.859 232.556 913.707 232.556C912.591 232.556 911.619 233.492 911.619 234.644C911.619 235.796 912.591 236.696 913.707 236.696ZM912.123 257H915.363V239.612H912.123V257ZM941.658 257H944.898V244.436C944.898 240.944 943.17 239.18 939.966 239.18C937.41 239.18 935.106 240.8 934.098 242.42C933.558 240.548 932.01 239.18 929.382 239.18C926.79 239.18 924.486 240.98 923.766 242.06V239.612H920.526V257H923.766V244.58C924.63 243.32 926.322 242.06 928.014 242.06C930.21 242.06 931.074 243.392 931.074 245.408V257H934.314V244.544C935.142 243.284 936.87 242.06 938.634 242.06C940.758 242.06 941.658 243.392 941.658 245.408V257ZM948.977 248.288C948.977 253.76 952.793 257.432 957.977 257.432C960.785 257.432 963.233 256.532 964.961 254.84L963.449 252.716C962.153 254.048 960.137 254.768 958.301 254.768C954.809 254.768 952.649 252.32 952.397 249.368H966.149V248.576C966.149 243.248 962.909 239.18 957.689 239.18C952.613 239.18 948.977 243.248 948.977 248.288ZM957.689 241.844C961.361 241.844 962.909 244.724 962.981 247.028H952.361C952.541 244.652 954.197 241.844 957.689 241.844ZM968.689 254.732C970.453 256.532 973.009 257.432 975.925 257.432C980.497 257.432 982.945 255.092 982.945 252.104C982.945 248.108 979.345 247.28 976.321 246.596C974.161 246.092 972.289 245.588 972.289 244.076C972.289 242.672 973.657 241.808 975.853 241.808C978.049 241.808 979.993 242.708 981.001 243.932L982.441 241.664C980.965 240.26 978.805 239.18 975.817 239.18C971.569 239.18 969.193 241.556 969.193 244.328C969.193 248.072 972.649 248.864 975.601 249.548C977.833 250.052 979.813 250.628 979.813 252.356C979.813 253.832 978.517 254.84 976.069 254.84C973.729 254.84 971.425 253.652 970.237 252.356L968.689 254.732ZM985.961 248.288C985.961 253.76 989.777 257.432 994.961 257.432C997.769 257.432 1000.22 256.532 1001.95 254.84L1000.43 252.716C999.137 254.048 997.121 254.768 995.285 254.768C991.793 254.768 989.633 252.32 989.381 249.368H1003.13V248.576C1003.13 243.248 999.893 239.18 994.673 239.18C989.597 239.18 985.961 243.248 985.961 248.288ZM994.673 241.844C998.345 241.844 999.893 244.724 999.965 247.028H989.345C989.525 244.652 991.181 241.844 994.673 241.844ZM1007.19 257H1010.43V244.904C1011.18 243.608 1013.38 242.384 1015 242.384C1015.43 242.384 1015.79 242.42 1016.11 242.492V239.216C1013.81 239.216 1011.76 240.548 1010.43 242.276V239.612H1007.19V257ZM1020.93 236.696C1022.09 236.696 1023.02 235.796 1023.02 234.644C1023.02 233.492 1022.09 232.556 1020.93 232.556C1019.82 232.556 1018.85 233.492 1018.85 234.644C1018.85 235.796 1019.82 236.696 1020.93 236.696ZM1019.35 257H1022.59V239.612H1019.35V257ZM1026.67 248.288C1026.67 253.76 1030.49 257.432 1035.67 257.432C1038.48 257.432 1040.93 256.532 1042.66 254.84L1041.14 252.716C1039.85 254.048 1037.83 254.768 1036 254.768C1032.5 254.768 1030.34 252.32 1030.09 249.368H1043.84V248.576C1043.84 243.248 1040.6 239.18 1035.38 239.18C1030.31 239.18 1026.67 243.248 1026.67 248.288ZM1035.38 241.844C1039.06 241.844 1040.6 244.724 1040.68 247.028H1030.06C1030.24 244.652 1031.89 241.844 1035.38 241.844ZM1046.38 254.732C1048.15 256.532 1050.7 257.432 1053.62 257.432C1058.19 257.432 1060.64 255.092 1060.64 252.104C1060.64 248.108 1057.04 247.28 1054.02 246.596C1051.86 246.092 1049.98 245.588 1049.98 244.076C1049.98 242.672 1051.35 241.808 1053.55 241.808C1055.74 241.808 1057.69 242.708 1058.7 243.932L1060.14 241.664C1058.66 240.26 1056.5 239.18 1053.51 239.18C1049.26 239.18 1046.89 241.556 1046.89 244.328C1046.89 248.072 1050.34 248.864 1053.3 249.548C1055.53 250.052 1057.51 250.628 1057.51 252.356C1057.51 253.832 1056.21 254.84 1053.76 254.84C1051.42 254.84 1049.12 253.652 1047.93 252.356L1046.38 254.732ZM707.995 297.432C709.687 297.432 710.695 296.964 711.379 296.316L710.551 293.868C710.227 294.228 709.543 294.552 708.787 294.552C707.671 294.552 707.095 293.652 707.095 292.428V282.456H710.623V279.612H707.095V274.86H703.855V279.612H700.975V282.456H703.855V293.148C703.855 295.884 705.259 297.432 707.995 297.432ZM721.915 297.432C727.351 297.432 730.699 293.328 730.699 288.288C730.699 283.284 727.351 279.18 721.915 279.18C716.515 279.18 713.131 283.284 713.131 288.288C713.131 293.328 716.515 297.432 721.915 297.432ZM721.915 294.552C718.459 294.552 716.515 291.6 716.515 288.288C716.515 285.012 718.459 282.06 721.915 282.06C725.407 282.06 727.315 285.012 727.315 288.288C727.315 291.6 725.407 294.552 721.915 294.552ZM754.822 297H758.062V285.264C758.062 280.836 754.858 279.18 751.078 279.18C748.27 279.18 745.894 280.116 743.95 282.024L745.354 284.256C746.902 282.708 748.594 281.952 750.574 281.952C753.058 281.952 754.822 283.248 754.822 285.408V288.288C753.49 286.74 751.474 285.984 749.134 285.984C746.218 285.984 743.086 287.712 743.086 291.672C743.086 295.488 746.254 297.432 749.134 297.432C751.474 297.432 753.454 296.604 754.822 295.092V297ZM754.822 293.184C753.85 294.48 752.158 295.164 750.358 295.164C748.018 295.164 746.362 293.76 746.362 291.708C746.362 289.656 748.018 288.252 750.358 288.252C752.158 288.252 753.85 288.936 754.822 290.232V293.184ZM766.494 303.624V294.48C767.898 296.388 769.914 297.432 772.182 297.432C776.718 297.432 779.922 293.976 779.922 288.288C779.922 282.6 776.718 279.18 772.182 279.18C769.842 279.18 767.754 280.368 766.494 282.096V279.612H763.254V303.624H766.494ZM776.538 288.288C776.538 291.924 774.558 294.552 771.318 294.552C769.338 294.552 767.358 293.364 766.494 291.996V284.616C767.358 283.212 769.338 282.06 771.318 282.06C774.558 282.06 776.538 284.688 776.538 288.288ZM787.271 303.624V294.48C788.675 296.388 790.691 297.432 792.959 297.432C797.495 297.432 800.699 293.976 800.699 288.288C800.699 282.6 797.495 279.18 792.959 279.18C790.619 279.18 788.531 280.368 787.271 282.096V279.612H784.031V303.624H787.271ZM797.315 288.288C797.315 291.924 795.335 294.552 792.095 294.552C790.115 294.552 788.135 293.364 787.271 291.996V284.616C788.135 283.212 790.115 282.06 792.095 282.06C795.335 282.06 797.315 284.688 797.315 288.288ZM804.809 297H808.049V272.988H804.809V297ZM812.851 300.888L812.347 303.804C812.851 303.948 813.823 304.056 814.363 304.056C816.883 304.02 818.791 303.048 819.907 300.312L828.475 279.612H824.983L819.547 293.256L814.111 279.612H810.655L817.819 297.18L816.811 299.484C816.271 300.78 815.479 301.176 814.291 301.176C813.859 301.176 813.247 301.068 812.851 300.888ZM861.519 297H864.759V284.436C864.759 280.944 863.031 279.18 859.827 279.18C857.271 279.18 854.967 280.8 853.959 282.42C853.419 280.548 851.871 279.18 849.243 279.18C846.651 279.18 844.347 280.98 843.627 282.06V279.612H840.387V297H843.627V284.58C844.491 283.32 846.183 282.06 847.875 282.06C850.071 282.06 850.935 283.392 850.935 285.408V297H854.175V284.544C855.003 283.284 856.731 282.06 858.495 282.06C860.619 282.06 861.519 283.392 861.519 285.408V297ZM877.622 297.432C883.058 297.432 886.406 293.328 886.406 288.288C886.406 283.284 883.058 279.18 877.622 279.18C872.222 279.18 868.838 283.284 868.838 288.288C868.838 293.328 872.222 297.432 877.622 297.432ZM877.622 294.552C874.166 294.552 872.222 291.6 872.222 288.288C872.222 285.012 874.166 282.06 877.622 282.06C881.114 282.06 883.022 285.012 883.022 288.288C883.022 291.6 881.114 294.552 877.622 294.552ZM902.256 297H905.496V284.796C905.496 281.124 903.588 279.18 899.916 279.18C897.216 279.18 894.912 280.656 893.76 282.06V279.612H890.52V297H893.76V284.58C894.696 283.284 896.532 282.06 898.548 282.06C900.78 282.06 902.256 282.996 902.256 285.876V297ZM912.213 276.696C913.365 276.696 914.301 275.796 914.301 274.644C914.301 273.492 913.365 272.556 912.213 272.556C911.097 272.556 910.125 273.492 910.125 274.644C910.125 275.796 911.097 276.696 912.213 276.696ZM910.629 297H913.869V279.612H910.629V297ZM923.819 297.432C925.511 297.432 926.519 296.964 927.203 296.316L926.375 293.868C926.051 294.228 925.367 294.552 924.611 294.552C923.495 294.552 922.919 293.652 922.919 292.428V282.456H926.447V279.612H922.919V274.86H919.679V279.612H916.799V282.456H919.679V293.148C919.679 295.884 921.083 297.432 923.819 297.432ZM937.739 297.432C943.175 297.432 946.523 293.328 946.523 288.288C946.523 283.284 943.175 279.18 937.739 279.18C932.339 279.18 928.955 283.284 928.955 288.288C928.955 293.328 932.339 297.432 937.739 297.432ZM937.739 294.552C934.283 294.552 932.339 291.6 932.339 288.288C932.339 285.012 934.283 282.06 937.739 282.06C941.231 282.06 943.139 285.012 943.139 288.288C943.139 291.6 941.231 294.552 937.739 294.552ZM950.637 297H953.877V284.904C954.633 283.608 956.829 282.384 958.449 282.384C958.881 282.384 959.241 282.42 959.565 282.492V279.216C957.261 279.216 955.209 280.548 953.877 282.276V279.612H950.637V297ZM964.385 276.696C965.537 276.696 966.473 275.796 966.473 274.644C966.473 273.492 965.537 272.556 964.385 272.556C963.269 272.556 962.297 273.492 962.297 274.644C962.297 275.796 963.269 276.696 964.385 276.696ZM962.801 297H966.041V279.612H962.801V297ZM982.939 297H986.179V284.796C986.179 281.124 984.271 279.18 980.599 279.18C977.899 279.18 975.595 280.656 974.443 282.06V279.612H971.203V297H974.443V284.58C975.379 283.284 977.215 282.06 979.231 282.06C981.463 282.06 982.939 282.996 982.939 285.876V297ZM991.169 301.464C993.257 303.444 995.381 304.056 998.297 304.056C1002.58 304.056 1006.94 302.292 1006.94 296.316V279.612H1003.7V282.132C1002.29 280.26 1000.24 279.18 997.973 279.18C993.473 279.18 990.233 282.564 990.233 288.144C990.233 293.832 993.473 297.144 997.973 297.144C1000.31 297.144 1002.36 295.884 1003.7 294.156V296.424C1003.7 300.096 1001 301.392 998.297 301.392C995.921 301.392 994.157 300.744 992.717 299.088L991.169 301.464ZM1003.7 291.672C1002.8 293.076 1000.82 294.264 998.873 294.264C995.633 294.264 993.617 291.744 993.617 288.144C993.617 284.58 995.633 282.06 998.873 282.06C1000.82 282.06 1002.8 283.212 1003.7 284.616V291.672ZM1026.16 297.432C1027.85 297.432 1028.86 296.964 1029.54 296.316L1028.72 293.868C1028.39 294.228 1027.71 294.552 1026.95 294.552C1025.84 294.552 1025.26 293.652 1025.26 292.428V282.456H1028.79V279.612H1025.26V274.86H1022.02V279.612H1019.14V282.456H1022.02V293.148C1022.02 295.884 1023.42 297.432 1026.16 297.432ZM1040.08 297.432C1045.52 297.432 1048.86 293.328 1048.86 288.288C1048.86 283.284 1045.52 279.18 1040.08 279.18C1034.68 279.18 1031.3 283.284 1031.3 288.288C1031.3 293.328 1034.68 297.432 1040.08 297.432ZM1040.08 294.552C1036.62 294.552 1034.68 291.6 1034.68 288.288C1034.68 285.012 1036.62 282.06 1040.08 282.06C1043.57 282.06 1045.48 285.012 1045.48 288.288C1045.48 291.6 1043.57 294.552 1040.08 294.552Z" fill="black"/>
<path d="M1188.11 257H1199.67C1204.1 257 1206.62 254.3 1206.62 250.52C1206.62 247.604 1204.53 245.012 1201.97 244.616C1204.17 244.148 1206.15 242.132 1206.15 239.108C1206.15 235.616 1203.67 232.988 1199.38 232.988H1188.11V257ZM1191.71 243.176V236.156H1198.7C1201.11 236.156 1202.44 237.704 1202.44 239.684C1202.44 241.664 1201.11 243.176 1198.7 243.176H1191.71ZM1191.71 253.832V246.344H1198.88C1201.54 246.344 1202.91 248.072 1202.91 250.052C1202.91 252.392 1201.4 253.832 1198.88 253.832H1191.71ZM1211 257H1214.24V244.904C1214.99 243.608 1217.19 242.384 1218.81 242.384C1219.24 242.384 1219.6 242.42 1219.93 242.492V239.216C1217.62 239.216 1215.57 240.548 1214.24 242.276V239.612H1211V257ZM1230.87 257.432C1236.3 257.432 1239.65 253.328 1239.65 248.288C1239.65 243.284 1236.3 239.18 1230.87 239.18C1225.47 239.18 1222.08 243.284 1222.08 248.288C1222.08 253.328 1225.47 257.432 1230.87 257.432ZM1230.87 254.552C1227.41 254.552 1225.47 251.6 1225.47 248.288C1225.47 245.012 1227.41 242.06 1230.87 242.06C1234.36 242.06 1236.27 245.012 1236.27 248.288C1236.27 251.6 1234.36 254.552 1230.87 254.552ZM1258.85 257H1262.2L1267.67 239.612H1264.28L1260.32 252.86L1255.97 239.612H1253.16L1248.8 252.86L1244.84 239.612H1241.46L1246.93 257H1250.28L1254.56 243.644L1258.85 257ZM1269.04 254.732C1270.8 256.532 1273.36 257.432 1276.28 257.432C1280.85 257.432 1283.3 255.092 1283.3 252.104C1283.3 248.108 1279.7 247.28 1276.67 246.596C1274.51 246.092 1272.64 245.588 1272.64 244.076C1272.64 242.672 1274.01 241.808 1276.2 241.808C1278.4 241.808 1280.34 242.708 1281.35 243.932L1282.79 241.664C1281.32 240.26 1279.16 239.18 1276.17 239.18C1271.92 239.18 1269.54 241.556 1269.54 244.328C1269.54 248.072 1273 248.864 1275.95 249.548C1278.18 250.052 1280.16 250.628 1280.16 252.356C1280.16 253.832 1278.87 254.84 1276.42 254.84C1274.08 254.84 1271.78 253.652 1270.59 252.356L1269.04 254.732ZM1286.31 248.288C1286.31 253.76 1290.13 257.432 1295.31 257.432C1298.12 257.432 1300.57 256.532 1302.3 254.84L1300.78 252.716C1299.49 254.048 1297.47 254.768 1295.64 254.768C1292.14 254.768 1289.98 252.32 1289.73 249.368H1303.48V248.576C1303.48 243.248 1300.24 239.18 1295.02 239.18C1289.95 239.18 1286.31 243.248 1286.31 248.288ZM1295.02 241.844C1298.7 241.844 1300.24 244.724 1300.32 247.028H1289.7C1289.88 244.652 1291.53 241.844 1295.02 241.844ZM1306.03 254.732C1307.79 256.532 1310.35 257.432 1313.26 257.432C1317.83 257.432 1320.28 255.092 1320.28 252.104C1320.28 248.108 1316.68 247.28 1313.66 246.596C1311.5 246.092 1309.63 245.588 1309.63 244.076C1309.63 242.672 1310.99 241.808 1313.19 241.808C1315.39 241.808 1317.33 242.708 1318.34 243.932L1319.78 241.664C1318.3 240.26 1316.14 239.18 1313.15 239.18C1308.91 239.18 1306.53 241.556 1306.53 244.328C1306.53 248.072 1309.99 248.864 1312.94 249.548C1315.17 250.052 1317.15 250.628 1317.15 252.356C1317.15 253.832 1315.85 254.84 1313.41 254.84C1311.07 254.84 1308.76 253.652 1307.57 252.356L1306.03 254.732ZM1341.36 257.432C1346.8 257.432 1350.15 253.328 1350.15 248.288C1350.15 243.284 1346.8 239.18 1341.36 239.18C1335.96 239.18 1332.58 243.284 1332.58 248.288C1332.58 253.328 1335.96 257.432 1341.36 257.432ZM1341.36 254.552C1337.91 254.552 1335.96 251.6 1335.96 248.288C1335.96 245.012 1337.91 242.06 1341.36 242.06C1344.85 242.06 1346.76 245.012 1346.76 248.288C1346.76 251.6 1344.85 254.552 1341.36 254.552ZM1357.5 263.624V254.48C1358.9 256.388 1360.92 257.432 1363.19 257.432C1367.72 257.432 1370.93 253.976 1370.93 248.288C1370.93 242.6 1367.72 239.18 1363.19 239.18C1360.85 239.18 1358.76 240.368 1357.5 242.096V239.612H1354.26V263.624H1357.5ZM1367.54 248.288C1367.54 251.924 1365.56 254.552 1362.32 254.552C1360.34 254.552 1358.36 253.364 1357.5 251.996V244.616C1358.36 243.212 1360.34 242.06 1362.32 242.06C1365.56 242.06 1367.54 244.688 1367.54 248.288ZM1379.83 257.432C1381.52 257.432 1382.53 256.964 1383.21 256.316L1382.38 253.868C1382.06 254.228 1381.37 254.552 1380.62 254.552C1379.5 254.552 1378.93 253.652 1378.93 252.428V242.456H1382.45V239.612H1378.93V234.86H1375.69V239.612H1372.81V242.456H1375.69V253.148C1375.69 255.884 1377.09 257.432 1379.83 257.432ZM1387.63 236.696C1388.78 236.696 1389.71 235.796 1389.71 234.644C1389.71 233.492 1388.78 232.556 1387.63 232.556C1386.51 232.556 1385.54 233.492 1385.54 234.644C1385.54 235.796 1386.51 236.696 1387.63 236.696ZM1386.04 257H1389.28V239.612H1386.04V257ZM1402.15 257.432C1407.58 257.432 1410.93 253.328 1410.93 248.288C1410.93 243.284 1407.58 239.18 1402.15 239.18C1396.75 239.18 1393.36 243.284 1393.36 248.288C1393.36 253.328 1396.75 257.432 1402.15 257.432ZM1402.15 254.552C1398.69 254.552 1396.75 251.6 1396.75 248.288C1396.75 245.012 1398.69 242.06 1402.15 242.06C1405.64 242.06 1407.55 245.012 1407.55 248.288C1407.55 251.6 1405.64 254.552 1402.15 254.552ZM1426.78 257H1430.02V244.796C1430.02 241.124 1428.11 239.18 1424.44 239.18C1421.74 239.18 1419.44 240.656 1418.29 242.06V239.612H1415.05V257H1418.29V244.58C1419.22 243.284 1421.06 242.06 1423.07 242.06C1425.31 242.06 1426.78 242.996 1426.78 245.876V257ZM1433.64 254.732C1435.41 256.532 1437.96 257.432 1440.88 257.432C1445.45 257.432 1447.9 255.092 1447.9 252.104C1447.9 248.108 1444.3 247.28 1441.27 246.596C1439.11 246.092 1437.24 245.588 1437.24 244.076C1437.24 242.672 1438.61 241.808 1440.81 241.808C1443 241.808 1444.95 242.708 1445.95 243.932L1447.39 241.664C1445.92 240.26 1443.76 239.18 1440.77 239.18C1436.52 239.18 1434.15 241.556 1434.15 244.328C1434.15 248.072 1437.6 248.864 1440.55 249.548C1442.79 250.052 1444.77 250.628 1444.77 252.356C1444.77 253.832 1443.47 254.84 1441.02 254.84C1438.68 254.84 1436.38 253.652 1435.19 252.356L1433.64 254.732ZM1468.98 257.432C1474.42 257.432 1477.76 253.328 1477.76 248.288C1477.76 243.284 1474.42 239.18 1468.98 239.18C1463.58 239.18 1460.2 243.284 1460.2 248.288C1460.2 253.328 1463.58 257.432 1468.98 257.432ZM1468.98 254.552C1465.52 254.552 1463.58 251.6 1463.58 248.288C1463.58 245.012 1465.52 242.06 1468.98 242.06C1472.47 242.06 1474.38 245.012 1474.38 248.288C1474.38 251.6 1472.47 254.552 1468.98 254.552ZM1482.67 257H1485.91V242.456H1489.44V239.612H1485.91V238.46C1485.91 236.372 1486.88 235.292 1488.5 235.292C1489.08 235.292 1489.62 235.436 1490.05 235.688L1490.81 233.276C1490.05 232.844 1489.08 232.628 1487.96 232.628C1484.87 232.628 1482.67 234.716 1482.67 238.46V239.612H1479.79V242.456H1482.67V257ZM1522.94 257H1526.18V244.436C1526.18 240.944 1524.45 239.18 1521.25 239.18C1518.69 239.18 1516.39 240.8 1515.38 242.42C1514.84 240.548 1513.29 239.18 1510.67 239.18C1508.07 239.18 1505.77 240.98 1505.05 242.06V239.612H1501.81V257H1505.05V244.58C1505.91 243.32 1507.61 242.06 1509.3 242.06C1511.49 242.06 1512.36 243.392 1512.36 245.408V257H1515.6V244.544C1516.43 243.284 1518.15 242.06 1519.92 242.06C1522.04 242.06 1522.94 243.392 1522.94 245.408V257ZM1539.05 257.432C1544.48 257.432 1547.83 253.328 1547.83 248.288C1547.83 243.284 1544.48 239.18 1539.05 239.18C1533.65 239.18 1530.26 243.284 1530.26 248.288C1530.26 253.328 1533.65 257.432 1539.05 257.432ZM1539.05 254.552C1535.59 254.552 1533.65 251.6 1533.65 248.288C1533.65 245.012 1535.59 242.06 1539.05 242.06C1542.54 242.06 1544.45 245.012 1544.45 248.288C1544.45 251.6 1542.54 254.552 1539.05 254.552ZM1564.33 257H1567.57V232.988H1564.33V242.132C1562.92 240.26 1560.87 239.18 1558.64 239.18C1554.1 239.18 1550.86 242.744 1550.86 248.324C1550.86 254.012 1554.1 257.432 1558.64 257.432C1560.94 257.432 1563.03 256.244 1564.33 254.516V257ZM1564.33 252.032C1563.43 253.436 1561.48 254.552 1559.5 254.552C1556.26 254.552 1554.25 251.924 1554.25 248.324C1554.25 244.688 1556.26 242.06 1559.5 242.06C1561.48 242.06 1563.43 243.212 1564.33 244.616V252.032ZM1571.68 248.288C1571.68 253.76 1575.49 257.432 1580.68 257.432C1583.48 257.432 1585.93 256.532 1587.66 254.84L1586.15 252.716C1584.85 254.048 1582.84 254.768 1581 254.768C1577.51 254.768 1575.35 252.32 1575.1 249.368H1588.85V248.576C1588.85 243.248 1585.61 239.18 1580.39 239.18C1575.31 239.18 1571.68 243.248 1571.68 248.288ZM1580.39 241.844C1584.06 241.844 1585.61 244.724 1585.68 247.028H1575.06C1575.24 244.652 1576.9 241.844 1580.39 241.844ZM1592.9 257H1596.14V232.988H1592.9V257ZM1599.79 254.732C1601.55 256.532 1604.11 257.432 1607.03 257.432C1611.6 257.432 1614.05 255.092 1614.05 252.104C1614.05 248.108 1610.45 247.28 1607.42 246.596C1605.26 246.092 1603.39 245.588 1603.39 244.076C1603.39 242.672 1604.76 241.808 1606.95 241.808C1609.15 241.808 1611.09 242.708 1612.1 243.932L1613.54 241.664C1612.07 240.26 1609.91 239.18 1606.92 239.18C1602.67 239.18 1600.29 241.556 1600.29 244.328C1600.29 248.072 1603.75 248.864 1606.7 249.548C1608.93 250.052 1610.91 250.628 1610.91 252.356C1610.91 253.832 1609.62 254.84 1607.17 254.84C1604.83 254.84 1602.53 253.652 1601.34 252.356L1599.79 254.732ZM1202.3 297.432C1204 297.432 1205 296.964 1205.69 296.316L1204.86 293.868C1204.54 294.228 1203.85 294.552 1203.1 294.552C1201.98 294.552 1201.4 293.652 1201.4 292.428V282.456H1204.93V279.612H1201.4V274.86H1198.16V279.612H1195.28V282.456H1198.16V293.148C1198.16 295.884 1199.57 297.432 1202.3 297.432ZM1216.22 297.432C1221.66 297.432 1225.01 293.328 1225.01 288.288C1225.01 283.284 1221.66 279.18 1216.22 279.18C1210.82 279.18 1207.44 283.284 1207.44 288.288C1207.44 293.328 1210.82 297.432 1216.22 297.432ZM1216.22 294.552C1212.77 294.552 1210.82 291.6 1210.82 288.288C1210.82 285.012 1212.77 282.06 1216.22 282.06C1219.72 282.06 1221.62 285.012 1221.62 288.288C1221.62 291.6 1219.72 294.552 1216.22 294.552ZM1249.13 297H1252.37V285.264C1252.37 280.836 1249.17 279.18 1245.39 279.18C1242.58 279.18 1240.2 280.116 1238.26 282.024L1239.66 284.256C1241.21 282.708 1242.9 281.952 1244.88 281.952C1247.37 281.952 1249.13 283.248 1249.13 285.408V288.288C1247.8 286.74 1245.78 285.984 1243.44 285.984C1240.53 285.984 1237.39 287.712 1237.39 291.672C1237.39 295.488 1240.56 297.432 1243.44 297.432C1245.78 297.432 1247.76 296.604 1249.13 295.092V297ZM1249.13 293.184C1248.16 294.48 1246.47 295.164 1244.67 295.164C1242.33 295.164 1240.67 293.76 1240.67 291.708C1240.67 289.656 1242.33 288.252 1244.67 288.252C1246.47 288.252 1248.16 288.936 1249.13 290.232V293.184ZM1260.8 303.624V294.48C1262.21 296.388 1264.22 297.432 1266.49 297.432C1271.03 297.432 1274.23 293.976 1274.23 288.288C1274.23 282.6 1271.03 279.18 1266.49 279.18C1264.15 279.18 1262.06 280.368 1260.8 282.096V279.612H1257.56V303.624H1260.8ZM1270.85 288.288C1270.85 291.924 1268.87 294.552 1265.63 294.552C1263.65 294.552 1261.67 293.364 1260.8 291.996V284.616C1261.67 283.212 1263.65 282.06 1265.63 282.06C1268.87 282.06 1270.85 284.688 1270.85 288.288ZM1281.58 303.624V294.48C1282.98 296.388 1285 297.432 1287.27 297.432C1291.8 297.432 1295.01 293.976 1295.01 288.288C1295.01 282.6 1291.8 279.18 1287.27 279.18C1284.93 279.18 1282.84 280.368 1281.58 282.096V279.612H1278.34V303.624H1281.58ZM1291.62 288.288C1291.62 291.924 1289.64 294.552 1286.4 294.552C1284.42 294.552 1282.44 293.364 1281.58 291.996V284.616C1282.44 283.212 1284.42 282.06 1286.4 282.06C1289.64 282.06 1291.62 284.688 1291.62 288.288ZM1299.12 297H1302.36V272.988H1299.12V297ZM1307.16 300.888L1306.66 303.804C1307.16 303.948 1308.13 304.056 1308.67 304.056C1311.19 304.02 1313.1 303.048 1314.22 300.312L1322.78 279.612H1319.29L1313.86 293.256L1308.42 279.612H1304.96L1312.13 297.18L1311.12 299.484C1310.58 300.78 1309.79 301.176 1308.6 301.176C1308.17 301.176 1307.56 301.068 1307.16 300.888ZM1345.42 297H1348.66V285.264C1348.66 280.836 1345.46 279.18 1341.68 279.18C1338.87 279.18 1336.5 280.116 1334.55 282.024L1335.96 284.256C1337.5 282.708 1339.2 281.952 1341.18 281.952C1343.66 281.952 1345.42 283.248 1345.42 285.408V288.288C1344.09 286.74 1342.08 285.984 1339.74 285.984C1336.82 285.984 1333.69 287.712 1333.69 291.672C1333.69 295.488 1336.86 297.432 1339.74 297.432C1342.08 297.432 1344.06 296.604 1345.42 295.092V297ZM1345.42 293.184C1344.45 294.48 1342.76 295.164 1340.96 295.164C1338.62 295.164 1336.96 293.76 1336.96 291.708C1336.96 289.656 1338.62 288.252 1340.96 288.252C1342.76 288.252 1344.45 288.936 1345.42 290.232V293.184ZM1365.59 297H1368.83V284.796C1368.83 281.124 1366.92 279.18 1363.25 279.18C1360.55 279.18 1358.25 280.656 1357.1 282.06V279.612H1353.86V297H1357.1V284.58C1358.03 283.284 1359.87 282.06 1361.88 282.06C1364.12 282.06 1365.59 282.996 1365.59 285.876V297ZM1386.35 297H1389.59V272.988H1386.35V282.132C1384.95 280.26 1382.89 279.18 1380.66 279.18C1376.13 279.18 1372.89 282.744 1372.89 288.324C1372.89 294.012 1376.13 297.432 1380.66 297.432C1382.97 297.432 1385.05 296.244 1386.35 294.516V297ZM1386.35 292.032C1385.45 293.436 1383.51 294.552 1381.53 294.552C1378.29 294.552 1376.27 291.924 1376.27 288.324C1376.27 284.688 1378.29 282.06 1381.53 282.06C1383.51 282.06 1385.45 283.212 1386.35 284.616V292.032ZM1414.79 297H1418.03V285.264C1418.03 280.836 1414.82 279.18 1411.04 279.18C1408.23 279.18 1405.86 280.116 1403.91 282.024L1405.32 284.256C1406.87 282.708 1408.56 281.952 1410.54 281.952C1413.02 281.952 1414.79 283.248 1414.79 285.408V288.288C1413.45 286.74 1411.44 285.984 1409.1 285.984C1406.18 285.984 1403.05 287.712 1403.05 291.672C1403.05 295.488 1406.22 297.432 1409.1 297.432C1411.44 297.432 1413.42 296.604 1414.79 295.092V297ZM1414.79 293.184C1413.81 294.48 1412.12 295.164 1410.32 295.164C1407.98 295.164 1406.33 293.76 1406.33 291.708C1406.33 289.656 1407.98 288.252 1410.32 288.252C1412.12 288.252 1413.81 288.936 1414.79 290.232V293.184ZM1426.46 303.624V294.48C1427.86 296.388 1429.88 297.432 1432.15 297.432C1436.68 297.432 1439.89 293.976 1439.89 288.288C1439.89 282.6 1436.68 279.18 1432.15 279.18C1429.81 279.18 1427.72 280.368 1426.46 282.096V279.612H1423.22V303.624H1426.46ZM1436.5 288.288C1436.5 291.924 1434.52 294.552 1431.28 294.552C1429.3 294.552 1427.32 293.364 1426.46 291.996V284.616C1427.32 283.212 1429.3 282.06 1431.28 282.06C1434.52 282.06 1436.5 284.688 1436.5 288.288ZM1447.24 303.624V294.48C1448.64 296.388 1450.66 297.432 1452.92 297.432C1457.46 297.432 1460.66 293.976 1460.66 288.288C1460.66 282.6 1457.46 279.18 1452.92 279.18C1450.58 279.18 1448.5 280.368 1447.24 282.096V279.612H1444V303.624H1447.24ZM1457.28 288.288C1457.28 291.924 1455.3 294.552 1452.06 294.552C1450.08 294.552 1448.1 293.364 1447.24 291.996V284.616C1448.1 283.212 1450.08 282.06 1452.06 282.06C1455.3 282.06 1457.28 284.688 1457.28 288.288ZM1464.77 297H1468.01V272.988H1464.77V297ZM1474.76 276.696C1475.91 276.696 1476.85 275.796 1476.85 274.644C1476.85 273.492 1475.91 272.556 1474.76 272.556C1473.64 272.556 1472.67 273.492 1472.67 274.644C1472.67 275.796 1473.64 276.696 1474.76 276.696ZM1473.18 297H1476.42V279.612H1473.18V297ZM1480.5 288.288C1480.5 293.76 1484.31 297.432 1489.5 297.432C1492.31 297.432 1494.75 296.532 1496.48 294.84L1494.97 292.716C1493.67 294.048 1491.66 294.768 1489.82 294.768C1486.33 294.768 1484.17 292.32 1483.92 289.368H1497.67V288.576C1497.67 283.248 1494.43 279.18 1489.21 279.18C1484.13 279.18 1480.5 283.248 1480.5 288.288ZM1489.21 281.844C1492.88 281.844 1494.43 284.724 1494.5 287.028H1483.88C1484.06 284.652 1485.72 281.844 1489.21 281.844ZM1500.21 294.732C1501.97 296.532 1504.53 297.432 1507.45 297.432C1512.02 297.432 1514.47 295.092 1514.47 292.104C1514.47 288.108 1510.87 287.28 1507.84 286.596C1505.68 286.092 1503.81 285.588 1503.81 284.076C1503.81 282.672 1505.18 281.808 1507.37 281.808C1509.57 281.808 1511.51 282.708 1512.52 283.932L1513.96 281.664C1512.49 280.26 1510.33 279.18 1507.34 279.18C1503.09 279.18 1500.71 281.556 1500.71 284.328C1500.71 288.072 1504.17 288.864 1507.12 289.548C1509.35 290.052 1511.33 290.628 1511.33 292.356C1511.33 293.832 1510.04 294.84 1507.59 294.84C1505.25 294.84 1502.95 293.652 1501.76 292.356L1500.21 294.732ZM1532.63 297.432C1534.32 297.432 1535.33 296.964 1536.02 296.316L1535.19 293.868C1534.86 294.228 1534.18 294.552 1533.42 294.552C1532.31 294.552 1531.73 293.652 1531.73 292.428V282.456H1535.26V279.612H1531.73V274.86H1528.49V279.612H1525.61V282.456H1528.49V293.148C1528.49 295.884 1529.9 297.432 1532.63 297.432ZM1550.58 297H1553.82V284.724C1553.82 281.052 1551.95 279.18 1548.24 279.18C1545.58 279.18 1543.24 280.656 1542.09 282.06V272.988H1538.85V297H1542.09V284.58C1543.02 283.284 1544.86 282.06 1546.88 282.06C1549.11 282.06 1550.58 282.924 1550.58 285.804V297ZM1557.91 288.288C1557.91 293.76 1561.73 297.432 1566.91 297.432C1569.72 297.432 1572.17 296.532 1573.9 294.84L1572.38 292.716C1571.09 294.048 1569.07 294.768 1567.24 294.768C1563.74 294.768 1561.58 292.32 1561.33 289.368H1575.08V288.576C1575.08 283.248 1571.84 279.18 1566.62 279.18C1561.55 279.18 1557.91 283.248 1557.91 288.288ZM1566.62 281.844C1570.3 281.844 1571.84 284.724 1571.92 287.028H1561.3C1561.48 284.652 1563.13 281.844 1566.62 281.844ZM1600.27 297H1603.51V284.436C1603.51 280.944 1601.78 279.18 1598.58 279.18C1596.02 279.18 1593.72 280.8 1592.71 282.42C1592.17 280.548 1590.62 279.18 1587.99 279.18C1585.4 279.18 1583.1 280.98 1582.38 282.06V279.612H1579.14V297H1582.38V284.58C1583.24 283.32 1584.93 282.06 1586.62 282.06C1588.82 282.06 1589.68 283.392 1589.68 285.408V297H1592.92V284.544C1593.75 283.284 1595.48 282.06 1597.24 282.06C1599.37 282.06 1600.27 283.392 1600.27 285.408V297Z" fill="black"/>
<path d="M557.72 64H562.84L552.36 37.32H546.52L536.04 64H541.16L543.12 58.88H555.76L557.72 64ZM549.44 41.28L554.44 54.76H544.44L549.44 41.28ZM579.234 64H583.434V37.32H579.234V47.36C577.674 45.32 575.434 44.2 573.034 44.2C568.034 44.2 564.434 48.12 564.434 54.36C564.434 60.72 568.074 64.48 573.034 64.48C575.514 64.48 577.754 63.28 579.234 61.36V64ZM579.234 58.2C578.274 59.64 576.234 60.76 574.234 60.76C570.914 60.76 568.794 58.08 568.794 54.36C568.794 50.6 570.914 47.92 574.234 47.92C576.234 47.92 578.274 49.08 579.234 50.52V58.2ZM602.476 64H606.676V37.32H602.476V47.36C600.916 45.32 598.676 44.2 596.276 44.2C591.276 44.2 587.676 48.12 587.676 54.36C587.676 60.72 591.316 64.48 596.276 64.48C598.756 64.48 600.996 63.28 602.476 61.36V64ZM602.476 58.2C601.516 59.64 599.476 60.76 597.476 60.76C594.156 60.76 592.036 58.08 592.036 54.36C592.036 50.6 594.156 47.92 597.476 47.92C599.476 47.92 601.516 49.08 602.476 50.52V58.2ZM614.198 41.48C615.638 41.48 616.798 40.32 616.798 38.88C616.798 37.44 615.638 36.28 614.198 36.28C612.798 36.28 611.598 37.44 611.598 38.88C611.598 40.32 612.798 41.48 614.198 41.48ZM612.118 64H616.318V44.68H612.118V64ZM634.807 64H639.007V50.4C639.007 46.44 636.927 44.2 632.767 44.2C629.727 44.2 627.247 45.8 625.967 47.32V44.68H621.767V64H625.967V50.52C626.927 49.2 628.767 47.92 630.927 47.92C633.287 47.92 634.807 48.92 634.807 51.92V64ZM644.222 68.96C646.582 71.12 649.022 71.84 652.302 71.84C657.062 71.84 662.222 69.96 662.222 63V44.68H658.022V47.36C656.462 45.32 654.262 44.2 651.822 44.2C646.862 44.2 643.262 47.88 643.262 54.12C643.262 60.48 646.902 64.04 651.822 64.04C654.342 64.04 656.542 62.76 658.022 60.84V63.16C658.022 67.12 655.062 68.4 652.302 68.4C649.742 68.4 647.742 67.72 646.182 65.92L644.222 68.96ZM658.022 57.72C657.102 59.16 655.022 60.32 653.062 60.32C649.742 60.32 647.622 57.84 647.622 54.12C647.622 50.4 649.742 47.92 653.062 47.92C655.022 47.92 657.102 49.08 658.022 50.52V57.72ZM684.419 64H689.099V41.44H697.179V37.32H676.339V41.44H684.419V64ZM703.105 41.48C704.545 41.48 705.705 40.32 705.705 38.88C705.705 37.44 704.545 36.28 703.105 36.28C701.705 36.28 700.505 37.44 700.505 38.88C700.505 40.32 701.705 41.48 703.105 41.48ZM701.025 64H705.225V44.68H701.025V64ZM734.353 64H738.553V50.04C738.553 46.12 736.553 44.2 732.993 44.2C730.113 44.2 727.553 46 726.433 47.76C725.793 45.64 724.033 44.2 721.153 44.2C718.233 44.2 715.673 46.12 714.873 47.32V44.68H710.673V64H714.873V50.52C715.753 49.24 717.473 47.92 719.313 47.92C721.593 47.92 722.513 49.32 722.513 51.4V64H726.713V50.48C727.553 49.24 729.313 47.92 731.193 47.92C733.433 47.92 734.353 49.32 734.353 51.4V64ZM742.793 54.32C742.793 60.44 747.113 64.48 752.913 64.48C755.993 64.48 758.833 63.52 760.753 61.68L758.833 58.92C757.473 60.28 755.233 61.04 753.353 61.04C749.713 61.04 747.513 58.64 747.193 55.72H762.113V54.72C762.113 48.64 758.393 44.2 752.593 44.2C746.873 44.2 742.793 48.72 742.793 54.32ZM752.593 47.64C756.393 47.64 757.953 50.48 758.033 52.76H747.153C747.353 50.4 748.993 47.64 752.593 47.64ZM764.579 61.48C766.579 63.44 769.579 64.48 772.859 64.48C778.059 64.48 780.899 61.88 780.899 58.48C780.899 53.92 776.779 52.96 773.419 52.24C771.139 51.72 769.219 51.2 769.219 49.72C769.219 48.36 770.619 47.56 772.819 47.56C775.219 47.56 777.379 48.56 778.539 49.88L780.299 46.92C778.539 45.36 776.059 44.2 772.779 44.2C767.899 44.2 765.179 46.92 765.179 50.08C765.179 54.4 769.139 55.28 772.459 56C774.819 56.52 776.859 57.12 776.859 58.8C776.859 60.24 775.579 61.16 773.059 61.16C770.539 61.16 767.859 59.84 766.499 58.44L764.579 61.48ZM783.926 54.32C783.926 60.44 788.246 64.48 794.046 64.48C797.126 64.48 799.966 63.52 801.886 61.68L799.966 58.92C798.606 60.28 796.366 61.04 794.486 61.04C790.846 61.04 788.646 58.64 788.326 55.72H803.246V54.72C803.246 48.64 799.526 44.2 793.726 44.2C788.006 44.2 783.926 48.72 783.926 54.32ZM793.726 47.64C797.526 47.64 799.086 50.48 799.166 52.76H788.286C788.486 50.4 790.126 47.64 793.726 47.64ZM807.392 64H811.592V50.84C812.432 49.48 814.792 48.28 816.552 48.28C817.072 48.28 817.512 48.32 817.872 48.4V44.24C815.352 44.24 813.032 45.68 811.592 47.52V44.68H807.392V64ZM823.339 41.48C824.779 41.48 825.939 40.32 825.939 38.88C825.939 37.44 824.779 36.28 823.339 36.28C821.939 36.28 820.739 37.44 820.739 38.88C820.739 40.32 821.939 41.48 823.339 41.48ZM821.259 64H825.459V44.68H821.259V64ZM829.708 54.32C829.708 60.44 834.028 64.48 839.828 64.48C842.908 64.48 845.748 63.52 847.668 61.68L845.748 58.92C844.388 60.28 842.148 61.04 840.268 61.04C836.628 61.04 834.428 58.64 834.108 55.72H849.028V54.72C849.028 48.64 845.308 44.2 839.508 44.2C833.788 44.2 829.708 48.72 829.708 54.32ZM839.508 47.64C843.308 47.64 844.868 50.48 844.948 52.76H834.067C834.268 50.4 835.908 47.64 839.508 47.64ZM851.493 61.48C853.493 63.44 856.493 64.48 859.773 64.48C864.973 64.48 867.813 61.88 867.813 58.48C867.813 53.92 863.693 52.96 860.333 52.24C858.053 51.72 856.133 51.2 856.133 49.72C856.133 48.36 857.533 47.56 859.733 47.56C862.133 47.56 864.293 48.56 865.453 49.88L867.213 46.92C865.453 45.36 862.973 44.2 859.693 44.2C854.813 44.2 852.093 46.92 852.093 50.08C852.093 54.4 856.053 55.28 859.373 56C861.733 56.52 863.773 57.12 863.773 58.8C863.773 60.24 862.493 61.16 859.973 61.16C857.453 61.16 854.773 59.84 853.413 58.44L851.493 61.48Z" fill="#8C8C8C"/>
<rect x="86" y="97" width="526" height="74" fill="#4575FA"/>
<rect x="612" y="97" width="526" height="74" fill="#28CCEF"/>
<rect x="1138" y="97" width="526" height="74" fill="#2ACF58"/>
<path d="M271.592 147H276.112V120.32H271.432V139.24L257.792 120.32H252.992V147H257.672V127.56L271.592 147ZM293.461 147H297.661V134.2C297.661 129 293.901 127.2 289.621 127.2C286.541 127.2 283.741 128.2 281.501 130.32L283.221 133.24C284.901 131.6 286.781 130.8 288.941 130.8C291.621 130.8 293.461 132.16 293.461 134.4V137.28C292.061 135.64 289.821 134.8 287.221 134.8C284.061 134.8 280.501 136.64 280.501 141.08C280.501 145.36 284.061 147.48 287.221 147.48C289.781 147.48 292.021 146.56 293.461 144.92V147ZM293.461 142.6C292.501 143.92 290.701 144.6 288.861 144.6C286.501 144.6 284.741 143.24 284.741 141.16C284.741 139.04 286.501 137.68 288.861 137.68C290.701 137.68 292.501 138.36 293.461 139.68V142.6ZM308.187 147H312.707L320.587 127.68H316.067L310.427 142.16L304.787 127.68H300.307L308.187 147ZM325.304 124.48C326.744 124.48 327.904 123.32 327.904 121.88C327.904 120.44 326.744 119.28 325.304 119.28C323.904 119.28 322.704 120.44 322.704 121.88C322.704 123.32 323.904 124.48 325.304 124.48ZM323.224 147H327.424V127.68H323.224V147ZM332.632 151.96C334.992 154.12 337.432 154.84 340.712 154.84C345.472 154.84 350.632 152.96 350.632 146V127.68H346.432V130.36C344.872 128.32 342.672 127.2 340.232 127.2C335.272 127.2 331.672 130.88 331.672 137.12C331.672 143.48 335.312 147.04 340.232 147.04C342.752 147.04 344.952 145.76 346.432 143.84V146.16C346.432 150.12 343.472 151.4 340.712 151.4C338.152 151.4 336.152 150.72 334.592 148.92L332.632 151.96ZM346.432 140.72C345.512 142.16 343.432 143.32 341.472 143.32C338.152 143.32 336.032 140.84 336.032 137.12C336.032 133.4 338.152 130.92 341.472 130.92C343.432 130.92 345.512 132.08 346.432 133.52V140.72ZM367.875 147H372.075V134.2C372.075 129 368.315 127.2 364.035 127.2C360.955 127.2 358.155 128.2 355.915 130.32L357.635 133.24C359.315 131.6 361.195 130.8 363.355 130.8C366.035 130.8 367.875 132.16 367.875 134.4V137.28C366.475 135.64 364.235 134.8 361.635 134.8C358.475 134.8 354.915 136.64 354.915 141.08C354.915 145.36 358.475 147.48 361.635 147.48C364.195 147.48 366.435 146.56 367.875 144.92V147ZM367.875 142.6C366.915 143.92 365.115 144.6 363.275 144.6C360.915 144.6 359.155 143.24 359.155 141.16C359.155 139.04 360.915 137.68 363.275 137.68C365.115 137.68 366.915 138.36 367.875 139.68V142.6ZM383.321 147.48C385.281 147.48 386.521 146.96 387.281 146.24L386.281 143.08C385.961 143.44 385.201 143.76 384.401 143.76C383.201 143.76 382.561 142.8 382.561 141.48V131.36H386.481V127.68H382.561V122.4H378.361V127.68H375.161V131.36H378.361V142.52C378.361 145.72 380.081 147.48 383.321 147.48ZM392.374 124.48C393.814 124.48 394.974 123.32 394.974 121.88C394.974 120.44 393.814 119.28 392.374 119.28C390.974 119.28 389.774 120.44 389.774 121.88C389.774 123.32 390.974 124.48 392.374 124.48ZM390.294 147H394.494V127.68H390.294V147ZM408.663 147.48C414.863 147.48 418.623 142.88 418.623 137.32C418.623 131.8 414.863 127.2 408.663 127.2C402.543 127.2 398.743 131.8 398.743 137.32C398.743 142.88 402.543 147.48 408.663 147.48ZM408.663 143.76C405.103 143.76 403.103 140.76 403.103 137.32C403.103 133.92 405.103 130.92 408.663 130.92C412.263 130.92 414.263 133.92 414.263 137.32C414.263 140.76 412.263 143.76 408.663 143.76ZM435.912 147H440.112V133.4C440.112 129.44 438.032 127.2 433.872 127.2C430.832 127.2 428.352 128.8 427.072 130.32V127.68H422.872V147H427.072V133.52C428.032 132.2 429.872 130.92 432.032 130.92C434.392 130.92 435.912 131.92 435.912 134.92V147Z" fill="white"/>
<path d="M819.784 143.24C822.144 145.76 825.704 147.48 830.624 147.48C837.824 147.48 840.944 143.68 840.944 139.24C840.944 133.44 835.704 132.08 831.304 130.96C828.144 130.16 825.424 129.48 825.424 127.4C825.424 125.4 827.184 124.08 829.944 124.08C832.744 124.08 835.584 125.04 837.664 127.12L840.344 123.64C837.864 121.24 834.504 119.92 830.344 119.92C824.504 119.92 820.624 123.32 820.624 127.72C820.624 133.36 825.744 134.64 830.104 135.72C833.344 136.56 836.184 137.28 836.184 139.68C836.184 141.44 834.664 143.32 830.824 143.32C827.104 143.32 824.224 141.6 822.384 139.64L819.784 143.24ZM843.934 137.32C843.934 143.44 848.254 147.48 854.054 147.48C857.134 147.48 859.974 146.52 861.894 144.68L859.974 141.92C858.614 143.28 856.374 144.04 854.494 144.04C850.854 144.04 848.654 141.64 848.334 138.72H863.254V137.72C863.254 131.64 859.534 127.2 853.734 127.2C848.014 127.2 843.934 131.72 843.934 137.32ZM853.734 130.64C857.534 130.64 859.094 133.48 859.174 135.76H848.294C848.494 133.4 850.134 130.64 853.734 130.64ZM879.2 147H883.4V134.2C883.4 129 879.64 127.2 875.36 127.2C872.28 127.2 869.48 128.2 867.24 130.32L868.96 133.24C870.64 131.6 872.52 130.8 874.68 130.8C877.36 130.8 879.2 132.16 879.2 134.4V137.28C877.8 135.64 875.56 134.8 872.96 134.8C869.8 134.8 866.24 136.64 866.24 141.08C866.24 145.36 869.8 147.48 872.96 147.48C875.52 147.48 877.76 146.56 879.2 144.92V147ZM879.2 142.6C878.24 143.92 876.44 144.6 874.6 144.6C872.24 144.6 870.48 143.24 870.48 141.16C870.48 139.04 872.24 137.68 874.6 137.68C876.44 137.68 878.24 138.36 879.2 139.68V142.6ZM888.845 147H893.045V133.84C893.885 132.48 896.245 131.28 898.005 131.28C898.525 131.28 898.965 131.32 899.325 131.4V127.24C896.805 127.24 894.485 128.68 893.045 130.52V127.68H888.845V147ZM901.512 137.32C901.512 143.2 905.632 147.48 911.512 147.48C915.272 147.48 917.552 145.88 918.912 144.04L916.152 141.48C915.072 142.96 913.592 143.76 911.712 143.76C908.192 143.76 905.872 141.08 905.872 137.32C905.872 133.56 908.192 130.92 911.712 130.92C913.592 130.92 915.072 131.68 916.152 133.2L918.912 130.64C917.552 128.8 915.272 127.2 911.512 127.2C905.632 127.2 901.512 131.48 901.512 137.32ZM935.675 147H939.875V133.32C939.875 129.36 937.795 127.2 933.635 127.2C930.595 127.2 928.075 128.8 926.795 130.32V120.32H922.595V147H926.795V133.52C927.795 132.2 929.635 130.92 931.755 130.92C934.115 130.92 935.675 131.84 935.675 134.84V147Z" fill="white"/>
<path d="M1323.57 147H1328.69L1318.21 120.32H1312.37L1301.89 147H1307.01L1308.97 141.88H1321.61L1323.57 147ZM1315.29 124.28L1320.29 137.76H1310.29L1315.29 124.28ZM1331.9 147H1336.1V131.36H1340.02V127.68H1336.1V126.6C1336.1 124.44 1337.14 123.36 1338.78 123.36C1339.38 123.36 1339.98 123.48 1340.46 123.76L1341.38 120.68C1340.54 120.2 1339.34 119.92 1338.02 119.92C1334.46 119.92 1331.9 122.28 1331.9 126.6V127.68H1328.7V131.36H1331.9V147ZM1344.22 147H1348.42V131.36H1352.34V127.68H1348.42V126.6C1348.42 124.44 1349.46 123.36 1351.1 123.36C1351.7 123.36 1352.3 123.48 1352.78 123.76L1353.7 120.68C1352.86 120.2 1351.66 119.92 1350.34 119.92C1346.78 119.92 1344.22 122.28 1344.22 126.6V127.68H1341.02V131.36H1344.22V147ZM1364.26 147.48C1370.46 147.48 1374.22 142.88 1374.22 137.32C1374.22 131.8 1370.46 127.2 1364.26 127.2C1358.14 127.2 1354.34 131.8 1354.34 137.32C1354.34 142.88 1358.14 147.48 1364.26 147.48ZM1364.26 143.76C1360.7 143.76 1358.7 140.76 1358.7 137.32C1358.7 133.92 1360.7 130.92 1364.26 130.92C1367.86 130.92 1369.86 133.92 1369.86 137.32C1369.86 140.76 1367.86 143.76 1364.26 143.76ZM1378.47 147H1382.67V133.84C1383.51 132.48 1385.87 131.28 1387.63 131.28C1388.15 131.28 1388.59 131.32 1388.95 131.4V127.24C1386.43 127.24 1384.11 128.68 1382.67 130.52V127.68H1378.47V147ZM1405.94 147H1410.14V120.32H1405.94V130.36C1404.38 128.32 1402.14 127.2 1399.74 127.2C1394.74 127.2 1391.14 131.12 1391.14 137.36C1391.14 143.72 1394.78 147.48 1399.74 147.48C1402.22 147.48 1404.46 146.28 1405.94 144.36V147ZM1405.94 141.2C1404.98 142.64 1402.94 143.76 1400.94 143.76C1397.62 143.76 1395.5 141.08 1395.5 137.36C1395.5 133.6 1397.62 130.92 1400.94 130.92C1402.94 130.92 1404.98 132.08 1405.94 133.52V141.2ZM1427.38 147H1431.58V134.2C1431.58 129 1427.82 127.2 1423.54 127.2C1420.46 127.2 1417.66 128.2 1415.42 130.32L1417.14 133.24C1418.82 131.6 1420.7 130.8 1422.86 130.8C1425.54 130.8 1427.38 132.16 1427.38 134.4V137.28C1425.98 135.64 1423.74 134.8 1421.14 134.8C1417.98 134.8 1414.42 136.64 1414.42 141.08C1414.42 145.36 1417.98 147.48 1421.14 147.48C1423.7 147.48 1425.94 146.56 1427.38 144.92V147ZM1427.38 142.6C1426.42 143.92 1424.62 144.6 1422.78 144.6C1420.42 144.6 1418.66 143.24 1418.66 141.16C1418.66 139.04 1420.42 137.68 1422.78 137.68C1424.62 137.68 1426.42 138.36 1427.38 139.68V142.6ZM1450.07 147H1454.27V133.4C1454.27 129.44 1452.19 127.2 1448.03 127.2C1444.99 127.2 1442.51 128.8 1441.23 130.32V127.68H1437.03V147H1441.23V133.52C1442.19 132.2 1444.03 130.92 1446.19 130.92C1448.55 130.92 1450.07 131.92 1450.07 134.92V147ZM1458.52 137.32C1458.52 143.2 1462.64 147.48 1468.52 147.48C1472.28 147.48 1474.56 145.88 1475.92 144.04L1473.16 141.48C1472.08 142.96 1470.6 143.76 1468.72 143.76C1465.2 143.76 1462.88 141.08 1462.88 137.32C1462.88 133.56 1465.2 130.92 1468.72 130.92C1470.6 130.92 1472.08 131.68 1473.16 133.2L1475.92 130.64C1474.56 128.8 1472.28 127.2 1468.52 127.2C1462.64 127.2 1458.52 131.48 1458.52 137.32ZM1478.41 137.32C1478.41 143.44 1482.73 147.48 1488.53 147.48C1491.61 147.48 1494.45 146.52 1496.37 144.68L1494.45 141.92C1493.09 143.28 1490.85 144.04 1488.97 144.04C1485.33 144.04 1483.13 141.64 1482.81 138.72H1497.73V137.72C1497.73 131.64 1494.01 127.2 1488.21 127.2C1482.49 127.2 1478.41 131.72 1478.41 137.32ZM1488.21 130.64C1492.01 130.64 1493.57 133.48 1493.65 135.76H1482.77C1482.97 133.4 1484.61 130.64 1488.21 130.64Z" fill="white"/>
<path d="M44.616 336.861C48.552 336.861 51.288 334.581 51.288 329.685C51.288 324.837 48.576 322.557 44.592 322.557L34.992 322.557L34.992 326.013L44.496 326.013C46.728 326.013 48.264 327.237 48.264 329.685C48.264 332.181 46.728 333.405 44.496 333.405L34.992 333.405L34.992 336.861L44.616 336.861ZM49.488 320.48C50.616 319.256 51.288 317.312 51.288 315.296C51.288 312.08 49.68 310.28 47.568 310.28C44.688 310.28 44.16 312.944 43.776 314.936C43.512 316.232 43.248 317.144 42.528 317.144C41.856 317.144 41.448 316.424 41.448 315.32C41.448 313.904 42.048 312.584 42.792 311.888L40.704 310.664C39.792 311.816 39.12 313.376 39.12 315.344C39.12 318.392 40.824 320.096 42.768 320.096C45.528 320.096 46.008 317.528 46.392 315.536C46.656 314.216 46.944 313.208 47.76 313.208C48.48 313.208 48.936 313.832 48.936 315.152C48.936 316.592 48.144 318.32 47.352 319.16L49.488 320.48ZM45.192 308.779C48.912 308.779 51.288 306.115 51.288 302.587C51.288 300.787 50.736 298.963 49.68 297.811L47.712 299.155C48.432 299.899 48.864 301.171 48.864 302.251C48.864 304.219 47.64 305.395 46.176 305.587L46.176 296.971L45.504 296.971C41.712 296.971 39.12 299.323 39.12 302.779C39.12 306.307 41.832 308.779 45.192 308.779ZM41.544 302.779C41.544 300.763 43.008 299.995 44.112 299.923L44.112 305.635C42.96 305.491 41.544 304.675 41.544 302.779ZM51 294.769L51 291.721L43.344 291.721C42.6 291.217 42.024 289.873 42.024 288.865C42.024 288.529 42.072 288.241 42.12 288.025L39.144 288.025C39.144 289.465 39.96 290.905 40.992 291.721L39.408 291.721L39.408 294.769L51 294.769ZM51 268.7L51 264.98L34.992 271.148L34.992 275.42L51 281.612L51 277.868L48.24 276.86L48.24 269.708L51 268.7ZM37.944 273.284L45.288 270.644L45.288 275.948L37.944 273.284ZM45.192 264.318C48.768 264.318 51.288 261.75 51.288 258.174C51.288 255.798 50.256 254.358 49.176 253.59L47.328 255.582C48.096 256.134 48.576 256.974 48.576 258.03C48.576 259.878 47.208 261.174 45.192 261.174C43.176 261.174 41.832 259.878 41.832 258.03C41.832 256.974 42.264 256.134 43.08 255.582L41.208 253.59C40.152 254.358 39.12 255.798 39.12 258.174C39.12 261.75 41.64 264.318 45.192 264.318ZM51.288 247.709C51.288 246.437 50.952 245.621 50.544 245.165L48.24 245.813C48.408 245.981 48.576 246.413 48.576 246.869C48.576 247.541 48.024 247.925 47.304 247.925L42.072 247.925L42.072 245.573L39.408 245.573L39.408 247.925L36.24 247.925L36.24 250.997L39.408 250.997L39.408 252.917L42.072 252.917L42.072 250.997L48.12 250.997C50.184 250.997 51.288 249.845 51.288 247.709ZM37.704 241.976C37.704 240.968 36.888 240.152 35.88 240.152C34.872 240.152 34.056 240.968 34.056 241.976C34.056 242.96 34.872 243.8 35.88 243.8C36.888 243.8 37.704 242.96 37.704 241.976ZM51 243.488L51 240.44L39.408 240.44L39.408 243.488L51 243.488ZM51 234.418L51 231.13L39.408 226.474L39.408 229.762L47.472 232.786L39.408 235.81L39.408 239.074L51 234.418ZM37.704 223.601C37.704 222.593 36.888 221.777 35.88 221.777C34.872 221.777 34.056 222.593 34.056 223.601C34.056 224.585 34.872 225.425 35.88 225.425C36.888 225.425 37.704 224.585 37.704 223.601ZM51 225.113L51 222.065L39.408 222.065L39.408 225.113L51 225.113ZM51.288 215.155C51.288 213.883 50.952 213.067 50.544 212.611L48.24 213.259C48.408 213.427 48.576 213.859 48.576 214.315C48.576 214.987 48.024 215.371 47.304 215.371L42.072 215.371L42.072 213.019L39.408 213.019L39.408 215.371L36.24 215.371L36.24 218.443L39.408 218.443L39.408 220.363L42.072 220.363L42.072 218.443L48.12 218.443C50.184 218.443 51.288 217.291 51.288 215.155ZM52.8 210.885L55.536 211.341C55.632 210.957 55.704 210.189 55.704 209.829C55.656 207.837 55.08 206.301 52.896 205.437L39.408 199.989L39.408 203.277L47.472 206.301L39.408 209.325L39.408 212.589L51.168 207.885L52.152 208.317C52.776 208.605 52.992 209.133 52.992 209.925C52.992 210.213 52.92 210.621 52.8 210.885Z" fill="black"/>
<path d="M44.616 671.861C48.552 671.861 51.288 669.581 51.288 664.685C51.288 659.837 48.576 657.557 44.592 657.557L34.992 657.557L34.992 661.013L44.496 661.013C46.728 661.013 48.264 662.237 48.264 664.685C48.264 667.181 46.728 668.405 44.496 668.405L34.992 668.405L34.992 671.861L44.616 671.861ZM49.488 655.48C50.616 654.256 51.288 652.312 51.288 650.296C51.288 647.08 49.68 645.28 47.568 645.28C44.688 645.28 44.16 647.944 43.776 649.936C43.512 651.232 43.248 652.144 42.528 652.144C41.856 652.144 41.448 651.424 41.448 650.32C41.448 648.904 42.048 647.584 42.792 646.888L40.704 645.664C39.792 646.816 39.12 648.376 39.12 650.344C39.12 653.392 40.824 655.096 42.768 655.096C45.528 655.096 46.008 652.528 46.392 650.536C46.656 649.216 46.944 648.208 47.76 648.208C48.48 648.208 48.936 648.832 48.936 650.152C48.936 651.592 48.144 653.32 47.352 654.16L49.488 655.48ZM45.192 643.779C48.912 643.779 51.288 641.115 51.288 637.587C51.288 635.787 50.736 633.963 49.68 632.811L47.712 634.155C48.432 634.899 48.864 636.171 48.864 637.251C48.864 639.219 47.64 640.395 46.176 640.587L46.176 631.971L45.504 631.971C41.712 631.971 39.12 634.323 39.12 637.779C39.12 641.307 41.832 643.779 45.192 643.779ZM41.544 637.779C41.544 635.763 43.008 634.995 44.112 634.923L44.112 640.635C42.96 640.491 41.544 639.675 41.544 637.779ZM51 629.769L51 626.721L43.344 626.721C42.6 626.217 42.024 624.873 42.024 623.865C42.024 623.529 42.072 623.241 42.12 623.025L39.144 623.025C39.144 624.465 39.96 625.905 40.992 626.721L39.408 626.721L39.408 629.769L51 629.769ZM49.728 616.348C50.856 615.196 51.288 613.66 51.288 612.052C51.288 608.764 49.536 606.412 45.744 606.412L34.992 606.412L34.992 609.82L45.696 609.82C47.256 609.82 48.264 610.804 48.264 612.316C48.264 613.42 47.712 614.236 47.112 614.86L49.728 616.348ZM51.288 597.932C51.288 594.092 48.504 591.788 45.192 591.788C41.904 591.788 39.12 594.092 39.12 597.932C39.12 601.748 41.904 604.052 45.192 604.052C48.504 604.052 51.288 601.748 51.288 597.932ZM48.576 597.932C48.576 599.828 47.016 600.884 45.192 600.884C43.392 600.884 41.832 599.828 41.832 597.932C41.832 596.036 43.392 594.956 45.192 594.956C47.016 594.956 48.576 596.036 48.576 597.932ZM51 581.703L51 578.655L39.408 578.655L39.408 581.703L47.256 581.703C47.928 582.231 48.576 583.167 48.576 584.343C48.576 585.639 48.048 586.479 46.44 586.479L39.408 586.479L39.408 589.527L47.64 589.527C49.896 589.527 51.288 588.327 51.288 585.783C51.288 583.887 50.424 582.495 49.536 581.703L51 581.703ZM51 575.629L51 572.581L43.344 572.581C42.6 572.077 42.024 570.733 42.024 569.725C42.024 569.389 42.072 569.101 42.12 568.885L39.144 568.885C39.144 570.325 39.96 571.765 40.992 572.581L39.408 572.581L39.408 575.629L51 575.629ZM51 559.156L51 556.108L42.816 556.108C40.56 556.108 39.12 557.332 39.12 559.876C39.12 561.772 40.032 563.188 40.92 563.932L39.408 563.932L39.408 566.98L51 566.98L51 563.932L43.2 563.932C42.504 563.428 41.832 562.492 41.832 561.292C41.832 559.996 42.384 559.156 43.992 559.156L51 559.156ZM45.192 553.826C48.912 553.826 51.288 551.162 51.288 547.634C51.288 545.834 50.736 544.01 49.68 542.858L47.712 544.202C48.432 544.946 48.864 546.218 48.864 547.298C48.864 549.266 47.64 550.442 46.176 550.634L46.176 542.018L45.504 542.018C41.712 542.018 39.12 544.37 39.12 547.826C39.12 551.354 41.832 553.826 45.192 553.826ZM41.544 547.826C41.544 545.81 43.008 545.042 44.112 544.97L44.112 550.682C42.96 550.538 41.544 549.722 41.544 547.826ZM52.8 539.768L55.536 540.224C55.632 539.84 55.704 539.072 55.704 538.712C55.656 536.72 55.08 535.184 52.896 534.32L39.408 528.872L39.408 532.16L47.472 535.184L39.408 538.208L39.408 541.472L51.168 536.768L52.152 537.2C52.776 537.488 52.992 538.016 52.992 538.808C52.992 539.096 52.92 539.504 52.8 539.768Z" fill="black"/>
<path d="M96.188 823H100.922C104.684 823 107.294 820.624 107.294 817.006C107.294 813.388 104.684 810.994 100.922 810.994H96.188V823ZM98.744 820.75V813.244H100.922C103.388 813.244 104.684 814.882 104.684 817.006C104.684 819.04 103.298 820.75 100.922 820.75H98.744ZM110.188 813.028C110.944 813.028 111.556 812.416 111.556 811.66C111.556 810.904 110.944 810.292 110.188 810.292C109.45 810.292 108.82 810.904 108.82 811.66C108.82 812.416 109.45 813.028 110.188 813.028ZM109.054 823H111.34V814.306H109.054V823ZM112.851 821.866C113.769 822.712 115.227 823.216 116.739 823.216C119.151 823.216 120.501 822.01 120.501 820.426C120.501 818.266 118.503 817.87 117.009 817.582C116.037 817.384 115.353 817.186 115.353 816.646C115.353 816.142 115.893 815.836 116.721 815.836C117.783 815.836 118.773 816.286 119.295 816.844L120.213 815.278C119.349 814.594 118.179 814.09 116.703 814.09C114.417 814.09 113.139 815.368 113.139 816.826C113.139 818.896 115.065 819.256 116.559 819.544C117.549 819.742 118.305 819.958 118.305 820.57C118.305 821.11 117.837 821.452 116.847 821.452C115.767 821.452 114.471 820.858 113.841 820.264L112.851 821.866ZM121.429 821.866C122.347 822.712 123.805 823.216 125.317 823.216C127.729 823.216 129.079 822.01 129.079 820.426C129.079 818.266 127.081 817.87 125.587 817.582C124.615 817.384 123.931 817.186 123.931 816.646C123.931 816.142 124.471 815.836 125.299 815.836C126.361 815.836 127.351 816.286 127.873 816.844L128.791 815.278C127.927 814.594 126.757 814.09 125.281 814.09C122.995 814.09 121.717 815.368 121.717 816.826C121.717 818.896 123.643 819.256 125.137 819.544C126.127 819.742 126.883 819.958 126.883 820.57C126.883 821.11 126.415 821.452 125.425 821.452C124.345 821.452 123.049 820.858 122.419 820.264L121.429 821.866ZM135.983 823H138.269V817.384C138.269 814.882 136.451 814.09 134.471 814.09C133.103 814.09 131.735 814.522 130.673 815.458L131.537 816.988C132.275 816.304 133.139 815.962 134.075 815.962C135.227 815.962 135.983 816.538 135.983 817.42V818.626C135.407 817.924 134.381 817.564 133.229 817.564C131.843 817.564 130.205 818.302 130.205 820.336C130.205 822.28 131.843 823.216 133.229 823.216C134.363 823.216 135.389 822.802 135.983 822.1V823ZM135.983 820.912C135.605 821.416 134.885 821.668 134.147 821.668C133.247 821.668 132.509 821.2 132.509 820.39C132.509 819.544 133.247 819.076 134.147 819.076C134.885 819.076 135.605 819.328 135.983 819.832V820.912ZM143.452 823.216C144.406 823.216 145.018 822.964 145.36 822.658L144.874 820.93C144.748 821.056 144.424 821.182 144.082 821.182C143.578 821.182 143.29 820.768 143.29 820.228V816.304H145.054V814.306H143.29V811.93H140.986V814.306H139.546V816.304H140.986V820.84C140.986 822.388 141.85 823.216 143.452 823.216ZM147.752 813.028C148.508 813.028 149.12 812.416 149.12 811.66C149.12 810.904 148.508 810.292 147.752 810.292C147.014 810.292 146.384 810.904 146.384 811.66C146.384 812.416 147.014 813.028 147.752 813.028ZM146.618 823H148.904V814.306H146.618V823ZM150.415 821.866C151.333 822.712 152.791 823.216 154.303 823.216C156.715 823.216 158.065 822.01 158.065 820.426C158.065 818.266 156.067 817.87 154.573 817.582C153.601 817.384 152.917 817.186 152.917 816.646C152.917 816.142 153.457 815.836 154.285 815.836C155.347 815.836 156.337 816.286 156.859 816.844L157.777 815.278C156.913 814.594 155.743 814.09 154.267 814.09C151.981 814.09 150.703 815.368 150.703 816.826C150.703 818.896 152.629 819.256 154.123 819.544C155.113 819.742 155.869 819.958 155.869 820.57C155.869 821.11 155.401 821.452 154.411 821.452C153.331 821.452 152.035 820.858 151.405 820.264L150.415 821.866ZM166.769 813.028C167.525 813.028 168.137 812.416 168.137 811.66C168.137 810.904 167.525 810.292 166.769 810.292C166.031 810.292 165.401 810.904 165.401 811.66C165.401 812.416 166.031 813.028 166.769 813.028ZM160.253 823H162.557V816.304H164.321V814.306H162.557V813.838C162.557 813.046 162.989 812.614 163.637 812.614C163.943 812.614 164.195 812.704 164.375 812.83L164.843 811.174C164.429 810.958 163.835 810.814 163.187 810.814C161.477 810.814 160.253 811.948 160.253 813.838V814.306H158.813V816.304H160.253V823ZM165.635 823H167.921V814.306H165.635V823ZM169.633 818.644C169.633 821.434 171.631 823.216 174.277 823.216C175.627 823.216 176.995 822.802 177.859 822.01L176.851 820.534C176.293 821.074 175.339 821.398 174.529 821.398C173.053 821.398 172.171 820.48 172.027 819.382H178.489V818.878C178.489 816.034 176.725 814.09 174.133 814.09C171.487 814.09 169.633 816.124 169.633 818.644ZM174.133 815.908C175.645 815.908 176.221 817.006 176.275 817.834H171.991C172.099 816.97 172.711 815.908 174.133 815.908ZM186.116 823H188.42V810.994H186.116V815.422C185.432 814.54 184.46 814.09 183.434 814.09C181.22 814.09 179.582 815.818 179.582 818.662C179.582 821.56 181.238 823.216 183.434 823.216C184.478 823.216 185.432 822.748 186.116 821.884V823ZM186.116 820.192C185.738 820.768 184.91 821.182 184.136 821.182C182.84 821.182 181.94 820.156 181.94 818.662C181.94 817.15 182.84 816.124 184.136 816.124C184.91 816.124 185.738 816.538 186.116 817.114V820.192Z" fill="black"/>
<path d="M95.36 399.308C96.494 400.442 98.15 401.216 100.454 401.216C103.694 401.216 105.26 399.56 105.26 397.364C105.26 394.7 102.74 394.106 100.76 393.656C99.374 393.332 98.366 393.08 98.366 392.27C98.366 391.55 98.978 391.046 100.13 391.046C101.3 391.046 102.596 391.46 103.568 392.36L104.99 390.488C103.802 389.39 102.218 388.814 100.31 388.814C97.484 388.814 95.756 390.434 95.756 392.432C95.756 395.114 98.276 395.654 100.238 396.104C101.624 396.428 102.668 396.734 102.668 397.634C102.668 398.318 101.984 398.984 100.58 398.984C98.924 398.984 97.61 398.246 96.764 397.364L95.36 399.308ZM112.147 401H114.433V395.384C114.433 392.882 112.615 392.09 110.635 392.09C109.267 392.09 107.899 392.522 106.837 393.458L107.701 394.988C108.439 394.304 109.303 393.962 110.239 393.962C111.391 393.962 112.147 394.538 112.147 395.42V396.626C111.571 395.924 110.545 395.564 109.393 395.564C108.007 395.564 106.369 396.302 106.369 398.336C106.369 400.28 108.007 401.216 109.393 401.216C110.527 401.216 111.553 400.802 112.147 400.1V401ZM112.147 398.912C111.769 399.416 111.049 399.668 110.311 399.668C109.411 399.668 108.673 399.2 108.673 398.39C108.673 397.544 109.411 397.076 110.311 397.076C111.049 397.076 111.769 397.328 112.147 397.832V398.912ZM119.616 401.216C120.57 401.216 121.182 400.964 121.524 400.658L121.038 398.93C120.912 399.056 120.588 399.182 120.246 399.182C119.742 399.182 119.454 398.768 119.454 398.228V394.304H121.218V392.306H119.454V389.93H117.15V392.306H115.71V394.304H117.15V398.84C117.15 400.388 118.014 401.216 119.616 401.216ZM123.916 391.028C124.672 391.028 125.284 390.416 125.284 389.66C125.284 388.904 124.672 388.292 123.916 388.292C123.178 388.292 122.548 388.904 122.548 389.66C122.548 390.416 123.178 391.028 123.916 391.028ZM122.782 401H125.068V392.306H122.782V401ZM126.579 399.866C127.497 400.712 128.955 401.216 130.467 401.216C132.879 401.216 134.229 400.01 134.229 398.426C134.229 396.266 132.231 395.87 130.737 395.582C129.765 395.384 129.081 395.186 129.081 394.646C129.081 394.142 129.621 393.836 130.449 393.836C131.511 393.836 132.501 394.286 133.023 394.844L133.941 393.278C133.077 392.594 131.907 392.09 130.431 392.09C128.145 392.09 126.867 393.368 126.867 394.826C126.867 396.896 128.793 397.256 130.287 397.544C131.277 397.742 132.033 397.958 132.033 398.57C132.033 399.11 131.565 399.452 130.575 399.452C129.495 399.452 128.199 398.858 127.569 398.264L126.579 399.866ZM142.933 391.028C143.689 391.028 144.301 390.416 144.301 389.66C144.301 388.904 143.689 388.292 142.933 388.292C142.195 388.292 141.565 388.904 141.565 389.66C141.565 390.416 142.195 391.028 142.933 391.028ZM136.417 401H138.721V394.304H140.485V392.306H138.721V391.838C138.721 391.046 139.153 390.614 139.801 390.614C140.107 390.614 140.359 390.704 140.539 390.83L141.007 389.174C140.593 388.958 139.999 388.814 139.351 388.814C137.641 388.814 136.417 389.948 136.417 391.838V392.306H134.977V394.304H136.417V401ZM141.799 401H144.085V392.306H141.799V401ZM145.797 396.644C145.797 399.434 147.795 401.216 150.441 401.216C151.791 401.216 153.159 400.802 154.023 400.01L153.015 398.534C152.457 399.074 151.503 399.398 150.693 399.398C149.217 399.398 148.335 398.48 148.191 397.382H154.653V396.878C154.653 394.034 152.889 392.09 150.297 392.09C147.651 392.09 145.797 394.124 145.797 396.644ZM150.297 393.908C151.809 393.908 152.385 395.006 152.439 395.834H148.155C148.263 394.97 148.875 393.908 150.297 393.908ZM162.28 401H164.584V388.994H162.28V393.422C161.596 392.54 160.624 392.09 159.598 392.09C157.384 392.09 155.746 393.818 155.746 396.662C155.746 399.56 157.402 401.216 159.598 401.216C160.642 401.216 161.596 400.748 162.28 399.884V401ZM162.28 398.192C161.902 398.768 161.074 399.182 160.3 399.182C159.004 399.182 158.104 398.156 158.104 396.662C158.104 395.15 159.004 394.124 160.3 394.124C161.074 394.124 161.902 394.538 162.28 395.114V398.192Z" fill="black"/>
<line x1="89.5" y1="522.5" x2="1660.5" y2="522.5" stroke="#8C8C8C" stroke-width="7" stroke-linecap="round" stroke-linejoin="round" stroke-dasharray="1 15"/>
<line x1="89.5" y1="682.5" x2="1660.5" y2="682.5" stroke="#8C8C8C" stroke-width="7" stroke-linecap="round" stroke-linejoin="round" stroke-dasharray="1 15"/>
<line x1="86" y1="369.5" x2="1664" y2="369.5" stroke="black" stroke-width="7"/>
<line x1="86" y1="837.5" x2="1664" y2="837.5" stroke="black" stroke-width="7"/>
<circle cx="349" cy="764" r="15" fill="#E32351"/>
<circle cx="875" cy="686" r="15" fill="#E32351"/>
<circle cx="1401" cy="686" r="15" fill="#E32351"/>
<path d="M1664 686C1664 686 1166.5 686 879 686C591.5 686 512.5 765 350 765" stroke="#E32351" stroke-width="5"/>
<defs>
<linearGradient id="paint0_linear" x1="344.404" y1="1200" x2="776.481" y2="-8.68531" gradientUnits="userSpaceOnUse">
<stop stop-color="#23D8ED" stop-opacity="0.06"/>
<stop offset="1" stop-color="#0500FF" stop-opacity="0.47"/>
</linearGradient>
<linearGradient id="paint1_linear" x1="875" y1="1101.5" x2="1272.03" y2="-21.081" gradientUnits="userSpaceOnUse">
<stop stop-color="#B0FFAE" stop-opacity="0.15"/>
<stop offset="1" stop-color="#00D6C9" stop-opacity="0.47"/>
</linearGradient>
<linearGradient id="paint2_linear" x1="1401" y1="1101.5" x2="1798.03" y2="-21.081" gradientUnits="userSpaceOnUse">
<stop stop-color="#FFF500" stop-opacity="0"/>
<stop offset="1" stop-color="#2ACF58" stop-opacity="0.58"/>
</linearGradient>
</defs>
</svg>
