<svg width="42" height="43" viewBox="0 0 42 43" fill="none" xmlns="http://www.w3.org/2000/svg">
<path d="M10.4527 9.1468C9.66335 7.76697 7.9048 7.28831 6.52498 8.07771C5.14515 8.86711 4.66649 10.6256 5.45589 12.0054C5.58241 12.2266 5.73778 12.43 5.91785 12.6103L15.3186 24.919L17.51 27.6806L11.0779 19.2589C10.2886 17.8791 8.53003 17.4004 7.15021 18.1898C5.77038 18.9792 5.29172 20.7377 6.08112 22.1175C6.20764 22.3387 6.36301 22.5421 6.54308 22.7224L12.9752 31.144L18.0868 37.583C22.5433 42.6966 29.9187 42.4174 35.031 37.962C37.9693 35.3793 39.8589 31.809 40.3421 27.927C40.6566 24.4767 41 15.4542 41 15.4542C40.8511 13.3341 38.4442 11.7669 38.134 12.8618L34.1447 20.8158L31.4011 17.3738L34.1447 20.8158L31.4011 17.3738L20.4249 3.34602C19.6356 1.9662 17.877 1.48754 16.4972 2.27694C15.1174 3.06634 14.6387 4.82481 15.4281 6.20463C15.5546 6.42587 15.71 6.62925 15.89 6.80948L19.3535 11.3443L24.5896 18.2569L13.651 3.84474C12.8616 2.46492 11.1031 1.98625 9.72327 2.77566C8.34344 3.56506 7.86478 5.32353 8.6541 6.70335C8.78061 6.92458 8.93598 7.12797 9.11605 7.30828L21.0758 22.8082" fill="#FCEA2B"/>
<path d="M10.4527 9.1468C9.66335 7.76697 7.9048 7.28831 6.52498 8.07771C5.14515 8.86711 4.66649 10.6256 5.45589 12.0054C5.58241 12.2266 5.73778 12.43 5.91785 12.6103L15.3186 24.919L17.51 27.6806L11.0779 19.2589C10.2886 17.8791 8.53003 17.4004 7.15021 18.1898C5.77038 18.9792 5.29172 20.7377 6.08112 22.1175C6.20764 22.3387 6.36301 22.5421 6.54307 22.7224L12.9752 31.144L18.0868 37.583C22.5433 42.6966 29.9187 42.4174 35.031 37.962C37.9693 35.3793 39.8589 31.809 40.3421 27.927C40.6566 24.4767 41 15.4542 41 15.4542C40.8511 13.3341 38.4442 11.7669 38.134 12.8618L34.1447 20.8158L31.4011 17.3738L34.1447 20.8158L31.4011 17.3738L20.4249 3.34602C19.6356 1.9662 17.877 1.48754 16.4972 2.27694C15.1174 3.06634 14.6387 4.82481 15.4281 6.20463C15.5546 6.42587 15.71 6.62925 15.89 6.80948L19.3535 11.3443L24.5896 18.2569L13.651 3.84474C12.8616 2.46492 11.1031 1.98625 9.72327 2.77566C8.34344 3.56506 7.86478 5.32353 8.6541 6.70335C8.78061 6.92458 8.93598 7.12797 9.11605 7.30828L21.0758 22.8082" stroke="black" stroke-width="2" stroke-linecap="round" stroke-linejoin="round"/>
<path d="M4.75903 28.4102C4.75903 30.5021 6.18312 32.1948 7.94297 32.1948" stroke="black" stroke-width="2" stroke-miterlimit="10" stroke-linecap="round" stroke-linejoin="round"/>
<path d="M1 28.0557C1 32.6172 4.10528 36.3084 7.94282 36.3084" stroke="black" stroke-width="2" stroke-miterlimit="10" stroke-linecap="round" stroke-linejoin="round"/>
<path d="M32.1395 10.7749C32.1395 8.68292 30.7154 6.99023 28.9556 6.99023" stroke="black" stroke-width="2" stroke-miterlimit="10" stroke-linecap="round" stroke-linejoin="round"/>
<path d="M35.8984 11.1288C35.8984 6.56719 32.7931 2.87598 28.9556 2.87598" stroke="black" stroke-width="2" stroke-miterlimit="10" stroke-linecap="round" stroke-linejoin="round"/>
</svg>
